<svg width="161" height="50" viewBox="0 0 161 50" fill="none" xmlns="http://www.w3.org/2000/svg">
<g clip-path="url(#clip0_81_579)">
<path d="M84.4347 12.5626C84.4347 14.3644 82.9832 15.8158 81.1814 15.8158C79.3796 15.8158 77.9282 14.3644 77.9282 12.5626C77.9282 10.7608 79.3296 9.30931 81.1814 9.30931C83.0333 9.35936 84.4347 10.8108 84.4347 12.5626ZM71.0213 19.1191C71.0213 19.4194 71.0213 19.9199 71.0213 19.9199C71.0213 19.9199 69.4697 17.9179 66.1664 17.9179C60.711 17.9179 56.4567 22.0721 56.4567 27.8278C56.4567 33.5335 60.6609 37.7377 66.1664 37.7377C69.5198 37.7377 71.0213 35.6857 71.0213 35.6857V36.5365C71.0213 36.9369 71.3216 37.2372 71.722 37.2372H75.776V18.4184C75.776 18.4184 72.0723 18.4184 71.722 18.4184C71.3216 18.4184 71.0213 18.7688 71.0213 19.1191ZM71.0213 31.1812C70.2705 32.2823 68.769 33.2332 66.9672 33.2332C63.764 33.2332 61.3116 31.2312 61.3116 27.8278C61.3116 24.4244 63.764 22.4224 66.9672 22.4224C68.719 22.4224 70.3206 23.4234 71.0213 24.4745V31.1812ZM78.779 18.4184H83.5838V37.2372H78.779V18.4184ZM150.551 17.9179C147.247 17.9179 145.696 19.9199 145.696 19.9199V9.35936H140.891V37.2372C140.891 37.2372 144.595 37.2372 144.945 37.2372C145.346 37.2372 145.646 36.8869 145.646 36.5365V35.6857C145.646 35.6857 147.197 37.7377 150.501 37.7377C155.956 37.7377 160.21 33.5335 160.21 27.8278C160.21 22.1221 155.956 17.9179 150.551 17.9179ZM149.75 33.1832C147.898 33.1832 146.447 32.2322 145.696 31.1311V24.4244C146.447 23.4234 148.048 22.3724 149.75 22.3724C152.953 22.3724 155.406 24.3744 155.406 27.7778C155.406 31.1812 152.953 33.1832 149.75 33.1832ZM138.389 26.0761V37.2873H133.584V26.6266C133.584 23.5235 132.583 22.2723 129.88 22.2723C128.429 22.2723 126.927 23.023 125.976 24.1241V37.2372H121.171V18.4184H124.975C125.376 18.4184 125.676 18.7688 125.676 19.1191V19.9199C127.077 18.4685 128.929 17.9179 130.781 17.9179C132.883 17.9179 134.635 18.5185 136.036 19.7197C137.738 21.1211 138.389 22.9229 138.389 26.0761ZM109.51 17.9179C106.206 17.9179 104.655 19.9199 104.655 19.9199V9.35936H99.8501V37.2372C99.8501 37.2372 103.554 37.2372 103.904 37.2372C104.305 37.2372 104.605 36.8869 104.605 36.5365V35.6857C104.605 35.6857 106.156 37.7377 109.46 37.7377C114.915 37.7377 119.169 33.5335 119.169 27.8278C119.219 22.1221 114.965 17.9179 109.51 17.9179ZM108.709 33.1832C106.857 33.1832 105.406 32.2322 104.655 31.1311V24.4244C105.406 23.4234 107.007 22.3724 108.709 22.3724C111.912 22.3724 114.365 24.3744 114.365 27.7778C114.365 31.1812 111.912 33.1832 108.709 33.1832ZM95.696 17.9179C97.1474 17.9179 97.8982 18.1682 97.8982 18.1682V22.6226C97.8982 22.6226 93.8942 21.2713 91.3917 24.1241V37.2873H86.5869V18.4184C86.5869 18.4184 90.2906 18.4184 90.6409 18.4184C91.0413 18.4184 91.3416 18.7688 91.3416 19.1191V19.9199C92.2425 18.8689 94.1945 17.9179 95.696 17.9179ZM45.7961 35.5355C45.5458 34.9349 45.2956 34.2843 45.0453 33.7337C44.6449 32.8328 44.2445 31.982 43.8942 31.1812L43.8441 31.1311C40.3907 23.6236 36.687 16.016 32.783 8.50851L32.6329 8.20821C32.2325 7.45746 31.8321 6.65666 31.4317 5.85586C30.9312 4.95496 30.4307 4.004 29.6299 3.1031C28.0283 1.1011 25.726 0 23.2735 0C20.771 0 18.5188 1.1011 16.8671 3.003C16.1164 3.9039 15.5658 4.85486 15.0653 5.75576C14.6649 6.55656 14.2645 7.35736 13.8641 8.10811L13.714 8.40841C9.86012 15.9159 6.10637 23.5235 2.65292 31.031L2.60287 31.1311C2.25252 31.9319 1.85212 32.7828 1.45172 33.6837C1.20147 34.2342 0.951216 34.8348 0.700965 35.4855C0.0503146 37.3373 -0.149886 39.0891 0.100365 40.8909C0.650915 44.6446 3.15342 47.7978 6.60687 49.1992C7.90817 49.7498 9.25952 50 10.6609 50C11.0613 50 11.5618 49.9499 11.9622 49.8999C13.6139 49.6997 15.3156 49.1492 16.9672 48.1982C19.0193 47.0471 20.9712 45.3954 23.1734 42.993C25.3756 45.3954 27.3776 47.0471 29.3796 48.1982C31.0313 49.1492 32.733 49.6997 34.3846 49.8999C34.785 49.9499 35.2855 50 35.686 50C37.0874 50 38.4888 49.7498 39.74 49.1992C43.2435 47.7978 45.696 44.5946 46.2465 40.8909C46.6469 39.1391 46.4467 37.3874 45.7961 35.5355ZM23.2235 38.1381C20.5208 34.7347 18.769 31.5315 18.1684 28.8288C17.9182 27.6777 17.8681 26.6767 18.0183 25.7758C18.1184 24.975 18.4187 24.2743 18.8191 23.6737C19.77 22.3223 21.3716 21.4715 23.2235 21.4715C25.0753 21.4715 26.727 22.2723 27.6279 23.6737C28.0283 24.2743 28.3286 24.975 28.4287 25.7758C28.5788 26.6767 28.5288 27.7277 28.2785 28.8288C27.6779 31.4815 25.9262 34.6847 23.2235 38.1381ZM43.1935 40.4905C42.8431 43.0931 41.0914 45.3453 38.6389 46.3463C37.4377 46.8468 36.1364 46.997 34.8351 46.8468C33.5838 46.6967 32.3326 46.2963 31.0313 45.5455C29.2295 44.5445 27.4277 42.993 25.3256 40.6907C28.6289 36.6366 30.6309 32.9329 31.3816 29.6296C31.732 28.0781 31.782 26.6767 31.6319 25.3754C31.4317 24.1241 30.9812 22.973 30.2805 21.972C28.729 19.7197 26.1264 18.4184 23.2235 18.4184C20.3206 18.4184 17.718 19.7698 16.1664 21.972C15.4657 22.973 15.0153 24.1241 14.8151 25.3754C14.6149 26.6767 14.6649 28.1281 15.0653 29.6296C15.8161 32.9329 17.8681 36.6867 21.1214 40.7407C19.0693 43.043 17.2175 44.5946 15.4157 45.5956C14.1144 46.3463 12.8631 46.7467 11.6119 46.8969C10.2605 47.047 8.95922 46.8468 7.80807 46.3964C5.35562 45.3954 3.60387 43.1431 3.25352 40.5405C3.10337 39.2893 3.20347 38.038 3.70397 36.6366C3.85412 36.1361 4.10437 35.6356 4.35462 35.035C4.70497 34.2342 5.10537 33.3834 5.50577 32.5325L5.55582 32.4324C9.00927 24.975 12.713 17.3674 16.5668 9.95996L16.717 9.65966C17.1174 8.90891 17.5178 8.10811 17.9182 7.35736C18.3186 6.55656 18.769 5.80581 19.3196 5.15516C20.3706 3.95395 21.772 3.3033 23.3236 3.3033C24.8751 3.3033 26.2765 3.95395 27.3276 5.15516C27.8781 5.80581 28.3286 6.55656 28.729 7.35736C29.1294 8.10811 29.5298 8.90891 29.9302 9.65966L30.0803 9.95996C33.8841 17.4174 37.5879 25.025 41.0413 32.4825V32.5325C41.4417 33.3333 41.7921 34.2342 42.1925 35.035C42.4427 35.6356 42.693 36.1361 42.8431 36.6366C43.2435 37.9379 43.3937 39.1892 43.1935 40.4905Z" fill="#AFAFAF"/>
</g>
<defs>
<clipPath id="clip0_81_579">
<rect width="160.21" height="50" fill="white"/>
</clipPath>
</defs>
</svg>
