<svg width="185" height="40" viewBox="0 0 185 40" fill="none" xmlns="http://www.w3.org/2000/svg">
<g clip-path="url(#clip0_3157_473)">
<path d="M1.47656 30.9533C2.39193 28.5392 3.21597 26.3646 4.17324 23.8398C5.37654 25.5889 6.49604 27.035 7.39851 28.6047C7.8895 29.4588 6.49066 30.8254 5.42381 30.9329C5.19497 30.9554 4.96183 30.9522 4.72977 30.9522C3.76068 30.9543 2.79267 30.9522 1.47656 30.9522V30.9533Z" fill="#777777"/>
<path d="M29.6592 30.9673V0.0253906H34.6357V30.9673H29.6592Z" fill="#777777"/>
<path d="M8.22373 13.6259L12.9972 0.0253906H18.412L26.6503 30.9673H23.1597C22.1584 30.5569 21.5137 29.8457 21.2333 28.8863C19.7099 23.6681 15.0943 8.20889 15.0943 8.20889L11.3265 18.3606L8.22266 13.6259H8.22373Z" fill="#777777"/>
<path d="M0 13.9805H6.41186L10.5922 20.1549C15.283 14.8239 21.3542 13.3165 28.3839 14.4672C21.5745 16.5547 15.139 20.5492 9.27936 27.3983L0 13.9805Z" fill="#AFAFAF"/>
<path d="M39.8516 31.0412V9.54297H44.8281V31.0412H39.8516Z" fill="#777777"/>
<path d="M42.34 6.1921C44.0768 6.1921 45.4847 4.81688 45.4847 3.12046C45.4847 1.42405 44.0768 0.0488281 42.34 0.0488281C40.6032 0.0488281 39.1953 1.42405 39.1953 3.12046C39.1953 4.81688 40.6032 6.1921 42.34 6.1921Z" fill="#777777"/>
<path d="M50.1602 0H67.6821V4.32006H54.9143V12.1393H67.6821V16.3939L54.9143 16.3928V26.5542L69.2324 26.5639L66.0104 30.9839L50.1602 30.9914V0Z" fill="#777777"/>
<path d="M69.4278 9.48438H75.0457L79.6118 16.1197L84.2102 9.48438H90.0247L82.5599 20.3237L90.0247 31.0975L84.0791 30.9826L79.6613 24.6921L75.1768 30.9826H69.2979L76.8077 20.2915L69.4278 9.48438Z" fill="#777777"/>
<path d="M103.873 8.93467C101.288 8.93467 99.198 10.0907 97.465 11.9848V9.48475H92.3467V40.0002H97.465V28.5366C99.2087 30.5102 101.161 30.983 103.845 30.983C109.18 30.983 113.898 26.3556 113.898 20.1307C113.898 13.9058 109.209 8.93359 103.874 8.93359L103.873 8.93467ZM103.147 26.6479C99.8351 26.6479 97.1685 23.7804 97.1685 19.9825C97.1685 16.1845 99.8533 13.1967 103.165 13.1967C106.476 13.1967 109.387 16.2297 109.387 20.0276C109.387 23.8255 106.459 26.6479 103.147 26.6479Z" fill="#777777"/>
<path d="M120.458 19.3235C120.458 16.1648 123.3 12.7128 127.619 13.1544C128.148 12.2122 129.475 10.6049 130.821 9.87757C126.79 8.49807 123.748 8.97939 120.456 11.7019L120.458 9.48327H115.621L115.622 30.9664H120.458V19.3235Z" fill="#777777"/>
<path d="M142.619 25.3181C141.507 26.3033 140.044 26.9028 138.441 26.9028C135.636 26.9028 133.114 24.8507 132.294 22.3206H148.717C148.968 14.0597 144.318 9.61719 138.441 9.61719C132.563 9.61719 127.798 14.4293 127.798 20.3663C127.798 26.3033 132.563 31.1154 138.441 31.1154C142.55 31.1154 146.115 28.7625 147.889 25.3181H142.619ZM138.292 14.0597C141.096 14.0597 143.471 15.8894 144.292 18.4206H132.293C133.114 15.8905 135.488 14.0597 138.292 14.0597Z" fill="#777777"/>
<path d="M161.984 15.2605H166.32C166.32 8.27813 150.159 6.87392 150.158 16.2296C150.158 23.2946 162.304 20.7957 162.246 24.3432C162.194 27.518 155.344 27.1495 154.346 25.1146H149.912C151.587 33.6054 166.763 32.3215 166.763 24.6709C166.763 16.1941 154.642 20.3272 154.478 15.9825C154.346 12.4886 160.838 12.7486 161.984 15.2594V15.2605Z" fill="#777777"/>
<path d="M179.878 15.2605H184.214C184.214 8.27813 168.054 6.87392 168.053 16.2296C168.053 23.2946 180.198 20.7957 180.14 24.3432C180.089 27.518 173.239 27.1495 172.241 25.1146H167.807C169.482 33.6054 184.657 32.3215 184.657 24.6709C184.657 16.1941 172.536 20.3272 172.373 15.9825C172.241 12.4886 178.733 12.7486 179.878 15.2594V15.2605Z" fill="#777777"/>
</g>
<defs>
<clipPath id="clip0_3157_473">
<rect width="184.657" height="40" fill="white"/>
</clipPath>
</defs>
</svg>
