<svg width="120" height="40" viewBox="0 0 120 40" fill="none" xmlns="http://www.w3.org/2000/svg">
<mask id="mask0_81_624" style="mask-type:luminance" maskUnits="userSpaceOnUse" x="0" y="0" width="120" height="40">
<path d="M120 0H0V40H120V0Z" fill="white"/>
</mask>
<g mask="url(#mask0_81_624)">
<path d="M5.8729 21.2086C4.71545 21.2086 3.69417 20.9533 2.80907 20.4427C1.92396 19.915 1.24311 19.2001 0.749492 18.298C0.255875 17.3618 0.0175781 16.3065 0.0175781 15.098C0.0175781 13.6512 0.375024 12.3746 1.08992 11.2852C1.82183 10.1959 2.86013 9.36181 4.20481 8.76606C5.56651 8.18734 7.14949 7.88096 8.97077 7.88096C9.80481 7.88096 10.4857 7.93202 11.0133 8.05117V7.54053C11.0133 6.29798 10.792 5.37883 10.3325 4.78309C9.8729 4.17032 9.17502 3.84692 8.23885 3.84692C6.74098 3.84692 5.77077 4.62989 5.34524 6.21287C5.20907 6.67245 4.93673 6.85968 4.52822 6.7916L1.17502 6.22989C0.936726 6.17883 0.749492 6.0767 0.664386 5.90649C0.579279 5.73628 0.57928 5.53202 0.647365 5.24266C1.0729 3.57457 1.97502 2.29798 3.35375 1.37883C4.74949 0.442661 6.48566 -0.0169132 8.57928 -0.0169132C11.0644 -0.0169132 12.9537 0.646917 14.2474 1.9916C15.558 3.31926 16.2048 5.2767 16.2048 7.82989V20.1193C16.2048 20.3065 16.1367 20.4597 16.0006 20.5788C15.8814 20.698 15.7452 20.749 15.558 20.749H12.375C11.9835 20.749 11.7282 20.5448 11.6431 20.1193L11.1495 17.8214H10.9452C10.5027 18.8937 9.83885 19.7278 8.95375 20.3065C8.10268 20.9193 7.06439 21.2086 5.8729 21.2086ZM5.34524 14.5193C5.34524 15.3873 5.56651 16.0682 6.00907 16.5958C6.46864 17.1065 7.08141 17.3618 7.84737 17.3618C8.86864 17.3618 9.6346 16.9193 10.1793 16.0171C10.724 15.098 10.9963 13.8044 10.9963 12.1022V10.8086C10.5367 10.7235 10.1112 10.6895 9.70268 10.6895C8.358 10.6895 7.30268 11.0469 6.51971 11.7448C5.73673 12.4086 5.34524 13.3448 5.34524 14.5193ZM19.2516 1.07245C19.2516 0.885213 19.3027 0.749045 19.4218 0.629896C19.558 0.493726 19.7112 0.442661 19.8814 0.442661H23.1155C23.3027 0.442661 23.4389 0.493725 23.558 0.612873C23.6942 0.732022 23.7793 0.885213 23.7963 1.07245L24.2899 3.47245H24.4942C24.9367 2.34904 25.5665 1.49798 26.3835 0.902235C27.2176 0.30649 28.2048 0.000106487 29.3282 0.000106487C30.5367 0.000106487 31.575 0.323512 32.4431 0.953299C33.3282 1.58309 34.0091 2.48521 34.4857 3.65968H34.6899C35.4048 2.41713 36.2218 1.49798 37.124 0.902235C38.0261 0.30649 39.0303 0.000106487 40.1367 0.000106487C41.3452 0.000106487 42.4006 0.323513 43.2857 0.970321C44.1878 1.61713 44.8686 2.5533 45.3452 3.76181C45.8218 4.97032 46.0601 6.40011 46.0601 8.03415V20.1363C46.0601 20.3235 45.992 20.4767 45.8559 20.5958C45.7367 20.715 45.6006 20.7661 45.4133 20.7661H41.4814C41.2942 20.7661 41.141 20.715 41.0218 20.5958C40.9027 20.4597 40.8516 20.3065 40.8516 20.1363V8.42564C40.8516 7.23415 40.6303 6.33202 40.1708 5.68521C39.7112 5.05543 39.0474 4.73202 38.1793 4.73202C37.2261 4.73202 36.4942 5.10649 36.0006 5.85543C35.5069 6.60436 35.2686 7.69372 35.2686 9.10649V20.1193C35.2686 20.3065 35.2006 20.4597 35.0644 20.5788C34.9452 20.698 34.8091 20.749 34.6218 20.749H30.6899C30.5027 20.749 30.3495 20.698 30.2303 20.5788C30.1112 20.4427 30.0601 20.2895 30.0601 20.1193V8.40862C30.0601 7.21713 29.8389 6.315 29.3793 5.66819C28.9197 5.0384 28.2559 4.715 27.3878 4.715C26.4346 4.715 25.7027 5.08947 25.2091 5.8384C24.7155 6.58734 24.4772 7.6767 24.4772 9.08947V20.1022C24.4772 20.2895 24.4091 20.4427 24.2729 20.5618C24.1537 20.681 24.0176 20.732 23.8303 20.732H19.8984C19.7112 20.732 19.558 20.681 19.4389 20.5618C19.3197 20.4256 19.2686 20.2724 19.2686 20.1022V1.07245H19.2516ZM48.6133 15.098C48.6133 13.6512 48.9708 12.3746 49.6857 11.2852C50.4176 10.1959 51.4559 9.36181 52.8006 8.76606C54.1623 8.18734 55.7452 7.88096 57.5665 7.88096C58.4006 7.88096 59.0814 7.93202 59.6091 8.05117V7.54053C59.6091 6.29798 59.3878 5.37883 58.9282 4.78309C58.4686 4.17032 57.7708 3.84692 56.8346 3.84692C55.3367 3.84692 54.3665 4.62989 53.941 6.21287C53.8048 6.67245 53.5325 6.85968 53.124 6.7916L49.7878 6.21287C49.5495 6.16181 49.3623 6.05968 49.2772 5.88947C49.1921 5.71926 49.192 5.515 49.2601 5.22564C49.6857 3.55756 50.5878 2.28096 51.9665 1.36181C53.3623 0.425638 55.0984 -0.0339355 57.1921 -0.0339355C59.6772 -0.0339355 61.5665 0.629895 62.8601 1.97458C64.1708 3.30224 64.8176 5.25968 64.8176 7.81287V20.1022C64.8176 20.2895 64.7495 20.4427 64.6133 20.5618C64.4942 20.681 64.358 20.732 64.1708 20.732H60.9878C60.5963 20.732 60.358 20.5278 60.2559 20.1022L59.7623 17.8044H59.558C59.1155 18.8767 58.4516 19.7107 57.5665 20.2895C56.6984 20.8682 55.6601 21.1746 54.4687 21.1746C53.2772 21.1746 52.2899 20.9193 51.4048 20.4086C50.5197 19.881 49.8389 19.1661 49.3452 18.2639C48.8516 17.3788 48.6133 16.3065 48.6133 15.098ZM53.958 14.5193C53.958 15.3873 54.1793 16.0682 54.6218 16.5958C55.0814 17.1065 55.6942 17.3618 56.4601 17.3618C57.4814 17.3618 58.2474 16.9193 58.792 16.0171C59.3367 15.098 59.6091 13.8044 59.6091 12.1022V10.8086C59.1495 10.7235 58.724 10.6895 58.3155 10.6895C56.9708 10.6895 55.9155 11.0469 55.1325 11.7448C54.3495 12.4086 53.958 13.3448 53.958 14.5193ZM67.4559 17.1746C67.4559 16.8171 67.558 16.5107 67.7452 16.2384L76.1367 4.52777H68.2729C68.0857 4.52777 67.9325 4.4767 67.8133 4.35755C67.6942 4.22138 67.6431 4.06819 67.6431 3.89798V1.05543C67.6431 0.868194 67.6942 0.732022 67.8133 0.612873C67.9495 0.476703 68.1027 0.425638 68.2729 0.425638H81.1921C81.3793 0.425638 81.5155 0.493725 81.6346 0.612873C81.7708 0.732022 81.8389 0.868194 81.8389 1.05543V4.01713C81.8389 4.37458 81.7367 4.68096 81.5495 4.9533L73.941 15.3703C74.4006 15.2852 74.8601 15.2512 75.3367 15.2512C76.5112 15.2512 77.6006 15.3533 78.5708 15.5746C79.575 15.7618 80.5963 16.1022 81.6686 16.5448C82.0431 16.715 82.2303 16.9873 82.2303 17.3788V20.1873C82.2303 20.4427 82.1452 20.6299 81.9921 20.732C81.8218 20.8171 81.6176 20.8001 81.3793 20.715C80.1538 20.2554 79.0644 19.949 78.1112 19.7618C77.175 19.5746 76.1537 19.4724 75.0474 19.4724C73.941 19.4724 72.8686 19.5746 71.8133 19.7618C70.758 19.949 69.6006 20.2724 68.324 20.715C68.0857 20.8001 67.8814 20.8001 67.7112 20.715C67.541 20.6129 67.4729 20.4427 67.4729 20.2044V17.1746H67.4559ZM83.3197 10.6044C83.3197 8.61287 83.7112 6.82564 84.4772 5.20862C85.2431 3.57458 86.2984 2.315 87.6431 1.39585C89.0048 0.459683 90.5027 0.000106487 92.1538 0.000106487C93.8048 0.000106487 95.3367 0.459683 96.6644 1.39585C98.0261 2.315 99.0814 3.57458 99.8474 5.20862C100.63 6.82564 101.022 8.61287 101.022 10.6044C101.022 12.5959 100.63 14.4001 99.8474 16.0342C99.0814 17.6512 98.0091 18.9107 96.6644 19.8469C95.3197 20.7661 93.8218 21.2086 92.1538 21.2086C90.4857 21.2086 88.9878 20.749 87.6431 19.8469C86.2984 18.9107 85.2431 17.6512 84.4772 16.0342C83.7112 14.4001 83.3197 12.5959 83.3197 10.6044ZM88.7155 10.6044C88.7155 12.681 89.0048 14.2639 89.6006 15.3873C90.1963 16.4937 91.0474 17.0554 92.1538 17.0554C93.2601 17.0554 94.1282 16.4937 94.724 15.3873C95.3367 14.2639 95.6261 12.6639 95.6261 10.6044C95.6261 8.52777 95.3197 6.94479 94.724 5.8384C94.1112 4.715 93.2601 4.1533 92.1538 4.1533C91.0474 4.1533 90.1963 4.715 89.6006 5.8384C89.0218 6.94479 88.7155 8.52777 88.7155 10.6044ZM103.694 1.07245C103.694 0.885213 103.745 0.749045 103.864 0.629896C104.001 0.493726 104.154 0.442661 104.324 0.442661H107.558C107.745 0.442661 107.881 0.493725 108.001 0.612873C108.137 0.732022 108.205 0.885213 108.239 1.07245L108.732 3.47245H108.937C109.379 2.36607 110.026 1.515 110.877 0.902235C111.745 0.30649 112.767 0.000106487 113.924 0.000106487C115.167 0.000106487 116.239 0.323513 117.141 0.970321C118.06 1.61713 118.758 2.5533 119.252 3.76181C119.745 4.97032 119.984 6.40011 119.984 8.03415V20.1363C119.984 20.3235 119.915 20.4767 119.779 20.5958C119.66 20.715 119.524 20.7661 119.337 20.7661H115.405C115.218 20.7661 115.064 20.715 114.945 20.5958C114.826 20.4597 114.775 20.3065 114.775 20.1363V8.42564C114.775 7.23415 114.537 6.33202 114.043 5.68521C113.55 5.05543 112.852 4.73202 111.95 4.73202C110.945 4.73202 110.196 5.10649 109.669 5.85543C109.141 6.60436 108.886 7.69372 108.886 9.10649V20.1193C108.886 20.3065 108.818 20.4597 108.681 20.5788C108.562 20.698 108.426 20.749 108.239 20.749H104.307C104.12 20.749 103.967 20.698 103.847 20.5788C103.728 20.4427 103.677 20.2895 103.677 20.1193V1.07245H103.694Z" fill="#777777"/>
<path d="M13.6509 23.5747C13.3445 23.813 13.2764 24.2215 13.4467 24.8002C13.6169 25.3108 13.9913 25.9406 14.6041 26.6896C17.0381 29.6853 19.9488 32.1874 23.319 34.1619C26.6892 36.1534 30.2977 37.6172 34.1445 38.5534C38.0084 39.5066 41.9573 40.0002 45.9743 40.0002C51.1318 40.0002 56.0339 39.2513 60.6977 37.7534C65.3615 36.2725 69.2594 34.1789 72.3913 31.5066C73.4807 30.5534 74.0424 29.7874 74.0424 29.2087C74.0424 29.0045 73.9573 28.7832 73.7701 28.5789C73.5318 28.3406 73.2254 28.2555 72.885 28.3406C72.5445 28.4257 72.0509 28.63 71.4381 28.9534C68.4424 30.5194 64.7999 31.7619 60.4935 32.6981C56.2041 33.6513 51.7275 34.1108 47.0637 34.1108C41.2935 34.1108 35.7105 33.3279 30.3147 31.7619C24.936 30.196 20.153 27.7619 15.9998 24.4257C15.3871 23.9491 14.9105 23.6598 14.519 23.5236C14.1786 23.3704 13.8722 23.4045 13.6509 23.5747Z" fill="#AFAFAF"/>
<path d="M68.205 24.8002C67.8646 25.1236 67.7795 25.464 67.9327 25.8214C68.0518 26.0768 68.2731 26.2299 68.5965 26.264C68.9199 26.3151 69.3965 26.281 69.9923 26.1619C70.9795 25.9576 72.0008 25.8044 73.0561 25.7193C74.1114 25.6512 75.0476 25.6682 75.8306 25.7704C76.6135 25.8895 77.1072 26.0768 77.3114 26.3491C77.6008 26.7916 77.4986 27.7108 76.988 29.1406C76.4944 30.5533 75.8306 31.9321 74.9795 33.2768C74.6561 33.8214 74.4518 34.2299 74.3837 34.5533C74.3157 34.8597 74.4008 35.1151 74.622 35.3363C74.7752 35.4895 74.9284 35.5576 75.1157 35.5576C75.5923 35.5576 76.2731 35.1491 77.1752 34.3151C78.7923 32.9193 79.9327 31.2512 80.5795 29.3278C80.9369 28.3406 81.1582 27.2853 81.2433 26.1959C81.3284 25.1065 81.2093 24.3236 80.8689 23.847C80.5625 23.3874 79.8646 23.0129 78.8093 22.7236C77.754 22.4342 76.6986 22.281 75.6433 22.281C73.5667 22.281 71.5923 22.7746 69.7199 23.7448C69.0561 24.1193 68.5454 24.4768 68.205 24.8002Z" fill="#AFAFAF"/>
</g>
</svg>
