<svg width="189" height="32" viewBox="0 0 189 32" fill="none" xmlns="http://www.w3.org/2000/svg">
<g clip-path="url(#clip0_3157_489)">
<mask id="mask0_3157_489" style="mask-type:luminance" maskUnits="userSpaceOnUse" x="0" y="-1" width="189" height="33">
<path d="M0.397461 -0.230288H188.244V31.6426H0.397461V-0.230288Z" fill="white"/>
</mask>
<g mask="url(#mask0_3157_489)">
<mask id="mask1_3157_489" style="mask-type:luminance" maskUnits="userSpaceOnUse" x="0" y="-1" width="189" height="33">
<path d="M0.397461 31.6426H188.244V-0.230286H0.397461V31.6426Z" fill="white"/>
</mask>
<g mask="url(#mask1_3157_489)">
<path d="M74.0625 3.26001C74.0625 1.67789 75.3395 0.398227 76.9115 0.398227C78.4888 0.398227 79.7707 1.67789 79.7707 3.26001C79.7707 4.84008 78.4888 6.12109 76.9115 6.12109C75.3395 6.12109 74.0625 4.84008 74.0625 3.26001Z" fill="#777777"/>
<path d="M119.099 22.2951C119.099 20.7124 120.375 19.4313 121.947 19.4313C123.524 19.4313 124.805 20.7124 124.805 22.2951C124.805 23.8739 123.524 25.1562 121.947 25.1562C120.375 25.1562 119.099 23.8739 119.099 22.2951Z" fill="#AFAFAF"/>
<path d="M27.2165 21.0575C24.7582 21.0575 23.0498 19.1051 23.0498 16.3152C23.0498 13.526 24.7582 11.575 27.2165 11.575C29.6889 11.575 31.416 13.526 31.416 16.3152C31.416 19.1492 29.7249 21.0575 27.2165 21.0575ZM27.2165 7.4071C22.0156 7.4071 18.2412 11.1545 18.2412 16.3152C18.2412 21.4759 22.0156 25.2227 27.2165 25.2227C32.4368 25.2227 36.2269 21.4759 36.2269 16.3152C36.2269 11.1545 32.4368 7.4071 27.2165 7.4071Z" fill="#777777"/>
<path d="M68.5342 16.7615C68.332 16.381 68.1002 16.0589 67.8533 15.8033L67.696 15.6364L67.8615 15.4777C68.1003 15.2261 68.3443 14.9278 68.5797 14.5819L73.1693 7.75909H67.5976L64.1492 13.0961C63.954 13.3823 63.5599 13.5267 62.9699 13.5267H62.184V3.43658C62.184 1.41842 60.9267 1.14377 59.5685 1.14377H57.2432L57.247 24.9609H62.184V17.8167H62.6465C63.2092 17.8167 63.5925 17.8818 63.7683 18.1876L66.4916 23.3279C67.2524 24.7229 68.0106 24.9609 69.4368 24.9609H73.2202L70.4024 20.3L68.5342 16.7615Z" fill="#777777"/>
<path d="M92.5012 7.37006C89.99 7.37006 88.3877 8.48561 87.4899 9.42892L87.1901 9.73205L87.0843 9.31975C86.8205 8.3093 85.9314 7.75321 84.5935 7.75321H82.3809L82.3947 24.9551H87.298V17.0269C87.298 16.2517 87.3988 15.579 87.6038 14.9653C88.1496 13.1079 89.6721 11.953 91.575 11.953C93.1056 11.953 93.7036 12.7607 93.7036 14.848V22.3401C93.7036 24.1216 94.5276 24.9551 96.3104 24.9551H98.6439L98.636 14.0145C98.636 9.66763 96.5145 7.37006 92.5012 7.37006Z" fill="#777777"/>
<path d="M76.9764 7.75911H74.6523L74.6682 21.0596L74.6667 24.9576H77.1474C77.1786 24.9576 77.2037 24.9609 77.2349 24.9609L78.3904 24.9576H79.5405V24.9508H79.5485L79.5585 10.3707C79.5585 8.61155 78.7158 7.75911 76.9764 7.75911Z" fill="#777777"/>
<path d="M46.4763 21.0575C44.0182 21.0575 42.3065 19.1051 42.3065 16.3152C42.3065 13.526 44.0182 11.575 46.4763 11.575C48.9436 11.575 50.6755 13.526 50.6755 16.3152C50.6755 19.1492 48.9849 21.0575 46.4763 21.0575ZM46.4763 7.4071C41.2703 7.4071 37.4951 11.1545 37.4951 16.3152C37.4951 21.4759 41.2703 25.2227 46.4763 25.2227C51.6913 25.2227 55.4876 21.4759 55.4876 16.3152C55.4876 11.1545 51.6913 7.4071 46.4763 7.4071Z" fill="#777777"/>
</g>
</g>
<mask id="mask2_3157_489" style="mask-type:luminance" maskUnits="userSpaceOnUse" x="0" y="-1" width="189" height="33">
<path d="M0.397461 -0.230288H188.244V31.6426H0.397461V-0.230288Z" fill="white"/>
</mask>
<g mask="url(#mask2_3157_489)">
<mask id="mask3_3157_489" style="mask-type:luminance" maskUnits="userSpaceOnUse" x="0" y="0" width="189" height="32">
<path d="M0.397461 0.396672H188.204V31.6016H0.397461V0.396672Z" fill="white"/>
</mask>
<g mask="url(#mask3_3157_489)">
<mask id="mask4_3157_489" style="mask-type:luminance" maskUnits="userSpaceOnUse" x="0" y="-1" width="189" height="33">
<path d="M0.397461 31.6426H188.244V-0.230286H0.397461V31.6426Z" fill="white"/>
</mask>
<g mask="url(#mask4_3157_489)">
<path d="M151.58 21.0575C149.123 21.0575 147.41 19.1051 147.41 16.3152C147.41 13.526 149.123 11.575 151.58 11.575C154.047 11.575 155.78 13.526 155.78 16.3152C155.78 19.1492 154.089 21.0575 151.58 21.0575ZM151.58 7.4071C146.375 7.4071 142.6 11.1545 142.6 16.3152C142.6 21.4759 146.375 25.2227 151.58 25.2227C156.795 25.2227 160.591 21.4759 160.591 16.3152C160.591 11.1545 156.795 7.4071 151.58 7.4071Z" fill="#AFAFAF"/>
<path d="M108.975 20.3006C106.294 20.3006 105.34 17.9617 105.34 15.7699C105.34 14.8042 105.584 11.6569 108.717 11.6569C110.274 11.6569 112.349 12.1032 112.349 15.932C112.349 19.5431 110.513 20.3006 108.975 20.3006ZM114.895 7.71352C113.964 7.71352 113.248 8.08446 112.889 8.76194L112.754 9.02504L112.527 8.82771C111.735 8.14278 110.316 7.33037 108.012 7.33037C103.427 7.33037 100.34 10.774 100.34 15.8987C100.34 21.0174 103.534 24.5946 108.104 24.5946C109.665 24.5946 110.899 24.2304 111.876 23.4899L112.255 23.2058V23.6839C112.255 25.9814 110.769 27.2489 108.076 27.2489C106.767 27.2489 105.575 26.9301 104.778 26.6412C103.738 26.3273 103.128 26.587 102.707 27.6307L102.317 28.5936L101.767 30.0001L102.108 30.1819C103.832 31.0967 106.076 31.6426 108.104 31.6426C112.28 31.6426 117.156 29.5051 117.156 23.4899L117.174 7.71352H114.895Z" fill="#777777"/>
</g>
</g>
</g>
<mask id="mask5_3157_489" style="mask-type:luminance" maskUnits="userSpaceOnUse" x="0" y="-1" width="189" height="33">
<path d="M0.397461 -0.230288H188.244V31.6426H0.397461V-0.230288Z" fill="white"/>
</mask>
<g mask="url(#mask5_3157_489)">
<mask id="mask6_3157_489" style="mask-type:luminance" maskUnits="userSpaceOnUse" x="0" y="-1" width="189" height="33">
<path d="M0.397461 31.6426H188.244V-0.230286H0.397461V31.6426Z" fill="white"/>
</mask>
<g mask="url(#mask6_3157_489)">
<path d="M8.95488 20.8584L4.96341 20.8545V16.0823C4.96341 15.0624 5.3588 14.5321 6.23283 14.41H8.95488C10.8977 14.41 12.1531 15.6355 12.1545 17.6177C12.1531 19.6521 10.929 20.8571 8.95488 20.8584ZM4.96341 7.98517V6.72924C4.96341 5.62998 5.42854 5.10713 6.44927 5.03998H8.49166C10.2433 5.03998 11.2924 6.0884 11.2924 7.84209C11.2924 9.17939 10.5743 10.7398 8.55608 10.7398H4.96341V7.98517ZM14.0526 12.7478L13.3309 12.3423L13.9609 11.8038C14.6934 11.1738 15.9215 9.75786 15.9215 7.31111C15.9215 3.56773 13.0178 1.15149 8.52357 1.15149H3.3948L2.81086 1.15014C1.47844 1.19898 0.412369 2.28264 0.397461 3.62334V24.8717H2.75117C2.75713 24.873 2.75913 24.8717 2.76111 24.873L8.62487 24.8717C13.6208 24.8717 16.8454 22.1523 16.8454 17.9404C16.8454 15.6726 15.8042 13.7338 14.0526 12.7478Z" fill="#777777"/>
<path d="M182.494 7.42255C180.459 7.42255 178.492 8.37533 177.23 9.97304L176.874 10.4233L176.596 9.91947C175.688 8.26344 174.125 7.42255 171.951 7.42255C169.672 7.42255 168.143 8.69406 167.433 9.45019L166.969 9.95338L166.79 9.29151C166.531 8.33872 165.682 7.81382 164.397 7.81382H162.336L162.316 24.9492H166.999V17.3852C166.999 16.7226 167.081 16.0669 167.247 15.3813C167.695 13.5537 168.923 11.5877 170.988 11.7844C172.262 11.9064 172.883 12.8904 172.883 14.7913V24.9492H177.599V17.3852C177.599 16.5572 177.676 15.9373 177.863 15.3155C178.243 13.5706 179.525 11.7817 181.517 11.7817C182.959 11.7817 183.492 12.5982 183.492 14.7913V22.4441C183.492 24.1755 184.265 24.9492 185.995 24.9492H188.199L188.203 14.0101C188.203 9.64008 186.28 7.42255 182.494 7.42255Z" fill="#AFAFAF"/>
<path d="M139.888 19.0005C139.874 19.0174 137.859 21.1421 135.206 21.1421C132.789 21.1421 130.347 19.659 130.347 16.3483C130.347 13.4899 132.24 11.4921 134.95 11.4921C135.831 11.4921 136.832 11.8074 136.988 12.3377L137.011 12.4273C137.372 13.6296 138.465 13.6941 138.68 13.6941L141.245 13.6968V11.4542C141.245 8.49615 137.482 7.42332 134.95 7.42332C129.536 7.42332 125.607 11.1931 125.607 16.3843C125.607 21.5735 129.493 25.3379 134.851 25.3379C139.5 25.3379 142.028 22.2822 142.052 22.2516L142.187 22.0862L140.155 18.7158L139.888 19.0005Z" fill="#AFAFAF"/>
</g>
</g>
</g>
<defs>
<clipPath id="clip0_3157_489">
<rect width="188.601" height="32" fill="white"/>
</clipPath>
</defs>
</svg>
