<svg width="167" height="40" viewBox="0 0 167 40" fill="none" xmlns="http://www.w3.org/2000/svg">
<path d="M64.5235 20.5493C63.4046 19.4081 61.7838 18.5628 59.6605 18.0151L57.6397 17.4674C56.3154 17.1251 55.3281 16.8114 54.6774 16.5254C54.0267 16.2403 53.5929 15.9433 53.376 15.6349C53.1586 15.3264 53.0509 14.9446 53.0509 14.4874C53.0509 13.7342 53.4275 13.0949 54.1812 12.5696C54.9344 12.0447 56.0304 11.7821 57.4691 11.7821C60.319 11.7821 63.9112 13.4554 64.9349 14.8442V9.48765C64.1354 8.87126 63.0514 8.34018 61.6813 7.89493C60.3112 7.44968 58.8387 7.22705 57.2637 7.22705C55.2995 7.22705 53.6106 7.56411 52.1952 8.23719C50.7794 8.9108 49.7006 9.81275 48.9588 10.9425C48.2166 12.0728 47.8457 13.2884 47.8457 14.5899C47.8457 16.5306 48.4106 18.0489 49.5409 19.1449C50.6712 20.2408 52.3201 21.0746 54.4897 21.6447L56.5105 22.1925C57.789 22.5347 58.7477 22.8661 59.3874 23.1854C60.0262 23.5053 60.4491 23.8362 60.6545 24.1784C60.86 24.5207 60.963 24.9436 60.963 25.4455C60.963 26.2902 60.6145 26.9581 59.9185 27.4492C59.222 27.9402 58.2114 28.1857 56.8876 28.1857C53.8998 28.1857 49.3729 26.2034 47.8462 23.7207V29.5209C48.6452 30.3428 49.9008 31.0793 51.6132 31.73C53.3255 32.3808 55.1633 32.7059 57.1269 32.7059C58.976 32.7059 60.5859 32.3745 61.9555 31.7129C63.3255 31.0507 64.3752 30.1436 65.106 28.9904C65.8363 27.8377 66.202 26.5534 66.202 25.1376C66.2015 23.2208 65.6418 21.6915 64.5235 20.5493Z" fill="#AFAFAF"/>
<path d="M86.177 18.6392C85.4977 17.2307 84.5557 16.1212 83.3521 15.3113C82.1479 14.5014 80.795 14.0962 79.2933 14.0962C76.4798 14.0962 74.3102 15.458 72.7846 18.181V14.3641H67.7422V37.9001H72.7846V28.6403C74.3102 31.3165 76.4912 32.6548 79.3287 32.6548C80.8309 32.6548 82.1833 32.2554 83.3874 31.4574C84.5911 30.6595 85.5268 29.5557 86.1947 28.1472C86.8621 26.7386 87.196 25.1537 87.196 23.3929C87.196 21.6322 86.8564 20.0478 86.177 18.6392ZM80.9734 27.0205C80.2103 27.936 79.209 28.3937 77.9695 28.3937C76.7534 28.3937 75.6746 27.9183 74.7331 26.9675C73.7911 26.0166 73.106 24.814 72.6769 23.3581C73.106 21.9027 73.7911 20.6996 74.7331 19.7487C75.6746 18.7979 76.7534 18.3225 77.9695 18.3225C79.209 18.3225 80.2103 18.7922 80.9734 19.731C81.7359 20.6704 82.1177 21.8912 82.1177 23.3935C82.1177 24.8957 81.7365 26.1045 80.9734 27.0205Z" fill="#AFAFAF"/>
<path d="M106.916 18.6091C106.082 17.1776 104.92 16.0505 103.43 15.2286C101.94 14.4073 100.241 13.9958 98.3339 13.9958C96.4264 13.9958 94.7276 14.4068 93.2379 15.2286C91.7476 16.0505 90.5913 17.1776 89.769 18.6091C88.9466 20.0411 88.5352 21.6375 88.5352 23.3982C88.5352 25.136 88.9466 26.7204 89.769 28.1524C90.5913 29.5844 91.7476 30.7116 93.2379 31.5329C94.7276 32.3542 96.4264 32.7657 98.3339 32.7657C100.241 32.7657 101.94 32.3548 103.43 31.5329C104.92 30.7116 106.082 29.5844 106.916 28.1524C107.751 26.7209 108.168 25.136 108.168 23.3982C108.168 21.6375 107.751 20.0416 106.916 18.6091ZM101.803 27.0606C100.921 28.0234 99.7643 28.5046 98.3339 28.5046C96.9268 28.5046 95.7825 28.0291 94.9008 27.0783C94.0186 26.1274 93.5776 24.9009 93.5776 23.3982C93.5776 21.896 94.0186 20.6637 94.9008 19.7009C95.7825 18.7386 96.9268 18.257 98.3339 18.257C99.7404 18.257 100.891 18.7386 101.785 19.7009C102.679 20.6637 103.126 21.8965 103.126 23.3982C103.126 24.8775 102.684 26.0983 101.803 27.0606Z" fill="#AFAFAF"/>
<path d="M117.203 27.8018C116.786 27.3794 116.577 26.6871 116.577 25.7243V18.505H121.461V14.5258H116.577V9.66602H116.542L108.174 16.1456V18.505H111.5V26.4634C111.5 28.4827 112.036 30.0026 113.109 31.0236C114.182 32.0447 115.624 32.5555 117.436 32.5555C118.175 32.5555 119.352 32.4306 119.948 32.2429C120.544 32.0546 121.199 31.6925 121.509 31.4106V27.7175C119.998 28.9258 117.789 28.3958 117.203 27.8018Z" fill="#AFAFAF"/>
<path d="M123.448 11.0727C124.008 11.6006 124.729 11.8649 125.611 11.8649C126.47 11.8649 127.179 11.6006 127.739 11.0727C128.299 10.5442 128.58 9.8815 128.58 9.08306C128.58 8.28514 128.299 7.62143 127.739 7.09347C127.179 6.56551 126.47 6.30127 125.611 6.30127C124.729 6.30127 124.008 6.56551 123.448 7.09347C122.888 7.62143 122.607 8.28514 122.607 9.08306C122.608 9.8815 122.888 10.5442 123.448 11.0727ZM123.072 32.2191H128.151V14.526H123.072V32.2191Z" fill="#AFAFAF"/>
<path d="M138.157 13.1839C138.262 12.3813 138.443 11.9012 138.819 11.4216C139.236 10.8905 139.807 10.5191 140.693 10.5191C141.194 10.5191 142.013 10.6627 142.471 10.8125C143.053 11.0045 144.162 11.5074 144.448 11.6968L142.623 7.28586C142.241 7.07259 141.729 6.87181 141.086 6.68195C140.443 6.49262 139.764 6.39795 139.05 6.39795C137.215 6.39795 135.768 6.99613 134.709 8.19197C133.649 9.38833 133.119 10.9337 133.119 12.8286V14.5342H129.945V18.5488H133.119V32.2273H138.157V18.5483H142.873V14.5337H138.157V13.1839H138.157Z" fill="#AFAFAF"/>
<path d="M155.345 14.5337L150.665 25.7607L145.949 14.5337H140.34L147.95 30.877L144.656 37.8674H150.118L160.455 14.5337H155.345Z" fill="#AFAFAF"/>
<path d="M162.709 18.5951C162.392 18.4167 162.144 18.1691 161.965 17.8528C161.786 17.5366 161.697 17.1824 161.697 16.7896C161.697 16.3917 161.787 16.0349 161.965 15.7186C162.144 15.4024 162.392 15.1553 162.709 14.9764C163.026 14.798 163.381 14.7085 163.774 14.7085C164.166 14.7085 164.521 14.798 164.838 14.9764C165.156 15.1548 165.403 15.4024 165.582 15.7186C165.761 16.0349 165.85 16.3917 165.85 16.7896C165.85 17.1824 165.761 17.5366 165.582 17.8528C165.403 18.1691 165.156 18.4162 164.838 18.5951C164.521 18.7735 164.166 18.863 163.774 18.863C163.381 18.8625 163.026 18.7735 162.709 18.5951ZM164.642 18.2658C164.899 18.1181 165.099 17.9153 165.242 17.6578C165.386 17.4003 165.457 17.1085 165.457 16.7818C165.457 16.4557 165.386 16.1634 165.242 15.9059C165.099 15.6484 164.899 15.4471 164.642 15.3015C164.385 15.1564 164.096 15.0835 163.774 15.0835C163.447 15.0835 163.156 15.1564 162.901 15.3015C162.647 15.4466 162.448 15.6484 162.305 15.9059C162.161 16.1634 162.089 16.4557 162.089 16.7818C162.089 17.1085 162.161 17.4003 162.305 17.6578C162.448 17.9153 162.647 18.1181 162.901 18.2658C163.156 18.4136 163.446 18.4874 163.774 18.4874C164.096 18.488 164.385 18.4141 164.642 18.2658ZM162.988 15.7722H163.902C164.159 15.7722 164.354 15.8232 164.487 15.9251C164.62 16.0271 164.687 16.1701 164.687 16.3537C164.687 16.4864 164.644 16.5998 164.559 16.6939C164.473 16.7886 164.347 16.8536 164.181 16.889L164.785 17.6843H164.218L163.66 16.942H163.456V17.6843H162.988V15.7722H162.988ZM164.204 16.361C164.204 16.2081 164.083 16.1316 163.841 16.1316H163.456V16.5753H163.834C164.081 16.5753 164.204 16.5041 164.204 16.361Z" fill="#AFAFAF"/>
<path d="M21.3308 0.0946179C10.3648 -0.342313 1.12166 8.2205 0.68785 19.2208C0.251959 30.221 8.7898 39.4912 19.7547 39.9282C30.7211 40.3656 39.9617 31.8028 40.3976 20.802C40.8314 9.80177 32.2951 0.530509 21.3308 0.0946179ZM29.7183 29.2941C29.4712 29.7315 28.9901 29.95 28.5214 29.8845C28.3778 29.8642 28.2343 29.8169 28.1001 29.7404C25.4738 28.2408 22.6114 27.2645 19.5929 26.8379C16.5745 26.4114 13.5539 26.5591 10.6171 27.2754C9.9794 27.4304 9.33857 27.0387 9.18408 26.3989C9.02959 25.7596 9.42023 25.1162 10.0574 24.9612C13.2866 24.1742 16.6067 24.0119 19.9232 24.4801C23.2397 24.9482 26.3851 26.0213 29.2751 27.6702C29.8436 27.9963 30.0434 28.7214 29.7198 29.2936H29.7183V29.2941ZM32.33 24.0618C31.9248 24.8124 30.988 25.0928 30.2395 24.6866C27.1664 23.0195 23.839 21.9245 20.3503 21.4325C16.8611 20.9404 13.363 21.0736 9.95079 21.8262C9.76561 21.8663 9.582 21.8736 9.40411 21.8481C8.7846 21.7607 8.25456 21.2977 8.11256 20.6475C7.92894 19.8132 8.45586 18.9877 9.28759 18.8036C13.0598 17.9708 16.9266 17.8236 20.7804 18.3661C24.6327 18.9092 28.3102 20.1191 31.7068 21.9625C32.4569 22.3687 32.7347 23.3071 32.33 24.0592V24.0618ZM35.2247 18.1643C34.8434 18.9003 34.0496 19.2811 33.2761 19.1719C33.067 19.1427 32.8621 19.0772 32.6639 18.9752C29.0858 17.1079 25.2319 15.8746 21.209 15.3076C17.1862 14.7412 13.1414 14.8613 9.18928 15.6665C8.16145 15.8762 7.16067 15.2093 6.95157 14.1799C6.74247 13.149 7.40723 12.1451 8.43349 11.9355C12.8106 11.0444 17.2855 10.9118 21.7375 11.5381C26.189 12.1648 30.4538 13.5313 34.4163 15.5989C35.3464 16.0837 35.7074 17.2332 35.2247 18.1659V18.1643Z" fill="#AFAFAF"/>
</svg>
