<svg width="116" height="40" viewBox="0 0 116 40" fill="none" xmlns="http://www.w3.org/2000/svg">
<g clip-path="url(#clip0_81_632)">
<path d="M6.62919 28.5675C7.11611 29.8597 7.79024 30.9645 8.65171 31.8821C9.51317 32.7997 10.5338 33.502 11.7135 33.9889C12.8933 34.4758 14.176 34.7192 15.5618 34.7192C16.9102 34.7192 18.1742 34.4664 19.354 33.9607C20.5338 33.455 21.5638 32.7434 22.4439 31.8259C23.324 30.9082 24.0076 29.8128 24.4945 28.5394C24.9814 27.266 25.2248 25.8429 25.2248 24.2697V0H31.1237V39.3259H25.281V35.6741C23.9701 37.0598 22.4251 38.1273 20.6461 38.8765C18.867 39.6255 16.9476 40 14.8877 40C12.7902 40 10.8333 39.6348 9.0168 38.9045C7.20039 38.1741 5.62725 37.1349 4.29776 35.7865C2.96827 34.4381 1.91947 32.8185 1.15173 30.927C0.383868 29.0356 0 26.929 0 24.6067V0H5.89887V24.2697C5.89887 25.8429 6.14227 27.2753 6.62919 28.5675Z" fill="#AFAFAF"/>
<path d="M41.2913 0V14.3258C42.6021 13.015 44.1191 11.9757 45.8419 11.2079C47.5647 10.44 49.4374 10.0562 51.4598 10.0562C53.5573 10.0562 55.5234 10.4493 57.3587 11.2359C59.1939 12.0224 60.7855 13.0898 62.1339 14.4382C63.4823 15.7866 64.5498 17.3782 65.3363 19.2134C66.1228 21.0487 66.516 22.9963 66.516 25.0562C66.516 27.116 66.1228 29.0543 65.3363 30.8707C64.5498 32.6872 63.4823 34.2697 62.1339 35.6178C60.7855 36.9662 59.1939 38.0337 57.3587 38.8202C55.5234 39.6067 53.5572 39.9999 51.4598 39.9999C49.4373 39.9999 47.5554 39.616 45.8138 38.8481C44.0722 38.0804 42.546 37.0411 41.2351 35.7302V39.3257H35.6172V0H41.2913ZM41.9373 28.9326C42.4429 30.1312 43.1453 31.1799 44.0441 32.0787C44.943 32.9776 45.9917 33.6893 47.1902 34.2136C48.3888 34.738 49.6808 35.0001 51.0666 35.0001C52.415 35.0001 53.6883 34.738 54.8868 34.2136C56.0853 33.6893 57.1245 32.9777 58.0049 32.0787C58.885 31.18 59.5872 30.1312 60.1115 28.9326C60.6359 27.7341 60.898 26.442 60.898 25.0562C60.898 23.6704 60.6359 22.3689 60.1115 21.1517C59.5872 19.9344 58.885 18.8764 58.0049 17.9775C57.1246 17.0788 56.0854 16.3764 54.8868 15.8709C53.6882 15.3653 52.4149 15.1123 51.0666 15.1123C49.7184 15.1123 48.445 15.3652 47.2465 15.8709C46.048 16.3766 44.9993 17.0788 44.1003 17.9775C43.2016 18.8764 42.4899 19.9344 41.9656 21.1517C41.4412 22.3689 41.1791 23.6704 41.1791 25.0562C41.1789 26.442 41.4318 27.7341 41.9373 28.9326Z" fill="#AFAFAF"/>
<path d="M69.7171 19.2697C70.4661 17.4719 71.4963 15.8896 72.807 14.5226C74.1177 13.1555 75.6722 12.0788 77.47 11.2922C79.2677 10.5057 81.2153 10.1125 83.3126 10.1125C85.3726 10.1125 87.2827 10.4871 89.0431 11.2361C90.8033 11.9852 92.3201 13.0245 93.5935 14.3541C94.867 15.6836 95.8596 17.2568 96.571 19.0732C97.2827 20.8897 97.6385 22.8654 97.6385 25.0003V26.8542H74.3239C74.5113 28.0153 74.8858 29.092 75.4476 30.0844C76.0094 31.0769 76.7115 31.9383 77.5542 32.6687C78.3969 33.3991 79.352 33.9703 80.4195 34.3822C81.4869 34.7941 82.6197 35.0002 83.8183 35.0002C87.2267 35.0002 89.9795 33.5956 92.0768 30.7866L96.1779 33.8203C94.7547 35.7304 92.9945 37.2286 90.8972 38.3147C88.7997 39.4008 86.4401 39.9439 83.8185 39.9439C81.6836 39.9439 79.6893 39.5692 77.8353 38.8203C75.9814 38.0713 74.3709 37.0225 73.0039 35.6741C71.6368 34.3257 70.5601 32.7434 69.7736 30.927C68.9871 29.1106 68.5938 27.1348 68.5938 25C68.5935 22.9776 68.9682 21.0675 69.7171 19.2697ZM77.6104 17.0505C76.0186 18.3801 74.9606 20.1498 74.4363 22.3595H91.9083C91.4214 20.1498 90.382 18.3801 88.7902 17.0505C87.1984 15.721 85.3352 15.0562 83.2004 15.0562C81.0655 15.0562 79.2022 15.721 77.6104 17.0505Z" fill="#AFAFAF"/>
<path d="M108.257 17.6967C107.059 19.0076 106.459 20.7866 106.459 23.0338V39.3261H100.785V10.6743H106.403V14.2137C107.115 13.0526 108.042 12.135 109.184 11.4608C110.326 10.7866 111.684 10.4495 113.257 10.4495H115.223V15.7304H112.864C110.991 15.7305 109.456 16.3859 108.257 17.6967Z" fill="#AFAFAF"/>
</g>
<defs>
<clipPath id="clip0_81_632">
<rect width="115.223" height="40" fill="white"/>
</clipPath>
</defs>
</svg>
