<svg width="87" height="40" viewBox="0 0 87 40" fill="none" xmlns="http://www.w3.org/2000/svg">
<g clip-path="url(#clip0_81_597)">
<path d="M63.6865 14.1987H72.0585L62.1438 27.1647H53.7692L63.6865 14.1987ZM63.0572 12.932L52.5178 26.72C52.2658 27.0487 52.2245 27.464 52.4092 27.8313C52.5872 28.1947 52.9645 28.43 53.3638 28.43H62.7725L73.3972 14.5373C73.6292 14.226 73.6632 13.822 73.4978 13.4807C73.3278 13.1407 72.9818 12.932 72.5918 12.932H63.0572ZM32.9578 6.192C33.0118 6.10133 33.1125 6.04067 33.2252 6.04067H38.7158L39.5045 1.50867C39.5312 1.368 39.6545 1.26867 39.8012 1.26867L44.9398 1.26467C45.0338 1.26467 45.1105 1.29333 45.1645 1.354C45.2205 1.424 45.2485 1.51733 45.2352 1.6L44.7238 4.53267L68.8818 4.55C69.0125 4.55 69.1058 4.62933 69.1518 4.70467C69.1798 4.76067 69.2185 4.87467 69.1392 4.98267L66.9578 7.83067L84.8618 7.826C84.9658 7.826 85.0405 7.89133 85.0698 7.95C85.0985 7.992 85.1218 8.08 85.0672 8.16067L70.1872 27.6373C70.0178 27.8493 70.0252 28.388 70.1432 28.6187C70.2658 28.8507 70.6905 29.1813 70.9565 29.1813L81.4232 29.192C81.5445 29.192 81.6158 29.2547 81.6485 29.292C81.7052 29.3573 81.7298 29.4447 81.7165 29.5293L80.9205 34.0807C80.8952 34.2187 80.7705 34.3187 80.6232 34.3187H40.8025L40.1478 34.3147C40.1965 34.54 40.2158 34.774 40.2158 35.0127C40.2158 37.06 38.5565 38.72 36.5058 38.72C34.4565 38.72 32.7958 37.06 32.7958 35.0127C32.7958 32.9647 34.4565 31.3067 36.5058 31.3067C37.9052 31.3067 39.1252 32.082 39.7598 33.2267L55.9892 11.9553C56.2498 11.406 56.1198 11.2093 55.9792 10.886C55.8745 10.642 55.4832 10.3913 55.0565 10.3953H43.6965L40.7938 26.966C40.7658 27.096 40.6412 27.1873 40.5018 27.1873H35.3598C35.2405 27.1873 35.1672 27.1233 35.1325 27.0853C35.1012 27.048 35.0445 26.966 35.0665 26.848L38.2192 8.86133L25.3945 33.9953C25.2792 34.1973 25.0658 34.3273 24.8252 34.3273L20.4572 34.3487C20.3012 34.3487 20.1732 34.2373 20.1592 34.104L18.9545 15.8453L9.47917 34C9.36584 34.2 9.14717 34.3293 8.91251 34.3293L4.48184 34.3267C4.32984 34.3267 4.20051 34.2147 4.18784 34.0707L1.29784 6.354C1.29117 6.26733 1.32117 6.182 1.37317 6.12333C1.42717 6.06933 1.50451 6.04 1.59784 6.04H7.55317C7.71584 6.04 7.85251 6.172 7.85251 6.346L8.74584 24.428L17.5045 6.196C17.5518 6.10133 17.6578 6.04 17.7692 6.04L23.1985 6.01667C23.3485 6.01667 23.4825 6.13 23.4918 6.26333L24.3745 24.4853L32.9578 6.192ZM39.5485 0C38.9352 0 38.4138 0.438 38.3038 1.046L37.6498 4.77267H33.0318C32.5605 4.77267 32.1392 5.02667 31.8992 5.46667L25.3985 19.3287L24.7532 5.92733C24.6978 5.27867 24.1485 4.77267 23.4918 4.77267H17.5812C17.1092 4.77267 16.6738 5.03533 16.4485 5.46933L9.76451 19.384L9.10451 6.03533C9.10451 5.338 8.53651 4.77333 7.84051 4.77333H1.26584C0.906507 4.77333 0.573174 4.91333 0.331841 5.16733C0.0985074 5.42333 -0.0214926 5.78 0.00317407 6.15267L2.95051 34.46C3.02117 35.1007 3.56251 35.584 4.20917 35.584L9.09651 35.586C9.69651 35.586 10.2425 35.2587 10.5252 34.7267L17.9892 20.4307L18.9092 34.46C18.9832 35.1007 19.5225 35.584 20.1652 35.584L25.0165 35.586C25.6138 35.586 26.1652 35.2547 26.4472 34.72L35.5178 16.94L33.7612 26.9673C33.6945 27.3367 33.7978 27.7127 34.0358 28.004C34.2752 28.2887 34.6298 28.454 35.0038 28.454H40.7532C41.3505 28.454 41.8585 28.038 41.9918 27.4393L44.7578 11.6587H54.6345L39.7092 31.1887C38.8158 30.442 37.6858 30.0347 36.5165 30.0347C33.7718 30.0347 31.5312 32.2707 31.5312 35.0167C31.5312 37.7647 33.7718 40 36.5165 40C39.0385 40 41.1852 38.074 41.4752 35.5853L80.8785 35.5833C81.4992 35.5833 82.0205 35.1427 82.1218 34.536L83.0238 29.4073C83.0865 29.0387 82.9818 28.6607 82.7438 28.3773C82.5065 28.094 82.1538 27.9313 81.7772 27.9313L71.5585 27.922L86.4572 8.43067C86.7105 8.05267 86.7332 7.59667 86.5238 7.20467C86.3192 6.808 85.9092 6.55933 85.4612 6.55933H69.5178L70.5285 5.24C70.7938 4.844 70.8198 4.362 70.5965 3.94067C70.3738 3.52733 69.9465 3.26467 69.4825 3.26467H46.2278L46.5465 1.47667C46.6065 1.11067 46.4958 0.722667 46.2525 0.436C46.0158 0.154667 45.6758 0 45.2952 0H39.5485Z" fill="#AFAFAF"/>
</g>
<defs>
<clipPath id="clip0_81_597">
<rect width="86.6667" height="40" fill="white"/>
</clipPath>
</defs>
</svg>
