<svg width="180" height="40" viewBox="0 0 180 40" fill="none" xmlns="http://www.w3.org/2000/svg">
<g clip-path="url(#clip0_81_583)">
<path d="M55.9453 6.24671C55.2869 3.7867 53.3535 1.85349 50.8935 1.19497C46.4393 0.000244498 28.5699 0.000244141 28.5699 0.000244141C28.5699 0.000244141 10.7008 0.000244498 6.24645 1.19497C3.78645 1.85349 1.85324 3.7867 1.19473 6.24671C3.57627e-07 10.7011 0 20.0002 0 20.0002C0 20.0002 3.57627e-07 29.2994 1.19473 33.7538C1.85324 36.2138 3.78645 38.147 6.24645 38.8054C10.7008 40.0002 28.5699 40.0002 28.5699 40.0002C28.5699 40.0002 46.4393 40.0002 50.8935 38.8054C53.3535 38.147 55.2869 36.2138 55.9453 33.7538C57.1401 29.2994 57.1401 20.0002 57.1401 20.0002C57.1401 20.0002 57.1353 10.7011 55.9453 6.24671Z" fill="#AFAFAF"/>
<path d="M22.8516 28.5708L37.6963 20.0008L22.8516 11.4307V28.5708Z" fill="white"/>
<path d="M69.2049 26.0071L62.7891 2.83691H68.3864L70.6348 13.3402C71.2086 15.9272 71.6272 18.1332 71.9 19.9582H72.0646C72.2528 18.6506 72.6762 16.4587 73.33 13.3778L75.6582 2.83691H81.2556L74.7598 26.0071V37.1219H69.2003V26.0071H69.2049Z" fill="#777777"/>
<path d="M82.9403 36.3873C81.8115 35.6253 81.0071 34.44 80.5273 32.8314C80.0523 31.2228 79.8125 29.0874 79.8125 26.4156V22.7796C79.8125 20.0844 80.0853 17.9161 80.6309 16.2839C81.1765 14.6518 82.0279 13.457 83.1849 12.7091C84.3421 11.9613 85.8613 11.585 87.7429 11.585C89.5961 11.585 91.0777 11.966 92.1971 12.728C93.3119 13.4899 94.1303 14.6847 94.6477 16.3027C95.1651 17.9255 95.4239 20.0844 95.4239 22.7796V26.4156C95.4239 29.0874 95.1699 31.2322 94.6667 32.8502C94.1633 34.473 93.3449 35.6583 92.2159 36.4061C91.0871 37.1541 89.5537 37.5303 87.6205 37.5303C85.6261 37.5349 84.0693 37.1493 82.9403 36.3873ZM89.2715 32.4646C89.5819 31.6462 89.7419 30.315 89.7419 28.4618V20.6584C89.7419 18.8615 89.5867 17.5445 89.2715 16.7166C88.9563 15.8841 88.4061 15.4702 87.6157 15.4702C86.8539 15.4702 86.3129 15.8841 86.0025 16.7166C85.6873 17.5492 85.5321 18.8615 85.5321 20.6584V28.4618C85.5321 30.315 85.6825 31.6508 85.9837 32.4646C86.2847 33.283 86.8255 33.6922 87.6157 33.6922C88.4061 33.6922 88.9563 33.283 89.2715 32.4646Z" fill="#777777"/>
<path d="M113.63 37.1267H109.218L108.729 34.0599H108.606C107.407 36.3741 105.61 37.5311 103.211 37.5311C101.551 37.5311 100.323 36.9855 99.533 35.8991C98.7428 34.8077 98.3477 33.1051 98.3477 30.791V12.075H103.987V30.4616C103.987 31.5812 104.11 32.3759 104.354 32.8511C104.599 33.3261 105.008 33.5659 105.582 33.5659C106.071 33.5659 106.541 33.4155 106.993 33.1145C107.445 32.8134 107.774 32.4324 107.995 31.9715V12.0703H113.63V37.1267Z" fill="#777777"/>
<path d="M128.95 7.37515H123.353V37.1257H117.836V7.37515H112.238V2.84082H128.95V7.37515Z" fill="#777777"/>
<path d="M142.554 37.1267H138.142L137.652 34.0599H137.53C136.331 36.3741 134.534 37.5311 132.135 37.5311C130.475 37.5311 129.247 36.9855 128.457 35.8991C127.667 34.8077 127.271 33.1051 127.271 30.791V12.075H132.911V30.4616C132.911 31.5812 133.033 32.3759 133.278 32.8511C133.523 33.3261 133.932 33.5659 134.506 33.5659C134.995 33.5659 135.465 33.4155 135.917 33.1145C136.368 32.8134 136.698 32.4324 136.919 31.9715V12.0703H142.554V37.1267Z" fill="#777777"/>
<path d="M161.218 16.0774C160.875 14.497 160.325 13.354 159.563 12.6437C158.801 11.9335 157.752 11.5807 156.416 11.5807C155.381 11.5807 154.412 11.8723 153.514 12.4603C152.615 13.0482 151.919 13.8149 151.43 14.7698H151.388V1.57129H145.955V37.1215H150.612L151.185 34.7509H151.308C151.745 35.5975 152.399 36.2607 153.269 36.7547C154.139 37.2439 155.108 37.4885 156.171 37.4885C158.076 37.4885 159.483 36.6089 160.381 34.8543C161.28 33.0951 161.731 30.3529 161.731 26.6183V22.6532C161.731 19.8544 161.557 17.6578 161.218 16.0774ZM156.049 26.2983C156.049 28.1233 155.974 29.5533 155.823 30.5881C155.673 31.6229 155.423 32.3615 155.066 32.7941C154.713 33.2315 154.233 33.4479 153.636 33.4479C153.17 33.4479 152.742 33.3397 152.347 33.1187C151.952 32.9023 151.632 32.5731 151.388 32.1403V17.9212C151.576 17.2392 151.905 16.6841 152.371 16.2467C152.832 15.8093 153.34 15.5929 153.881 15.5929C154.455 15.5929 154.897 15.8187 155.207 16.2655C155.522 16.7171 155.739 17.4697 155.861 18.5327C155.983 19.5957 156.044 21.1056 156.044 23.067V26.2983H156.049Z" fill="#777777"/>
<path d="M169.731 27.7424C169.731 29.351 169.778 30.5552 169.873 31.3596C169.967 32.1638 170.164 32.7472 170.465 33.1188C170.766 33.4856 171.227 33.669 171.853 33.669C172.695 33.669 173.278 33.3398 173.588 32.686C173.904 32.0322 174.073 30.941 174.101 29.417L178.965 29.7038C178.993 29.9202 179.007 30.2212 179.007 30.6022C179.007 32.9164 178.372 34.6474 177.107 35.7904C175.842 36.9334 174.049 37.5072 171.735 37.5072C168.955 37.5072 167.008 36.637 165.893 34.892C164.774 33.147 164.219 30.4518 164.219 26.8016V22.4272C164.219 18.669 164.797 15.9221 165.954 14.1912C167.112 12.4602 169.092 11.5947 171.9 11.5947C173.833 11.5947 175.319 11.9475 176.354 12.6578C177.389 13.368 178.118 14.4687 178.541 15.9691C178.965 17.4696 179.176 19.5392 179.176 22.1826V26.4724H169.731V27.7424ZM170.446 15.9362C170.159 16.289 169.971 16.8675 169.873 17.6719C169.778 18.4762 169.731 19.6944 169.731 21.3314V23.1282H173.857V21.3314C173.857 19.7226 173.8 18.5044 173.692 17.6719C173.584 16.8393 173.386 16.2561 173.099 15.9127C172.812 15.574 172.37 15.4 171.773 15.4C171.171 15.4047 170.729 15.5834 170.446 15.9362Z" fill="#777777"/>
</g>
<defs>
<clipPath id="clip0_81_583">
<rect width="179.176" height="40" fill="white"/>
</clipPath>
</defs>
</svg>
