<svg width="70" height="27" viewBox="0 0 70 27" fill="none" xmlns="http://www.w3.org/2000/svg">
<path d="M11.8061 3.40863C11.0914 4.27453 9.88185 4.92051 8.91974 4.92051C8.80979 4.92051 8.69983 4.90677 8.63111 4.89303C8.61736 4.83805 8.58988 4.67312 8.58988 4.50818C8.58988 3.40863 9.1534 2.30908 9.75815 1.62186C10.5278 0.714731 11.8198 0.0412564 12.8919 2.32272e-05C12.9194 0.123723 12.9331 0.274911 12.9331 0.426099C12.9331 1.52565 12.4658 2.61146 11.8061 3.40863ZM12.562 5.15417C13.1668 5.15417 15.3521 5.20915 16.7815 7.2708C16.6578 7.36702 14.4862 8.59027 14.4862 11.3254C14.4862 14.4866 17.2488 15.6136 17.3313 15.6411C17.3176 15.7099 16.8915 17.1668 15.8744 18.6649C14.9673 19.9706 14.0052 21.2901 12.562 21.2901C11.1051 21.2901 10.734 20.4379 9.07093 20.4379C7.43535 20.4379 6.85808 21.3176 5.53862 21.3176C4.20542 21.3176 3.28454 20.0943 2.22622 18.6099C0.989229 16.8506 -0.000366752 14.1293 -0.000366752 11.5453C-0.000366752 7.40825 2.69353 5.20915 5.3462 5.20915C6.74813 5.20915 7.9164 6.13002 8.80979 6.13002C9.64819 6.13002 10.9539 5.15417 12.562 5.15417ZM25.2504 21.1664V1.33323H33.1671C37.1942 1.33323 39.9156 3.9859 39.9156 7.95802V7.98551C39.9156 11.9439 37.1942 14.6103 33.1671 14.6103H28.7964V21.1664H25.2504ZM32.3012 4.23329H28.7964V11.7515H32.3012C34.844 11.7515 36.3284 10.377 36.3284 7.99926V7.97177C36.3284 5.59399 34.844 4.23329 32.3012 4.23329ZM45.5245 21.4138C42.6657 21.4138 40.5903 19.6545 40.5903 16.9194V16.8919C40.5903 14.2117 42.6382 12.6449 46.2942 12.425L50.1564 12.1913V10.8993C50.1564 9.40119 49.1805 8.57652 47.3388 8.57652C45.7719 8.57652 44.7548 9.14004 44.4112 10.1296L44.3975 10.1846H41.1675L41.1813 10.0609C41.5111 7.53195 43.9301 5.85513 47.5037 5.85513C51.3659 5.85513 53.5375 7.72437 53.5375 10.8993V21.1664H50.1564V19.1047H49.9227C49.098 20.5616 47.5037 21.4138 45.5245 21.4138ZM43.9714 16.7544C43.9714 18.0327 45.0572 18.7886 46.5691 18.7886C48.6307 18.7886 50.1564 17.4417 50.1564 15.6549V14.4454L46.7752 14.6653C44.8648 14.789 43.9714 15.4899 43.9714 16.7269V16.7544ZM57.2908 26.4442C56.8785 26.4442 56.3975 26.4305 55.9851 26.3892V23.7641C56.26 23.7916 56.6449 23.8053 57.0022 23.8053C58.4041 23.8053 59.2425 23.228 59.6136 21.8673L59.7923 21.1801L54.4183 6.14376H58.1567L61.6616 17.8815H61.9227L65.4138 6.14376H69.0148L63.627 21.4825C62.335 25.2485 60.617 26.4442 57.2908 26.4442Z" fill="white"/>
</svg>
