<svg width="60" height="60" viewBox="0 0 60 60" fill="none" xmlns="http://www.w3.org/2000/svg">
<g clip-path="url(#clip0_225_9377)">
<path d="M35.7499 9.70335L24.25 16.529V6.82562L35.7499 0V9.70335Z" fill="#00B4FF"/>
<path d="M19.7104 11.5825L16.4058 24.5407L9.54688 17.6818L12.8516 4.72363L19.7104 11.5825Z" fill="#00B4FF"/>
<path d="M9.70335 24.2529L16.529 35.7528H6.82562L0 24.2529H9.70335Z" fill="#00B4FF"/>
<path d="M11.5815 40.2881L24.5397 43.5928L17.6808 50.4517L4.72266 47.147L11.5815 40.2881Z" fill="#00B4FF"/>
<path d="M24.25 50.2963L35.7499 43.4707V53.1741L24.25 59.9997V50.2963Z" fill="#00B4FF"/>
<path d="M40.2891 48.4161L43.5937 35.458L50.4526 42.3224L47.1479 55.2806L40.2891 48.4161Z" fill="#00B4FF"/>
<path d="M50.2944 35.7528L43.4688 24.2529H53.1721L59.9977 35.7528H50.2944Z" fill="#00B4FF"/>
<path d="M48.4152 19.7114L35.457 16.4067L42.3215 9.54785L55.2796 12.8525L48.4152 19.7114Z" fill="#00B4FF"/>
</g>
<defs>
<clipPath id="clip0_225_9377">
<rect width="60" height="60" fill="white"/>
</clipPath>
</defs>
</svg>
