<svg width="60" height="60" viewBox="0 0 60 60" fill="none" xmlns="http://www.w3.org/2000/svg">
<g clip-path="url(#clip0_225_9344)">
<path d="M30.0012 22.3988L24.2266 16.0621V5.77463C24.2266 2.58426 26.8108 0 30.0012 0C33.1916 0 35.7758 2.58426 35.7758 5.77463V16.0621L30.0012 22.3988Z" fill="#00B4FF"/>
<path d="M24.6241 24.625L16.0613 24.2283L8.78789 16.9549C6.53424 14.7013 6.53424 11.0425 8.78789 8.78887C11.0415 6.53522 14.7003 6.53522 16.9539 8.78887L24.2273 16.0623L24.6241 24.625Z" fill="#00B4FF"/>
<path d="M22.3988 30.0022L16.0621 35.7768H5.77463C2.58426 35.7768 0 33.1925 0 30.0022C0 26.8118 2.58426 24.2275 5.77463 24.2275H16.0621L22.3988 30.0022Z" fill="#00B4FF"/>
<path d="M24.6241 35.375L24.2273 43.9378L16.9539 51.2112C14.7003 53.4648 11.0415 53.4648 8.78789 51.2112C6.53424 48.9575 6.53424 45.2988 8.78789 43.0451L16.0613 35.7717L24.6241 35.375Z" fill="#00B4FF"/>
<path d="M30.0012 37.6006L35.7758 43.9373V54.2247C35.7758 57.4151 33.1916 59.9993 30.0012 59.9993C26.8108 59.9993 24.2266 57.4151 24.2266 54.2247V43.9373L30.0012 37.6006Z" fill="#00B4FF"/>
<path d="M35.375 35.375L43.9378 35.7717L51.2112 43.0451C53.4648 45.2988 53.4648 48.9575 51.2112 51.2112C48.9575 53.4648 45.2988 53.4648 43.0451 51.2112L35.7717 43.9378L35.375 35.375Z" fill="#00B4FF"/>
<path d="M37.6016 30.0022L43.9382 24.2275H54.2257C57.4161 24.2275 60.0003 26.8118 60.0003 30.0022C60.0003 33.1925 57.4161 35.7768 54.2257 35.7768H43.9382L37.6016 30.0022Z" fill="#00B4FF"/>
<path d="M35.375 24.625L35.7717 16.0623L43.0451 8.78887C45.2988 6.53522 48.9575 6.53522 51.2112 8.78887C53.4648 11.0425 53.4648 14.7013 51.2112 16.9549L43.9378 24.2283L35.375 24.625Z" fill="#00B4FF"/>
</g>
<defs>
<clipPath id="clip0_225_9344">
<rect width="60" height="60" fill="white"/>
</clipPath>
</defs>
</svg>
