<svg width="60" height="50" viewBox="0 0 60 50" fill="none" xmlns="http://www.w3.org/2000/svg">
<g clip-path="url(#clip0_225_9367)">
<path fill-rule="evenodd" clip-rule="evenodd" d="M0 18.3973V10.6428C5.8695 10.6428 10.5964 5.9159 10.5964 0H18.3509C18.3509 10.1846 10.144 18.3973 0 18.3973Z" fill="#00B4FF"/>
<path fill-rule="evenodd" clip-rule="evenodd" d="M41.6094 0H49.3638C49.3638 5.9159 54.1314 10.6428 60.0067 10.6428V18.3973C49.8684 18.3973 41.6152 10.1846 41.6152 0H41.6094Z" fill="#00B4FF"/>
<path fill-rule="evenodd" clip-rule="evenodd" d="M30.0029 39.2663C21.8888 45.4606 11.7912 49.2189 0.782987 49.4045H0V41.65C9.35524 41.65 18.0261 38.5761 24.9512 33.3446C26.8304 31.5524 28.4833 29.5805 29.9971 27.5215C31.4703 29.5805 33.1638 31.5524 34.9966 33.3446C41.9681 38.5703 50.639 41.65 59.9942 41.65V49.3523L59.1706 49.3987C48.2088 49.2131 38.1112 45.449 29.9971 39.2605L30.0029 39.2663Z" fill="#00B4FF"/>
<path fill-rule="evenodd" clip-rule="evenodd" d="M35.6462 23.5825C33.6336 21.5119 31.8821 19.1281 30.4611 16.611C30.2813 16.3326 30.1363 16.06 30.0029 15.7816C29.8695 16.06 29.6781 16.3326 29.5447 16.611C23.7622 26.929 12.667 33.9005 0 33.9005V26.146C14.407 26.146 26.1054 14.4534 26.1054 0.00585938H33.8598C33.8598 5.91596 35.8318 11.3331 39.0855 15.6888C43.8531 22.0687 51.4683 26.146 60.0058 26.146V33.9005C50.465 33.9005 41.7941 29.9508 35.6462 23.5825Z" fill="#00B4FF"/>
</g>
<defs>
<clipPath id="clip0_225_9367">
<rect width="60" height="49.4036" fill="white"/>
</clipPath>
</defs>
</svg>
