<svg width="573" height="363" viewBox="0 0 573 363" fill="none" xmlns="http://www.w3.org/2000/svg">
<rect width="573" height="363" rx="29.4349" fill="#00B4FF"/>
<circle cx="34.5625" cy="324.037" r="2.61133" fill="white"/>
<circle cx="47.8682" cy="324.037" r="2.61133" fill="white"/>
<circle cx="61.1729" cy="324.037" r="2.61133" fill="white"/>
<circle cx="74.4785" cy="324.037" r="2.61133" fill="white"/>
<path d="M95.812 314.048V333.039H93.5123V316.459H93.401L88.7644 319.537V317.2L93.5123 314.048H95.812ZM110.63 314.048V333.039H108.331V316.459H108.219L103.583 319.537V317.2L108.331 314.048H110.63ZM125.449 314.048V333.039H123.149V316.459H123.038L118.401 319.537V317.2L123.149 314.048H125.449ZM131.773 333.039V331.37L138.041 324.508C138.777 323.704 139.383 323.005 139.859 322.412C140.335 321.812 140.687 321.25 140.916 320.724C141.151 320.193 141.268 319.636 141.268 319.055C141.268 318.387 141.108 317.809 140.786 317.321C140.471 316.833 140.038 316.456 139.488 316.19C138.938 315.924 138.319 315.791 137.633 315.791C136.904 315.791 136.267 315.942 135.723 316.245C135.185 316.542 134.768 316.959 134.471 317.497C134.181 318.035 134.035 318.666 134.035 319.389H131.847C131.847 318.276 132.103 317.299 132.616 316.459C133.13 315.618 133.828 314.963 134.712 314.493C135.602 314.023 136.601 313.788 137.707 313.788C138.82 313.788 139.806 314.023 140.666 314.493C141.525 314.963 142.199 315.596 142.687 316.394C143.176 317.191 143.42 318.078 143.42 319.055C143.42 319.754 143.293 320.437 143.04 321.104C142.792 321.766 142.359 322.505 141.741 323.321C141.129 324.131 140.279 325.12 139.191 326.288L134.925 330.851V330.999H143.754V333.039H131.773Z" fill="white"/>
<g style="mix-blend-mode:color-burn">
<circle cx="509.085" cy="299.186" r="38.1337" fill="#F79E1B"/>
<circle cx="465.231" cy="299.186" r="38.1337" fill="#EB001B"/>
<path d="M487.158 330.389C496.96 323.488 503.365 312.085 503.365 299.186C503.365 286.287 496.96 274.883 487.158 267.982C477.356 274.883 470.951 286.287 470.951 299.186C470.951 312.085 477.356 323.488 487.158 330.389Z" fill="#FF5F00"/>
</g>
<path d="M101.453 34.5332L101.455 34.5322V90.9912L101.453 90.9902L84.3633 81.1289V63.1572L66.2051 73.6348L66.2031 73.6357V73.6367L66.2012 73.6357L48.0488 63.1611V81.1318L30.959 90.9922L30.957 90.9932V53.2998L30.9531 53.2979V33.5752L66.2031 53.9141V53.9131L101.453 33.5742V34.5332Z" fill="white"/>
</svg>
