<svg width="60" height="60" viewBox="0 0 60 60" fill="none" xmlns="http://www.w3.org/2000/svg">
<g clip-path="url(#clip0_165_21211)">
<path d="M59.6358 25.3412C59.465 24.2722 58.5503 23.4843 57.4703 23.4843H36.8954H32.7297H23.1145C21.6433 23.4843 20.7231 21.8918 21.456 20.6135L28.3436 8.6785C29.082 7.40015 30.9224 7.40015 31.6607 8.6785C31.6607 8.6785 36.3389 16.806 38.0635 19.82C38.4548 20.5088 39.1876 20.9276 39.9756 20.9276H56.8587C57.7348 20.9276 58.3243 20.0459 58.0048 19.2249C53.4699 7.44423 41.7168 -0.75487 28.1618 0.0551221C14.2707 0.887154 2.61676 11.4666 0.385146 25.2034C-0.143828 28.4654 -0.110767 31.6393 0.363106 34.6644C0.53392 35.7333 1.4486 36.5213 2.52859 36.5213H23.1035H26.2718H36.8844C38.3556 36.5213 39.2758 38.1137 38.5429 39.3921L31.6552 51.327C30.9169 52.6054 29.0765 52.6054 28.3381 51.327C28.3381 51.327 23.6545 43.1996 21.9353 40.1855C21.5441 39.4968 20.8113 39.078 20.0233 39.078H3.14022C2.26411 39.078 1.67452 39.9596 1.99411 40.7806C6.53447 52.5779 18.3041 60.7825 31.8812 59.9504C45.7667 59.1019 57.4042 48.5114 59.6192 34.7746C60.1427 31.5181 60.1096 28.3608 59.6358 25.3467V25.3412Z" fill="#00B4FF"/>
</g>
<defs>
<clipPath id="clip0_165_21211">
<rect width="60" height="60" fill="white"/>
</clipPath>
</defs>
</svg>
