<svg width="698" height="485" viewBox="0 0 698 485" fill="none" xmlns="http://www.w3.org/2000/svg">
<g filter="url(#filter0_dddd_115_2936)">
<rect x="113" y="10" width="573" height="363" rx="29.4349" fill="#00B4FF"/>
<circle cx="147.562" cy="334.037" r="2.61133" fill="white"/>
<circle cx="160.867" cy="334.037" r="2.61133" fill="white"/>
<circle cx="174.174" cy="334.037" r="2.61133" fill="white"/>
<circle cx="187.479" cy="334.037" r="2.61133" fill="white"/>
<path d="M208.812 324.046V343.037H206.512V326.457H206.401L201.764 329.535V327.199L206.512 324.046H208.812ZM223.63 324.046V343.037H221.331V326.457H221.219L216.583 329.535V327.199L221.331 324.046H223.63ZM238.449 324.046V343.037H236.149V326.457H236.038L231.401 329.535V327.199L236.149 324.046H238.449ZM244.773 343.037V341.368L251.041 334.506C251.777 333.702 252.383 333.004 252.859 332.41C253.335 331.81 253.687 331.248 253.916 330.722C254.151 330.191 254.268 329.634 254.268 329.053C254.268 328.385 254.108 327.807 253.786 327.319C253.471 326.831 253.038 326.454 252.488 326.188C251.938 325.922 251.319 325.789 250.633 325.789C249.904 325.789 249.267 325.94 248.723 326.243C248.185 326.54 247.768 326.957 247.471 327.495C247.181 328.033 247.035 328.664 247.035 329.387H244.847C244.847 328.274 245.103 327.297 245.616 326.457C246.13 325.616 246.828 324.961 247.712 324.491C248.602 324.021 249.601 323.786 250.707 323.786C251.82 323.786 252.806 324.021 253.666 324.491C254.525 324.961 255.199 325.594 255.687 326.392C256.176 327.189 256.42 328.076 256.42 329.053C256.42 329.752 256.293 330.435 256.04 331.103C255.792 331.764 255.359 332.503 254.741 333.319C254.129 334.129 253.279 335.118 252.191 336.286L247.925 340.849V340.997H256.754V343.037H244.773Z" fill="white"/>
<g style="mix-blend-mode:color-burn">
<circle cx="622.085" cy="309.186" r="38.1337" fill="#F79E1B"/>
<circle cx="578.231" cy="309.186" r="38.1337" fill="#EB001B"/>
<path d="M600.158 340.39C609.96 333.489 616.365 322.085 616.365 309.187C616.365 296.288 609.96 284.884 600.158 277.983C590.356 284.884 583.951 296.288 583.951 309.187C583.951 322.085 590.356 333.489 600.158 340.39Z" fill="#FF5F00"/>
</g>
<path d="M214.453 44.5332L214.455 44.5322V100.991L214.453 100.99L197.363 91.1289V73.1572L179.205 83.6348L179.203 83.6357V83.6367L179.201 83.6357L161.049 73.1611V91.1318L143.959 100.992L143.957 100.993V63.2998L143.953 63.2979V43.5752L179.203 63.9141V63.9131L214.453 43.5742V44.5332Z" fill="white"/>
</g>
<defs>
<filter id="filter0_dddd_115_2936" x="0" y="0" width="698" height="512" filterUnits="userSpaceOnUse" color-interpolation-filters="sRGB">
<feFlood flood-opacity="0" result="BackgroundImageFix"/>
<feColorMatrix in="SourceAlpha" type="matrix" values="0 0 0 0 0 0 0 0 0 0 0 0 0 0 0 0 0 0 127 0" result="hardAlpha"/>
<feOffset dx="-4" dy="6"/>
<feGaussianBlur stdDeviation="8"/>
<feColorMatrix type="matrix" values="0 0 0 0 0 0 0 0 0 0 0 0 0 0 0 0 0 0 0.1 0"/>
<feBlend mode="normal" in2="BackgroundImageFix" result="effect1_dropShadow_115_2936"/>
<feColorMatrix in="SourceAlpha" type="matrix" values="0 0 0 0 0 0 0 0 0 0 0 0 0 0 0 0 0 0 127 0" result="hardAlpha"/>
<feOffset dx="-17" dy="23"/>
<feGaussianBlur stdDeviation="14.5"/>
<feColorMatrix type="matrix" values="0 0 0 0 0 0 0 0 0 0 0 0 0 0 0 0 0 0 0.09 0"/>
<feBlend mode="normal" in2="effect1_dropShadow_115_2936" result="effect2_dropShadow_115_2936"/>
<feColorMatrix in="SourceAlpha" type="matrix" values="0 0 0 0 0 0 0 0 0 0 0 0 0 0 0 0 0 0 127 0" result="hardAlpha"/>
<feOffset dx="-38" dy="52"/>
<feGaussianBlur stdDeviation="19.5"/>
<feColorMatrix type="matrix" values="0 0 0 0 0 0 0 0 0 0 0 0 0 0 0 0 0 0 0.05 0"/>
<feBlend mode="normal" in2="effect2_dropShadow_115_2936" result="effect3_dropShadow_115_2936"/>
<feColorMatrix in="SourceAlpha" type="matrix" values="0 0 0 0 0 0 0 0 0 0 0 0 0 0 0 0 0 0 127 0" result="hardAlpha"/>
<feOffset dx="-67" dy="93"/>
<feGaussianBlur stdDeviation="23"/>
<feColorMatrix type="matrix" values="0 0 0 0 0 0 0 0 0 0 0 0 0 0 0 0 0 0 0.01 0"/>
<feBlend mode="normal" in2="effect3_dropShadow_115_2936" result="effect4_dropShadow_115_2936"/>
<feBlend mode="normal" in="SourceGraphic" in2="effect4_dropShadow_115_2936" result="shape"/>
</filter>
</defs>
</svg>
