<svg width="60" height="60" viewBox="0 0 60 60" fill="none" xmlns="http://www.w3.org/2000/svg">
<g clip-path="url(#clip0_165_21175)">
<path d="M45.0012 14.9986C34.3555 17.4066 32.405 19.3516 30.0025 29.9972C27.5946 19.3516 25.6495 17.401 15.0039 14.9986C25.6495 12.5907 27.6001 10.6456 30.0025 0C32.4105 10.6456 34.3555 12.5962 45.0012 14.9986Z" fill="#00B4FF"/>
<path d="M45.0012 45.0013C34.3555 47.4092 32.405 49.3543 30.0025 59.9999C27.5946 49.3543 25.6495 47.4037 15.0039 45.0013C25.6495 42.5934 27.6001 40.6483 30.0025 30.0027C32.4105 40.6483 34.3555 42.5989 45.0012 45.0013Z" fill="#00B4FF"/>
<path d="M30.0031 30.0028C19.3575 32.4107 17.4069 34.3558 15.0045 45.0014C12.5965 34.3558 10.6515 32.4052 0.00585938 30.0028C10.6515 27.5948 12.6021 25.6498 15.0045 15.0042C17.4124 25.6498 19.3575 27.6003 30.0031 30.0028Z" fill="#00B4FF"/>
<path d="M59.9992 30.0028C49.3536 32.4107 47.403 34.3558 45.0006 45.0014C42.5926 34.3558 40.6476 32.4052 30.002 30.0028C40.6476 27.5948 42.5981 25.6498 45.0006 15.0042C47.4085 25.6498 49.3536 27.6003 59.9992 30.0028Z" fill="#00B4FF"/>
</g>
<defs>
<clipPath id="clip0_165_21175">
<rect width="60" height="60" fill="white"/>
</clipPath>
</defs>
</svg>
