<svg width="122" height="30" viewBox="0 0 122 30" fill="none" xmlns="http://www.w3.org/2000/svg">
<path d="M36.8323 29.999L36.8315 29.9986L27.9023 24.8464V5.65248L36.8323 0.5V29.999Z" fill="url(#paint0_linear_165_24360)"/>
<path d="M18.418 20.9316V10.6266L36.8356 0V10.305L18.4188 20.9311L18.418 20.9316Z" fill="url(#paint1_linear_165_24360)"/>
<path d="M-0.000317574 30L0.000536919 29.9995L8.92969 24.8474L8.92969 5.65346L-0.000317574 0.500975L-0.000317574 30Z" fill="url(#paint2_linear_165_24360)"/>
<path d="M18.418 20.9316V10.6267L0.000301361 5.72205e-05L0.000301361 10.305L18.4171 20.9312L18.418 20.9316Z" fill="url(#paint3_linear_165_24360)"/>
<path d="M45.8189 7.95455H49.6115L53.6172 17.7273H53.7876L57.7933 7.95455H61.5859V22.5H58.603V13.0327H58.4822L54.718 22.429H52.6868L48.9226 12.9972H48.8018V22.5H45.8189V7.95455ZM76.3535 13.0469H73.2427C73.1859 12.6444 73.0699 12.2869 72.8947 11.9744C72.7195 11.6572 72.4946 11.3873 72.22 11.1648C71.9453 10.9422 71.6281 10.7718 71.2683 10.6534C70.9131 10.535 70.5272 10.4759 70.1106 10.4759C69.3577 10.4759 68.702 10.6629 68.1433 11.0369C67.5845 11.4062 67.1513 11.946 66.8435 12.6562C66.5358 13.3617 66.3819 14.2187 66.3819 15.2273C66.3819 16.2642 66.5358 17.1354 66.8435 17.8409C67.156 18.5464 67.5916 19.0791 68.1504 19.4389C68.7091 19.7988 69.3554 19.9787 70.0893 19.9787C70.5012 19.9787 70.8824 19.9242 71.2327 19.8153C71.5879 19.7064 71.9027 19.5478 72.1773 19.3395C72.452 19.1264 72.6792 18.8684 72.8592 18.5653C73.0438 18.2623 73.1717 17.9167 73.2427 17.5284L76.3535 17.5426C76.273 18.2102 76.0718 18.8542 75.7498 19.4744C75.4326 20.09 75.004 20.6416 74.4643 21.1293C73.9292 21.6122 73.29 21.9957 72.5467 22.2798C71.808 22.5592 70.9723 22.6989 70.0396 22.6989C68.7422 22.6989 67.5822 22.4053 66.5594 21.8182C65.5415 21.2311 64.7365 20.3812 64.1447 19.2685C63.5576 18.1558 63.264 16.8087 63.264 15.2273C63.264 13.6411 63.5623 12.2917 64.1589 11.179C64.7555 10.0663 65.5651 9.21875 66.5879 8.63636C67.6106 8.04924 68.7612 7.75568 70.0396 7.75568C70.8824 7.75568 71.6636 7.87405 72.3833 8.1108C73.1077 8.34754 73.7493 8.69318 74.308 9.14773C74.8667 9.59754 75.3213 10.1491 75.6717 10.8026C76.0268 11.456 76.254 12.2041 76.3535 13.0469ZM81.0127 22.706C80.3167 22.706 79.6964 22.5852 79.1519 22.3438C78.6074 22.0975 78.1765 21.7353 77.8593 21.2571C77.5468 20.7741 77.3906 20.1728 77.3906 19.4531C77.3906 18.8471 77.5018 18.3381 77.7244 17.9261C77.9469 17.5142 78.2499 17.1828 78.6335 16.9318C79.017 16.6809 79.4526 16.4915 79.9403 16.3636C80.4327 16.2358 80.9488 16.1458 81.4886 16.0938C82.123 16.0275 82.6344 15.9659 83.0227 15.9091C83.4109 15.8475 83.6926 15.7576 83.8678 15.6392C84.043 15.5208 84.1306 15.3456 84.1306 15.1136V15.071C84.1306 14.6212 83.9886 14.2732 83.7045 14.027C83.4251 13.7808 83.0274 13.6577 82.5113 13.6577C81.9668 13.6577 81.5335 13.7784 81.2116 14.0199C80.8896 14.2566 80.6765 14.5549 80.5724 14.9148L77.7741 14.6875C77.9161 14.0246 78.1955 13.4517 78.6121 12.9688C79.0288 12.4811 79.5662 12.107 80.2244 11.8466C80.8872 11.5814 81.6543 11.4489 82.5255 11.4489C83.1316 11.4489 83.7116 11.5199 84.2656 11.6619C84.8243 11.804 85.3191 12.0241 85.7499 12.3224C86.1855 12.6207 86.5288 13.0043 86.7798 13.473C87.0307 13.937 87.1562 14.4934 87.1562 15.142V22.5H84.2869V20.9872H84.2016C84.0264 21.3281 83.7921 21.6288 83.4985 21.8892C83.2049 22.1449 82.8522 22.3461 82.4403 22.4929C82.0283 22.6349 81.5525 22.706 81.0127 22.706ZM81.8792 20.6179C82.3243 20.6179 82.7173 20.5303 83.0582 20.3551C83.3991 20.1752 83.6666 19.9337 83.8607 19.6307C84.0549 19.3277 84.1519 18.9844 84.1519 18.6009V17.4432C84.0572 17.5047 83.927 17.5616 83.7613 17.6136C83.6003 17.661 83.418 17.706 83.2144 17.7486C83.0108 17.7865 82.8072 17.822 82.6036 17.8551C82.4 17.8835 82.2154 17.9096 82.0496 17.9332C81.6945 17.9853 81.3844 18.0682 81.1192 18.1818C80.8541 18.2955 80.6481 18.4493 80.5013 18.6435C80.3546 18.8329 80.2812 19.0696 80.2812 19.3537C80.2812 19.7656 80.4303 20.0805 80.7286 20.2983C81.0317 20.5114 81.4152 20.6179 81.8792 20.6179ZM88.9035 22.5V11.5909H91.8367V13.4943H91.9504C92.1492 12.8172 92.483 12.3059 92.9518 11.9602C93.4205 11.6098 93.9603 11.4347 94.5711 11.4347C94.7226 11.4347 94.886 11.4441 95.0612 11.4631C95.2363 11.482 95.3902 11.508 95.5228 11.5412V14.2259C95.3808 14.1832 95.1843 14.1454 94.9333 14.1122C94.6824 14.0791 94.4527 14.0625 94.2444 14.0625C93.7993 14.0625 93.4016 14.1596 93.0512 14.3537C92.7056 14.5431 92.4309 14.8082 92.2273 15.1491C92.0285 15.4901 91.929 15.883 91.929 16.3281V22.5H88.9035ZM99.9991 22.6776C99.1705 22.6776 98.4201 22.4645 97.7477 22.0384C97.0801 21.6075 96.5498 20.9754 96.1568 20.142C95.7686 19.304 95.5744 18.2765 95.5744 17.0597C95.5744 15.8097 95.7757 14.7704 96.1781 13.9418C96.5806 13.1084 97.1156 12.4858 97.7832 12.0739C98.4556 11.6572 99.1919 11.4489 99.992 11.4489C100.603 11.4489 101.112 11.553 101.519 11.7614C101.931 11.965 102.262 12.2206 102.513 12.5284C102.769 12.8314 102.963 13.1297 103.096 13.4233H103.188V7.95455H106.207V22.5H103.224V20.7528H103.096C102.954 21.0559 102.752 21.3565 102.492 21.6548C102.236 21.9484 101.903 22.1922 101.491 22.3864C101.083 22.5805 100.586 22.6776 99.9991 22.6776ZM100.958 20.2699C101.446 20.2699 101.858 20.1373 102.194 19.8722C102.535 19.6023 102.795 19.2259 102.975 18.7429C103.16 18.2599 103.252 17.6941 103.252 17.0455C103.252 16.3968 103.162 15.8333 102.982 15.3551C102.802 14.8769 102.542 14.5076 102.201 14.2472C101.86 13.9867 101.446 13.8565 100.958 13.8565C100.461 13.8565 100.042 13.9915 99.7009 14.2614C99.3599 14.5312 99.1019 14.9053 98.9267 15.3835C98.7515 15.8617 98.6639 16.4157 98.6639 17.0455C98.6639 17.6799 98.7515 18.241 98.9267 18.7287C99.1066 19.2116 99.3647 19.5904 99.7009 19.8651C100.042 20.1349 100.461 20.2699 100.958 20.2699ZM117.171 14.7017L114.401 14.8722C114.354 14.6354 114.252 14.4223 114.096 14.233C113.939 14.0388 113.733 13.8849 113.478 13.7713C113.227 13.6529 112.926 13.5938 112.576 13.5938C112.107 13.5938 111.712 13.6932 111.39 13.892C111.068 14.0862 110.907 14.3466 110.907 14.6733C110.907 14.9337 111.011 15.1539 111.219 15.3338C111.427 15.5137 111.785 15.6581 112.292 15.767L114.266 16.1648C115.327 16.3826 116.117 16.733 116.638 17.2159C117.159 17.6989 117.419 18.3333 117.419 19.1193C117.419 19.8343 117.209 20.4616 116.787 21.0014C116.371 21.5412 115.798 21.9626 115.069 22.2656C114.344 22.5639 113.508 22.7131 112.561 22.7131C111.117 22.7131 109.967 22.4124 109.11 21.8111C108.257 21.205 107.758 20.3812 107.611 19.3395L110.587 19.1832C110.677 19.6236 110.895 19.9598 111.24 20.1918C111.586 20.419 112.029 20.5327 112.569 20.5327C113.099 20.5327 113.525 20.4309 113.847 20.2273C114.174 20.0189 114.339 19.7514 114.344 19.4247C114.339 19.1501 114.223 18.9252 113.996 18.75C113.769 18.5701 113.418 18.4328 112.945 18.3381L111.056 17.9616C109.99 17.7486 109.197 17.3793 108.676 16.8537C108.16 16.3281 107.902 15.6581 107.902 14.8438C107.902 14.143 108.092 13.5393 108.471 13.0327C108.854 12.526 109.391 12.1354 110.083 11.8608C110.779 11.5862 111.593 11.4489 112.526 11.4489C113.904 11.4489 114.988 11.7401 115.779 12.3224C116.574 12.9048 117.038 13.6979 117.171 14.7017Z" fill="white"/>
<defs>
<linearGradient id="paint0_linear_165_24360" x1="32.3673" y1="0.5" x2="32.3673" y2="29.999" gradientUnits="userSpaceOnUse">
<stop stop-color="#3223FA"/>
<stop offset="1" stop-color="#23DBE1"/>
</linearGradient>
<linearGradient id="paint1_linear_165_24360" x1="27.6268" y1="0" x2="27.6268" y2="20.9316" gradientUnits="userSpaceOnUse">
<stop stop-color="#19D6F1"/>
<stop offset="1" stop-color="#3433FF"/>
</linearGradient>
<linearGradient id="paint2_linear_165_24360" x1="4.46468" y1="30" x2="4.46468" y2="0.500975" gradientUnits="userSpaceOnUse">
<stop stop-color="#19C8F3"/>
<stop offset="1" stop-color="#3433FF"/>
</linearGradient>
<linearGradient id="paint3_linear_165_24360" x1="9.20914" y1="20.9316" x2="9.20914" y2="5.72205e-05" gradientUnits="userSpaceOnUse">
<stop stop-color="#6564FF"/>
<stop offset="1" stop-color="#18EDDC"/>
</linearGradient>
</defs>
</svg>
