<svg width="50" height="50" viewBox="0 0 50 50" fill="none" xmlns="http://www.w3.org/2000/svg">
<g clip-path="url(#clip0_115_2729)">
<mask id="mask0_115_2729" style="mask-type:luminance" maskUnits="userSpaceOnUse" x="0" y="0" width="50" height="50">
<path d="M50 0H0V50H50V0Z" fill="white"/>
</mask>
<g mask="url(#mask0_115_2729)">
<path d="M23.4375 37.9585V12.041C23.4375 11.1781 24.1371 10.4785 25 10.4785C25.8629 10.4785 26.5625 11.1781 26.5625 12.041V37.9585C26.5621 38.821 25.8627 39.521 25 39.521C24.1373 39.521 23.4379 38.821 23.4375 37.9585Z" fill="#00B4FF"/>
<path d="M31.2787 3.09413C31.8703 2.46604 32.8599 2.43742 33.488 3.02902C34.1162 3.62067 34.1468 4.61031 33.5551 5.23848L26.1374 13.112C25.5458 13.7402 24.5562 13.7708 23.928 13.1792C23.3001 12.5875 23.2714 11.5978 23.8628 10.9697L31.2787 3.09413Z" fill="#00B4FF"/>
<path d="M16.5119 3.02881C17.1399 2.43735 18.1297 2.46627 18.7214 3.09391L26.1391 10.9695C26.7306 11.5977 26.7002 12.5874 26.072 13.179C25.4437 13.7704 24.4541 13.74 23.8625 13.1118L16.4468 5.23829C15.8553 4.61027 15.8842 3.62052 16.5119 3.02881Z" fill="#00B4FF"/>
<path d="M23.8627 36.886C24.4543 36.2581 25.4439 36.2294 26.0723 36.821C26.7002 37.4127 26.7308 38.4023 26.1393 39.0304L18.7215 46.9039C18.1298 47.5323 17.1402 47.5627 16.512 46.9712C15.8841 46.3796 15.8554 45.3898 16.4469 44.7617L23.8627 36.886Z" fill="#00B4FF"/>
<path d="M23.928 36.8208C24.5559 36.2293 25.5457 36.2583 26.1373 36.886L33.5553 44.7614C34.1465 45.3897 34.1161 46.3793 33.4882 46.971C32.8598 47.5624 31.8703 47.532 31.2786 46.9039L23.8628 39.0304C23.2713 38.4022 23.3003 37.4124 23.928 36.8208Z" fill="#00B4FF"/>
<path d="M13.0187 17.7086C13.4673 16.9715 14.428 16.7374 15.1651 17.1857L25.8118 23.6656L25.832 23.6779L30.2103 26.4366L36.442 30.1354C37.184 30.5756 37.4293 31.5335 36.9893 32.2756C36.5488 33.0179 35.589 33.2633 34.847 32.8229L28.597 29.1141C28.5851 29.107 28.574 29.0989 28.5624 29.0916L24.1861 26.3329L13.5416 19.855C12.8046 19.4064 12.5704 18.4457 13.0187 17.7086Z" fill="#00B4FF"/>
<path d="M11.191 6.36305C12.0259 6.14618 12.878 6.64714 13.0953 7.48203L15.8663 18.1266C16.0837 18.9617 15.5825 19.8155 14.7473 20.0329C13.9125 20.2497 13.0603 19.7488 12.843 18.9139L10.072 8.26735C9.85516 7.43245 10.3561 6.58034 11.191 6.36305Z" fill="#00B4FF"/>
<path d="M13.9439 17.0131C14.7761 16.7869 15.6335 17.2778 15.8604 18.1097C16.0868 18.9423 15.5963 19.8017 14.7638 20.0282L4.57701 22.7992C3.7443 23.0257 2.88495 22.5334 2.65847 21.7007C2.43266 20.8684 2.92322 20.0109 3.75507 19.7841L13.9439 17.0131Z" fill="#00B4FF"/>
<path d="M35.2535 29.9675C36.0885 29.7507 36.9406 30.2517 37.1579 31.0865L39.9289 41.7311C40.1462 42.5661 39.6449 43.42 38.8099 43.6373C37.9749 43.8542 37.1229 43.3534 36.9056 42.5184L34.1345 31.8719C33.9177 31.0369 34.4187 30.1848 35.2535 29.9675Z" fill="#00B4FF"/>
<path d="M45.4244 27.2006C46.2566 26.9744 47.1139 27.4652 47.3408 28.2971C47.5673 29.1298 47.0769 29.9892 46.2444 30.2156L36.0575 32.9867C35.2248 33.2131 34.3654 32.7208 34.1389 31.8881C33.9131 31.056 34.4037 30.1983 35.2356 29.9717L45.4244 27.2006Z" fill="#00B4FF"/>
<path d="M34.8344 17.1859C35.5715 16.7372 36.5321 16.9716 36.9806 17.7088C37.4292 18.4456 37.1965 19.4064 36.4598 19.8551L25.8133 26.3351L25.8113 26.333L21.4392 29.0917C21.4273 29.0992 21.4144 29.1071 21.4025 29.1142L15.1525 32.823C14.4104 33.2634 13.4525 33.0178 13.0122 32.2759C12.5719 31.5338 12.8155 30.5759 13.5574 30.1355L19.7871 26.4367L24.1673 23.678L24.1877 23.6657L34.8344 17.1859Z" fill="#00B4FF"/>
<path d="M36.9057 7.48207C37.123 6.64715 37.9751 6.14611 38.8099 6.36309C39.6449 6.5804 40.1457 7.43253 39.9291 8.2674L37.158 18.914C36.9407 19.7488 36.0884 20.2497 35.2536 20.0329C34.4186 19.8156 33.9174 18.9617 34.1347 18.1266L36.9057 7.48207Z" fill="#00B4FF"/>
<path d="M34.1391 18.1098C34.366 17.2776 35.2253 16.7868 36.0576 17.0132L46.2445 19.7842C47.0768 20.0107 47.567 20.8682 47.3412 21.7007C47.1147 22.5332 46.2572 23.0255 45.4245 22.7993L35.2358 20.0283C34.4037 19.8015 33.9128 18.9422 34.1391 18.1098Z" fill="#00B4FF"/>
<path d="M12.8432 31.0865C13.0605 30.2517 13.9126 29.7507 14.7475 29.9675C15.5824 30.1848 16.0833 31.0369 15.8665 31.8719L13.0955 42.5184C12.8782 43.3532 12.026 43.8542 11.1912 43.6373C10.3561 43.42 9.85484 42.5663 10.0722 41.7311L12.8432 31.0865Z" fill="#00B4FF"/>
<path d="M2.65869 28.2972C2.88554 27.4651 3.74484 26.9743 4.57723 27.2007L14.764 29.9715C15.5963 30.1982 16.0866 31.0557 15.8606 31.8882C15.6342 32.7207 14.7767 33.213 13.9441 32.9868L3.75529 30.2157C2.92313 29.9888 2.43229 29.1297 2.65869 28.2972Z" fill="#00B4FF"/>
</g>
</g>
<defs>
<clipPath id="clip0_115_2729">
<rect width="50" height="50" fill="white"/>
</clipPath>
</defs>
</svg>
