<svg width="76" height="30" viewBox="0 0 76 30" fill="none" xmlns="http://www.w3.org/2000/svg">
<path d="M35.179 14.2854V22.9454H32.4121V1.5603H39.7473C41.6063 1.5603 43.1915 2.17581 44.4884 3.40681C45.8142 4.63782 46.4771 6.14079 46.4771 7.91572C46.4771 9.7336 45.8142 11.2366 44.4884 12.4533C43.2059 13.6699 41.6207 14.2711 39.7473 14.2711H35.179V14.2854ZM35.179 4.19408V11.6517H39.8049C40.9001 11.6517 41.8224 11.2795 42.543 10.5495C43.2779 9.81948 43.6526 8.93201 43.6526 7.93003C43.6526 6.94237 43.2779 6.06922 42.543 5.3392C41.8224 4.58056 40.9145 4.20839 39.8049 4.20839H35.179V4.19408Z" fill="white"/>
<path d="M53.7124 7.82996C55.7588 7.82996 57.3728 8.37389 58.5545 9.46175C59.7362 10.5496 60.327 12.0383 60.327 13.9277V22.9455H57.6898V20.913H57.5746C56.4361 22.5877 54.9085 23.4179 53.0063 23.4179C51.3779 23.4179 50.0232 22.9455 48.928 21.9865C47.8328 21.0275 47.2852 19.8394 47.2852 18.408C47.2852 16.8907 47.8616 15.6883 49.0145 14.8009C50.1673 13.8991 51.7093 13.4554 53.626 13.4554C55.2688 13.4554 56.6234 13.756 57.6754 14.3571V13.7273C57.6754 12.7683 57.3007 11.9667 56.537 11.2939C55.7732 10.6212 54.8797 10.292 53.8565 10.292C52.3146 10.292 51.0896 10.9361 50.1962 12.2387L47.7607 10.7214C49.1009 8.78899 51.0896 7.82996 53.7124 7.82996ZM50.1385 18.4509C50.1385 19.1666 50.4411 19.7678 51.0608 20.2402C51.6661 20.7126 52.3866 20.9559 53.2081 20.9559C54.3753 20.9559 55.4129 20.5265 56.3208 19.6676C57.2287 18.8088 57.6898 17.8068 57.6898 16.6474C56.8252 15.9746 55.6291 15.6311 54.0871 15.6311C52.9631 15.6311 52.0264 15.9031 51.277 16.4327C50.5132 16.9909 50.1385 17.6637 50.1385 18.4509Z" fill="white"/>
<path d="M75.3705 8.30237L66.1475 29.3726H63.2942L66.724 22.0009L60.6426 8.30237H63.6545L68.0354 18.8088H68.093L72.3586 8.30237H75.3705Z" fill="white"/>
<path d="M24.1703 12.5391C24.1703 11.6431 24.0896 10.7857 23.9397 9.96118H12.3418V14.6848L19.0213 14.6862C18.7503 16.2579 17.8785 17.5977 16.5426 18.4909V21.5555H20.5185C22.8401 19.4213 24.1703 16.2665 24.1703 12.5391Z" fill="#4285F4"/>
<path d="M16.5448 18.491C15.4381 19.2325 14.0128 19.6662 12.3455 19.6662C9.12465 19.6662 6.39234 17.5105 5.41384 14.6047H1.3125V17.7653C3.34444 21.7703 7.52072 24.5186 12.3455 24.5186C15.6802 24.5186 18.4816 23.4293 20.5208 21.5542L16.5448 18.491Z" fill="#34A853"/>
<path d="M5.02796 12.2599C5.02796 11.444 5.16486 10.6553 5.41417 9.91383V6.7533H1.31283C0.472675 8.40943 0 10.2788 0 12.2599C0 14.2409 0.474116 16.1104 1.31283 17.7665L5.41417 14.606C5.16486 13.8645 5.02796 13.0758 5.02796 12.2599Z" fill="#FABB05"/>
<path d="M12.3455 4.85244C14.1656 4.85244 15.7955 5.4751 17.0823 6.69179L20.6058 3.19489C18.4658 1.21526 15.6758 0 12.3455 0C7.52216 0 3.34444 2.74829 1.3125 6.75334L5.41384 9.91388C6.39234 7.00814 9.12465 4.85244 12.3455 4.85244Z" fill="#E94235"/>
</svg>
