<svg width="150" height="150" viewBox="0 0 150 150" fill="none" xmlns="http://www.w3.org/2000/svg">
<g clip-path="url(#clip0_127_9857)">
<path d="M150 0H0V150H150V0Z" fill="white"/>
<mask id="mask0_127_9857" style="mask-type:luminance" maskUnits="userSpaceOnUse" x="5" y="5" width="140" height="140">
<path d="M5.39844 53.3999H10.1984V50.9999C10.1984 50.3634 9.94558 49.7529 9.4955 49.3028C9.04541 48.8528 8.43496 48.5999 7.79844 48.5999C7.16192 48.5999 6.55147 48.8528 6.10138 49.3028C5.65129 49.7529 5.39844 50.3634 5.39844 50.9999" fill="white"/>
<path d="M10.1992 58.2V53.4H5.39922L5.39922 55.8C5.39922 56.4365 5.65207 57.0469 6.10216 57.497C6.55225 57.9471 7.1627 58.2 7.79922 58.2" fill="white"/>
<path d="M5.39844 72.6001H10.1984V70.2001C10.1984 69.5636 9.94558 68.9531 9.4955 68.503C9.04541 68.053 8.43496 67.8001 7.79844 67.8001C7.16192 67.8001 6.55147 68.053 6.10138 68.503C5.65129 68.9531 5.39844 69.5636 5.39844 70.2001" fill="white"/>
<path d="M10.1984 72.6001H5.39844V77.4001H10.1984V72.6001Z" fill="white"/>
<path d="M10.1992 77.3999H5.39922V79.7999C5.39922 80.4364 5.65207 81.0469 6.10216 81.497C6.55225 81.947 7.1627 82.1999 7.79922 82.1999C8.43574 82.1999 9.04619 81.947 9.49628 81.497C9.94636 81.0469 10.1992 80.4364 10.1992 79.7999" fill="white"/>
<path d="M7.79844 91.8C9.12392 91.8 10.1984 90.7255 10.1984 89.4C10.1984 88.0745 9.12392 87 7.79844 87C6.47295 87 5.39844 88.0745 5.39844 89.4C5.39844 90.7255 6.47295 91.8 7.79844 91.8Z" fill="white"/>
<path d="M5.39844 101.4H10.1984V96.5999H7.79844C7.16192 96.5999 6.55147 96.8528 6.10138 97.3028C5.65129 97.7529 5.39844 98.3634 5.39844 98.9999" fill="white"/>
<path d="M10.1992 101.4H5.39922V103.8C5.39922 104.436 5.65207 105.047 6.10216 105.497C6.55225 105.947 7.1627 106.2 7.79922 106.2C8.43574 106.2 9.04619 105.947 9.49628 105.497C9.94636 105.047 10.1992 104.436 10.1992 103.8" fill="white"/>
<path d="M10.1992 53.3999V58.1999H12.5992C13.2357 58.1999 13.8462 57.947 14.2963 57.497C14.7464 57.0469 14.9992 56.4364 14.9992 55.7999C14.9992 55.1634 14.7464 54.5529 14.2963 54.1028C13.8462 53.6528 13.2357 53.3999 12.5992 53.3999" fill="white"/>
<path d="M12.5992 67.8C13.9247 67.8 14.9992 66.7255 14.9992 65.4C14.9992 64.0745 13.9247 63 12.5992 63C11.2737 63 10.1992 64.0745 10.1992 65.4C10.1992 66.7255 11.2737 67.8 12.5992 67.8Z" fill="white"/>
<path d="M14.9992 72.6001H10.1992V77.4001H14.9992V72.6001Z" fill="white"/>
<path d="M12.5992 87C13.9247 87 14.9992 85.9254 14.9992 84.6C14.9992 83.2745 13.9247 82.2 12.5992 82.2C11.2737 82.2 10.1992 83.2745 10.1992 84.6C10.1992 85.9254 11.2737 87 12.5992 87Z" fill="white"/>
<path d="M10.1992 96.6001V101.4H12.5992C13.2357 101.4 13.8462 101.147 14.2963 100.697C14.7464 100.247 14.9992 99.6366 14.9992 99.0001C14.9992 98.3636 14.7464 97.7531 14.2963 97.303C13.8462 96.853 13.2357 96.6001 12.5992 96.6001" fill="white"/>
<path d="M15 48.6001H19.8V46.2001C19.8 45.5636 19.5471 44.9531 19.0971 44.503C18.647 44.053 18.0365 43.8001 17.4 43.8001C16.7635 43.8001 16.153 44.053 15.7029 44.503C15.2529 44.9531 15 45.5636 15 46.2001" fill="white"/>
<path d="M19.7988 53.3999V48.5999H14.9988V50.9999C14.9988 51.6364 15.2517 52.2469 15.7018 52.697C16.1519 53.147 16.7623 53.3999 17.3988 53.3999" fill="white"/>
<path d="M19.8 72.6001H15V77.4001H19.8V72.6001Z" fill="white"/>
<path d="M15 91.8H19.8V89.4C19.8 88.7635 19.5471 88.1531 19.0971 87.703C18.647 87.2529 18.0365 87 17.4 87C16.7635 87 16.153 87.2529 15.7029 87.703C15.2529 88.1531 15 88.7635 15 89.4" fill="white"/>
<path d="M19.7988 96.6001V91.8001H14.9988V94.2001C14.9988 94.8366 15.2517 95.4471 15.7018 95.8972C16.1519 96.3472 16.7623 96.6001 17.3988 96.6001" fill="white"/>
<path d="M24.5988 48.6001H19.7988V53.4001H24.5988V48.6001Z" fill="white"/>
<path d="M19.7988 63H24.5988V58.2H22.1988C21.5623 58.2 20.9519 58.4529 20.5018 58.9029C20.0517 59.353 19.7988 59.9635 19.7988 60.6" fill="white"/>
<path d="M24.5988 63H19.7988V67.8H24.5988V63Z" fill="white"/>
<path d="M24.5988 67.8H19.7988V72.6H24.5988V67.8Z" fill="white"/>
<path d="M24.5988 72.6001H19.7988V77.4001H24.5988V72.6001Z" fill="white"/>
<path d="M24.5988 91.8H19.7988V96.6H24.5988V91.8Z" fill="white"/>
<path d="M24.5996 48.6001H29.3996V43.8001H26.9996C26.3631 43.8001 25.7526 44.053 25.3026 44.503C24.8525 44.9531 24.5996 45.5636 24.5996 46.2001" fill="white"/>
<path d="M29.3996 48.6001H24.5996V53.4001H29.3996V48.6001Z" fill="white"/>
<path d="M29.3996 53.3999H24.5996V58.1999H29.3996V53.3999Z" fill="white"/>
<path d="M29.3996 58.2H24.5996V63H29.3996V58.2Z" fill="white"/>
<path d="M24.5996 72.6001V77.4001H29.3996V75.0001C29.3996 74.3636 29.1468 73.7531 28.6967 73.303C28.2466 72.853 27.6361 72.6001 26.9996 72.6001" fill="white"/>
<path d="M29.3984 77.3999H24.5984V79.7999C24.5984 80.4364 24.8513 81.0469 25.3014 81.497C25.7515 81.947 26.3619 82.1999 26.9984 82.1999C27.635 82.1999 28.2454 81.947 28.6955 81.497C29.1456 81.0469 29.3984 80.4364 29.3984 79.7999" fill="white"/>
<path d="M24.5996 91.8H29.3996V87H26.9996C26.3631 87 25.7526 87.2529 25.3026 87.703C24.8525 88.1531 24.5996 88.7635 24.5996 89.4" fill="white"/>
<path d="M29.3984 91.8H24.5984V96.6H26.9984C27.635 96.6 28.2454 96.3472 28.6955 95.8971C29.1456 95.447 29.3984 94.8366 29.3984 94.2" fill="white"/>
<path d="M34.1984 43.8H29.3984V48.6H34.1984V43.8Z" fill="white"/>
<path d="M34.1992 48.6001H29.3992V53.4001H31.7992C32.4357 53.4001 33.0462 53.1472 33.4963 52.6972C33.9464 52.2471 34.1992 51.6366 34.1992 51.0001" fill="white"/>
<path d="M29.3984 58.2V63H34.1984V60.6C34.1984 59.9634 33.9456 59.353 33.4955 58.9029C33.0454 58.4528 32.435 58.2 31.7984 58.2" fill="white"/>
<path d="M34.1992 67.8V63H29.3992V65.4C29.3992 66.0366 29.6521 66.647 30.1022 67.0971C30.5523 67.5472 31.1627 67.8 31.7992 67.8" fill="white"/>
<path d="M29.3984 87V91.8H31.7984C32.435 91.8 33.0454 91.5471 33.4955 91.0971C33.9456 90.647 34.1984 90.0365 34.1984 89.4C34.1984 88.7635 33.9456 88.153 33.4955 87.7029C33.0454 87.2529 32.435 87 31.7984 87" fill="white"/>
<path d="M29.3984 101.4H34.1984V98.9999C34.1984 98.3634 33.9456 97.7529 33.4955 97.3028C33.0454 96.8528 32.435 96.5999 31.7984 96.5999C31.1619 96.5999 30.5515 96.8528 30.1014 97.3028C29.6513 97.7529 29.3984 98.3634 29.3984 98.9999" fill="white"/>
<path d="M34.1992 106.2V101.4H29.3992V103.8C29.3992 104.436 29.6521 105.047 30.1022 105.497C30.5523 105.947 31.1627 106.2 31.7992 106.2" fill="white"/>
<path d="M34.1992 43.8V48.6H36.5992C37.2357 48.6 37.8462 48.3472 38.2963 47.8971C38.7464 47.447 38.9992 46.8366 38.9992 46.2C38.9992 45.5635 38.7464 44.9531 38.2963 44.503C37.8462 44.0529 37.2357 43.8 36.5992 43.8" fill="white"/>
<path d="M36.5992 58.1999C37.9247 58.1999 38.9992 57.1254 38.9992 55.7999C38.9992 54.4744 37.9247 53.3999 36.5992 53.3999C35.2737 53.3999 34.1992 54.4744 34.1992 55.7999C34.1992 57.1254 35.2737 58.1999 36.5992 58.1999Z" fill="white"/>
<path d="M38.9992 63H34.1992V67.8H38.9992V63Z" fill="white"/>
<path d="M39 77.3999V72.5999H36.6C35.9635 72.5999 35.353 72.8528 34.9029 73.3028C34.4529 73.7529 34.2 74.3634 34.2 74.9999C34.2 75.6364 34.4529 76.2469 34.9029 76.697C35.353 77.147 35.9635 77.3999 36.6 77.3999" fill="white"/>
<path d="M39 87V82.2H36.6C35.9635 82.2 35.353 82.4529 34.9029 82.9029C34.4529 83.353 34.2 83.9635 34.2 84.6C34.2 85.2365 34.4529 85.847 34.9029 86.2971C35.353 86.7471 35.9635 87 36.6 87" fill="white"/>
<path d="M36.5992 96.6C37.9247 96.6 38.9992 95.5255 38.9992 94.2C38.9992 92.8746 37.9247 91.8 36.5992 91.8C35.2737 91.8 34.1992 92.8746 34.1992 94.2C34.1992 95.5255 35.2737 96.6 36.5992 96.6Z" fill="white"/>
<path d="M38.9992 101.4H34.1992V106.2H38.9992V101.4Z" fill="white"/>
<path d="M39 63V67.8H43.8V65.4C43.8 64.7635 43.5471 64.153 43.0971 63.7029C42.647 63.2529 42.0365 63 41.4 63" fill="white"/>
<path d="M43.8 67.8H39V72.6H43.8V67.8Z" fill="white"/>
<path d="M43.8 72.6001H39V77.4001H43.8V72.6001Z" fill="white"/>
<path d="M43.8 77.3999H39V82.1999H43.8V77.3999Z" fill="white"/>
<path d="M43.7988 82.2H38.9988V87H41.3988C42.0353 87 42.6458 86.7471 43.0959 86.297C43.546 85.8469 43.7988 85.2365 43.7988 84.6" fill="white"/>
<path d="M39 101.4H43.8V98.9999C43.8 98.3634 43.5471 97.7529 43.0971 97.3028C42.647 96.8528 42.0365 96.5999 41.4 96.5999C40.7635 96.5999 40.153 96.8528 39.7029 97.3028C39.2529 97.7529 39 98.3634 39 98.9999" fill="white"/>
<path d="M43.8 101.4H39V106.2H43.8V101.4Z" fill="white"/>
<path d="M48.5996 15V10.2H46.1996C45.5631 10.2 44.9526 10.4529 44.5026 10.9029C44.0525 11.353 43.7996 11.9635 43.7996 12.6C43.7996 13.2365 44.0525 13.847 44.5026 14.2971C44.9526 14.7471 45.5631 15 46.1996 15" fill="white"/>
<path d="M46.1988 29.4001C47.5243 29.4001 48.5988 28.3256 48.5988 27.0001C48.5988 25.6746 47.5243 24.6001 46.1988 24.6001C44.8733 24.6001 43.7988 25.6746 43.7988 27.0001C43.7988 28.3256 44.8733 29.4001 46.1988 29.4001Z" fill="white"/>
<path d="M46.1988 39C47.5243 39 48.5988 37.9254 48.5988 36.6C48.5988 35.2745 47.5243 34.2 46.1988 34.2C44.8733 34.2 43.7988 35.2745 43.7988 36.6C43.7988 37.9254 44.8733 39 46.1988 39Z" fill="white"/>
<path d="M48.5996 48.6001V43.8001H46.1996C45.5631 43.8001 44.9526 44.053 44.5026 44.503C44.0525 44.9531 43.7996 45.5636 43.7996 46.2001C43.7996 46.8366 44.0525 47.4471 44.5026 47.8972C44.9526 48.3472 45.5631 48.6001 46.1996 48.6001" fill="white"/>
<path d="M48.5996 63V58.2H46.1996C45.5631 58.2 44.9526 58.4529 44.5026 58.9029C44.0525 59.353 43.7996 59.9635 43.7996 60.6C43.7996 61.2365 44.0525 61.847 44.5026 62.2971C44.9526 62.7471 45.5631 63 46.1996 63" fill="white"/>
<path d="M43.7988 67.8V72.6H46.1988C46.8353 72.6 47.4458 72.3472 47.8959 71.8971C48.346 71.447 48.5988 70.8366 48.5988 70.2C48.5988 69.5635 48.346 68.9531 47.8959 68.503C47.4458 68.0529 46.8353 67.8 46.1988 67.8" fill="white"/>
<path d="M48.5988 77.3999H43.7988V82.1999H48.5988V77.3999Z" fill="white"/>
<path d="M43.7988 101.4V106.2H48.5988V103.8C48.5988 103.163 48.346 102.553 47.8959 102.103C47.4458 101.653 46.8353 101.4 46.1988 101.4" fill="white"/>
<path d="M48.5996 106.2H43.7996V108.6C43.7996 109.236 44.0525 109.847 44.5026 110.297C44.9526 110.747 45.5631 111 46.1996 111C46.8361 111 47.4466 110.747 47.8967 110.297C48.3468 109.847 48.5996 109.236 48.5996 108.6" fill="white"/>
<path d="M43.7988 120.6H48.5988V115.8H46.1988C45.5623 115.8 44.9519 116.053 44.5018 116.503C44.0517 116.953 43.7988 117.564 43.7988 118.2" fill="white"/>
<path d="M48.5996 125.4V120.6H43.7996V123C43.7996 123.636 44.0525 124.247 44.5026 124.697C44.9526 125.147 45.5631 125.4 46.1996 125.4" fill="white"/>
<path d="M48.5996 135V130.2H46.1996C45.5631 130.2 44.9526 130.453 44.5026 130.903C44.0525 131.353 43.7996 131.963 43.7996 132.6C43.7996 133.237 44.0525 133.847 44.5026 134.297C44.9526 134.747 45.5631 135 46.1996 135" fill="white"/>
<path d="M53.3996 10.2H48.5996V15H53.3996V10.2Z" fill="white"/>
<path d="M53.3984 19.8V15H48.5984V17.4C48.5984 18.0366 48.8513 18.647 49.3014 19.0971C49.7515 19.5472 50.3619 19.8 50.9984 19.8" fill="white"/>
<path d="M50.9996 34.1999C52.3251 34.1999 53.3996 33.1254 53.3996 31.7999C53.3996 30.4744 52.3251 29.3999 50.9996 29.3999C49.6741 29.3999 48.5996 30.4744 48.5996 31.7999C48.5996 33.1254 49.6741 34.1999 50.9996 34.1999Z" fill="white"/>
<path d="M48.5996 43.8H53.3996V41.4C53.3996 40.7635 53.1468 40.1531 52.6967 39.703C52.2466 39.2529 51.6361 39 50.9996 39C50.3631 39 49.7526 39.2529 49.3026 39.703C48.8525 40.1531 48.5996 40.7635 48.5996 41.4" fill="white"/>
<path d="M53.3996 43.8H48.5996V48.6H53.3996V43.8Z" fill="white"/>
<path d="M53.3984 53.3999V48.5999H48.5984V50.9999C48.5984 51.6364 48.8513 52.2469 49.3014 52.697C49.7515 53.147 50.3619 53.3999 50.9984 53.3999" fill="white"/>
<path d="M53.3996 58.2H48.5996V63H53.3996V58.2Z" fill="white"/>
<path d="M53.3996 77.3999H48.5996V82.1999H53.3996V77.3999Z" fill="white"/>
<path d="M53.3984 87V82.2H48.5984V84.6C48.5984 85.2365 48.8513 85.847 49.3014 86.2971C49.7515 86.7471 50.3619 87 50.9984 87" fill="white"/>
<path d="M48.5996 96.6001H53.3996V91.8001H50.9996C50.3631 91.8001 49.7526 92.053 49.3026 92.503C48.8525 92.9531 48.5996 93.5636 48.5996 94.2001" fill="white"/>
<path d="M53.3984 101.4V96.5999H48.5984V98.9999C48.5984 99.6364 48.8513 100.247 49.3014 100.697C49.7515 101.147 50.3619 101.4 50.9984 101.4" fill="white"/>
<path d="M48.5996 115.8H53.3996V113.4C53.3996 112.764 53.1468 112.153 52.6967 111.703C52.2466 111.253 51.6361 111 50.9996 111C50.3631 111 49.7526 111.253 49.3026 111.703C48.8525 112.153 48.5996 112.764 48.5996 113.4" fill="white"/>
<path d="M53.3996 115.8H48.5996V120.6H53.3996V115.8Z" fill="white"/>
<path d="M53.3996 120.6H48.5996V125.4H53.3996V120.6Z" fill="white"/>
<path d="M48.5996 130.2V135H53.3996V132.6C53.3996 131.963 53.1468 131.353 52.6967 130.903C52.2466 130.453 51.6361 130.2 50.9996 130.2" fill="white"/>
<path d="M53.3996 135H48.5996V139.8H53.3996V135Z" fill="white"/>
<path d="M53.3984 144.6V139.8H48.5984V142.2C48.5984 142.837 48.8513 143.447 49.3014 143.897C49.7515 144.347 50.3619 144.6 50.9984 144.6" fill="white"/>
<path d="M58.1984 10.2H53.3984V15H58.1984V10.2Z" fill="white"/>
<path d="M58.1984 15H53.3984V19.8H58.1984V15Z" fill="white"/>
<path d="M58.1992 19.8H53.3992V22.2C53.3992 22.8366 53.6521 23.447 54.1022 23.8971C54.5523 24.3472 55.1627 24.6 55.7992 24.6C56.4357 24.6 57.0462 24.3472 57.4963 23.8971C57.9464 23.447 58.1992 22.8366 58.1992 22.2" fill="white"/>
<path d="M55.7984 39C57.1239 39 58.1984 37.9254 58.1984 36.6C58.1984 35.2745 57.1239 34.2 55.7984 34.2C54.473 34.2 53.3984 35.2745 53.3984 36.6C53.3984 37.9254 54.473 39 55.7984 39Z" fill="white"/>
<path d="M58.1984 43.8H53.3984V48.6H58.1984V43.8Z" fill="white"/>
<path d="M58.1992 48.6001H53.3992V53.4001H55.7992C56.4357 53.4001 57.0462 53.1472 57.4963 52.6972C57.9464 52.2471 58.1992 51.6366 58.1992 51.0001" fill="white"/>
<path d="M58.1984 58.2H53.3984V63H58.1984V58.2Z" fill="white"/>
<path d="M53.3984 72.6001H58.1984V70.2001C58.1984 69.5636 57.9456 68.9531 57.4955 68.503C57.0454 68.053 56.435 67.8001 55.7984 67.8001C55.1619 67.8001 54.5515 68.053 54.1014 68.503C53.6513 68.9531 53.3984 69.5636 53.3984 70.2001" fill="white"/>
<path d="M58.1984 72.6001H53.3984V77.4001H58.1984V72.6001Z" fill="white"/>
<path d="M58.1984 77.3999H53.3984V82.1999H58.1984V77.3999Z" fill="white"/>
<path d="M58.1984 82.2H53.3984V87H58.1984V82.2Z" fill="white"/>
<path d="M58.1984 87H53.3984V91.8H58.1984V87Z" fill="white"/>
<path d="M58.1984 91.8H53.3984V96.6H58.1984V91.8Z" fill="white"/>
<path d="M58.1984 96.6001H53.3984V101.4H58.1984V96.6001Z" fill="white"/>
<path d="M58.1992 111V106.2H55.7992C55.1627 106.2 54.5522 106.453 54.1022 106.903C53.6521 107.353 53.3992 107.963 53.3992 108.6C53.3992 109.237 53.6521 109.847 54.1022 110.297C54.5522 110.747 55.1627 111 55.7992 111" fill="white"/>
<path d="M58.1984 120.6H53.3984V125.4H58.1984V120.6Z" fill="white"/>
<path d="M58.1984 139.8H53.3984V144.6H58.1984V139.8Z" fill="white"/>
<path d="M58.1992 10.2H62.9992V7.79995C62.9992 7.16343 62.7464 6.55298 62.2963 6.10289C61.8462 5.65281 61.2357 5.39995 60.5992 5.39995C59.9627 5.39995 59.3522 5.65281 58.9022 6.10289C58.4521 6.55298 58.1992 7.16343 58.1992 7.79995" fill="white"/>
<path d="M62.9992 10.2H58.1992V15H62.9992V10.2Z" fill="white"/>
<path d="M62.9992 15H58.1992V19.8H62.9992V15Z" fill="white"/>
<path d="M60.5992 34.1999C61.9247 34.1999 62.9992 33.1254 62.9992 31.7999C62.9992 30.4744 61.9247 29.3999 60.5992 29.3999C59.2737 29.3999 58.1992 30.4744 58.1992 31.7999C58.1992 33.1254 59.2737 34.1999 60.5992 34.1999Z" fill="white"/>
<path d="M62.9992 43.8H58.1992V48.6H62.9992V43.8Z" fill="white"/>
<path d="M58.1992 58.2H62.9992V53.4H60.5992C59.9627 53.4 59.3522 53.6528 58.9022 54.1029C58.4521 54.553 58.1992 55.1634 58.1992 55.8" fill="white"/>
<path d="M62.9992 58.2H58.1992V63H62.9992V58.2Z" fill="white"/>
<path d="M62.9992 77.3999H58.1992V82.1999H62.9992V77.3999Z" fill="white"/>
<path d="M62.9992 87H58.1992V91.8H62.9992V87Z" fill="white"/>
<path d="M62.9992 91.8H58.1992V96.6H62.9992V91.8Z" fill="white"/>
<path d="M62.9992 96.6001H58.1992V101.4H62.9992V96.6001Z" fill="white"/>
<path d="M62.9992 101.4H58.1992V106.2H62.9992V101.4Z" fill="white"/>
<path d="M63 106.2H58.2V111H60.6C61.2365 111 61.847 110.747 62.2971 110.297C62.7471 109.847 63 109.236 63 108.6" fill="white"/>
<path d="M58.1992 120.6V125.4H62.9992V123C62.9992 122.364 62.7464 121.753 62.2963 121.303C61.8462 120.853 61.2357 120.6 60.5992 120.6" fill="white"/>
<path d="M63 125.4H58.2V127.8C58.2 128.436 58.4529 129.047 58.9029 129.497C59.353 129.947 59.9635 130.2 60.6 130.2C61.2365 130.2 61.847 129.947 62.2971 129.497C62.7471 129.047 63 128.436 63 127.8" fill="white"/>
<path d="M58.1992 139.8H62.9992V137.4C62.9992 136.764 62.7464 136.153 62.2963 135.703C61.8462 135.253 61.2357 135 60.5992 135C59.9627 135 59.3522 135.253 58.9022 135.703C58.4521 136.153 58.1992 136.764 58.1992 137.4" fill="white"/>
<path d="M62.9992 139.8H58.1992V144.6H62.9992V139.8Z" fill="white"/>
<path d="M63 15V19.8H65.4C66.0365 19.8 66.647 19.5471 67.0971 19.0971C67.5471 18.647 67.8 18.0365 67.8 17.4C67.8 16.7635 67.5471 16.153 67.0971 15.7029C66.647 15.2529 66.0365 15 65.4 15" fill="white"/>
<path d="M67.7988 29.3999V24.5999H65.3988C64.7623 24.5999 64.1519 24.8528 63.7018 25.3028C63.2517 25.7529 62.9988 26.3634 62.9988 26.9999C62.9988 27.6364 63.2517 28.2469 63.7018 28.697C64.1519 29.147 64.7623 29.3999 65.3988 29.3999" fill="white"/>
<path d="M65.4 39C66.7255 39 67.8 37.9254 67.8 36.6C67.8 35.2745 66.7255 34.2 65.4 34.2C64.0745 34.2 63 35.2745 63 36.6C63 37.9254 64.0745 39 65.4 39Z" fill="white"/>
<path d="M63 43.8V48.6H65.4C66.0365 48.6 66.647 48.3472 67.0971 47.8971C67.5471 47.447 67.8 46.8366 67.8 46.2C67.8 45.5635 67.5471 44.9531 67.0971 44.503C66.647 44.0529 66.0365 43.8 65.4 43.8" fill="white"/>
<path d="M63 53.3999V58.1999H67.8V55.7999C67.8 55.1634 67.5471 54.5529 67.0971 54.1028C66.647 53.6528 66.0365 53.3999 65.4 53.3999" fill="white"/>
<path d="M67.8 58.2H63V63H67.8V58.2Z" fill="white"/>
<path d="M67.7988 67.8V63H62.9988V65.4C62.9988 66.0366 63.2517 66.647 63.7018 67.0971C64.1519 67.5472 64.7623 67.8 65.3988 67.8" fill="white"/>
<path d="M63 77.3999H67.8V74.9999C67.8 74.3634 67.5471 73.7529 67.0971 73.3028C66.647 72.8528 66.0365 72.5999 65.4 72.5999C64.7635 72.5999 64.153 72.8528 63.7029 73.3028C63.2529 73.7529 63 74.3634 63 74.9999" fill="white"/>
<path d="M67.8 77.3999H63V82.1999H67.8V77.3999Z" fill="white"/>
<path d="M67.8 82.2H63V87H67.8V82.2Z" fill="white"/>
<path d="M67.8 87H63V91.8H67.8V87Z" fill="white"/>
<path d="M67.8 91.8H63V96.6H67.8V91.8Z" fill="white"/>
<path d="M67.8 101.4H63V106.2H67.8V101.4Z" fill="white"/>
<path d="M65.4 120.6C66.7255 120.6 67.8 119.526 67.8 118.2C67.8 116.875 66.7255 115.8 65.4 115.8C64.0745 115.8 63 116.875 63 118.2C63 119.526 64.0745 120.6 65.4 120.6Z" fill="white"/>
<path d="M67.7988 135V130.2H65.3988C64.7623 130.2 64.1519 130.453 63.7018 130.903C63.2517 131.353 62.9988 131.963 62.9988 132.6C62.9988 133.237 63.2517 133.847 63.7018 134.297C64.1519 134.747 64.7623 135 65.3988 135" fill="white"/>
<path d="M67.8 139.8H63V144.6H67.8V139.8Z" fill="white"/>
<path d="M72.5988 24.6001H67.7988V29.4001H72.5988V24.6001Z" fill="white"/>
<path d="M72.5996 34.2V29.4H67.7996V31.8C67.7996 32.4365 68.0525 33.0469 68.5026 33.497C68.9526 33.9471 69.5631 34.2 70.1996 34.2" fill="white"/>
<path d="M67.7988 58.2V63H72.5988V60.6C72.5988 59.9634 72.346 59.353 71.8959 58.9029C71.4458 58.4528 70.8353 58.2 70.1988 58.2" fill="white"/>
<path d="M72.5996 63H67.7996V67.8H70.1996C70.8361 67.8 71.4466 67.5471 71.8967 67.0971C72.3468 66.647 72.5996 66.0365 72.5996 65.4" fill="white"/>
<path d="M72.5988 77.3999H67.7988V82.1999H72.5988V77.3999Z" fill="white"/>
<path d="M72.5996 82.2H67.7996V87H70.1996C70.8361 87 71.4466 86.7471 71.8967 86.297C72.3468 85.8469 72.5996 85.2365 72.5996 84.6" fill="white"/>
<path d="M67.7988 91.8V96.6H70.1988C70.8353 96.6 71.4458 96.3472 71.8959 95.8971C72.346 95.447 72.5988 94.8366 72.5988 94.2C72.5988 93.5635 72.346 92.9531 71.8959 92.503C71.4458 92.0529 70.8353 91.8 70.1988 91.8" fill="white"/>
<path d="M67.7988 101.4V106.2H70.1988C70.8353 106.2 71.4458 105.947 71.8959 105.497C72.346 105.047 72.5988 104.436 72.5988 103.8C72.5988 103.163 72.346 102.553 71.8959 102.103C71.4458 101.653 70.8353 101.4 70.1988 101.4" fill="white"/>
<path d="M72.5996 115.8V111H70.1996C69.5631 111 68.9526 111.253 68.5026 111.703C68.0525 112.153 67.7996 112.764 67.7996 113.4C67.7996 114.037 68.0525 114.647 68.5026 115.097C68.9526 115.547 69.5631 115.8 70.1996 115.8" fill="white"/>
<path d="M72.5996 125.4V120.6H70.1996C69.5631 120.6 68.9526 120.853 68.5026 121.303C68.0525 121.753 67.7996 122.363 67.7996 123C67.7996 123.636 68.0525 124.247 68.5026 124.697C68.9526 125.147 69.5631 125.4 70.1996 125.4" fill="white"/>
<path d="M67.7988 130.2V135H70.1988C70.8353 135 71.4458 134.747 71.8959 134.297C72.346 133.847 72.5988 133.236 72.5988 132.6C72.5988 131.963 72.346 131.353 71.8959 130.903C71.4458 130.453 70.8353 130.2 70.1988 130.2" fill="white"/>
<path d="M72.5988 139.8H67.7988V144.6H72.5988V139.8Z" fill="white"/>
<path d="M72.5996 24.6001H77.3996V22.2001C77.3996 21.5636 77.1468 20.9531 76.6967 20.503C76.2466 20.053 75.6361 19.8001 74.9996 19.8001C74.3631 19.8001 73.7526 20.053 73.3026 20.503C72.8525 20.9531 72.5996 21.5636 72.5996 22.2001" fill="white"/>
<path d="M77.3996 24.6001H72.5996V29.4001H77.3996V24.6001Z" fill="white"/>
<path d="M77.3996 29.3999H72.5996V34.1999H77.3996V29.3999Z" fill="white"/>
<path d="M77.3984 34.2H72.5984V36.6C72.5984 37.2365 72.8513 37.8469 73.3014 38.297C73.7515 38.7471 74.3619 39 74.9984 39C75.635 39 76.2454 38.7471 76.6955 38.297C77.1456 37.8469 77.3984 37.2365 77.3984 36.6" fill="white"/>
<path d="M77.3984 48.6001V43.8001H74.9984C74.3619 43.8001 73.7515 44.053 73.3014 44.503C72.8513 44.9531 72.5984 45.5636 72.5984 46.2001C72.5984 46.8366 72.8513 47.4471 73.3014 47.8972C73.7515 48.3472 74.3619 48.6001 74.9984 48.6001" fill="white"/>
<path d="M77.3984 58.2V53.4H74.9984C74.3619 53.4 73.7515 53.6528 73.3014 54.1029C72.8513 54.553 72.5984 55.1634 72.5984 55.8C72.5984 56.4365 72.8513 57.0469 73.3014 57.497C73.7515 57.9471 74.3619 58.2 74.9984 58.2" fill="white"/>
<path d="M72.5996 72.6001H77.3996V67.8001H74.9996C74.3631 67.8001 73.7526 68.053 73.3026 68.503C72.8525 68.9531 72.5996 69.5636 72.5996 70.2001" fill="white"/>
<path d="M77.3996 72.6001H72.5996V77.4001H77.3996V72.6001Z" fill="white"/>
<path d="M77.3996 77.3999H72.5996V82.1999H77.3996V77.3999Z" fill="white"/>
<path d="M77.3984 91.8V87H74.9984C74.3619 87 73.7515 87.2529 73.3014 87.703C72.8513 88.1531 72.5984 88.7635 72.5984 89.4C72.5984 90.0366 72.8513 90.647 73.3014 91.0971C73.7515 91.5472 74.3619 91.8 74.9984 91.8" fill="white"/>
<path d="M72.5996 111H77.3996V106.2H74.9996C74.3631 106.2 73.7526 106.453 73.3026 106.903C72.8525 107.353 72.5996 107.963 72.5996 108.6" fill="white"/>
<path d="M77.3984 111H72.5984V115.8H74.9984C75.635 115.8 76.2454 115.547 76.6955 115.097C77.1456 114.647 77.3984 114.037 77.3984 113.4" fill="white"/>
<path d="M72.5996 120.6V125.4H74.9996C75.6361 125.4 76.2466 125.147 76.6967 124.697C77.1468 124.247 77.3996 123.637 77.3996 123C77.3996 122.364 77.1468 121.753 76.6967 121.303C76.2466 120.853 75.6361 120.6 74.9996 120.6" fill="white"/>
<path d="M72.5996 139.8V144.6H74.9996C75.6361 144.6 76.2466 144.347 76.6967 143.897C77.1468 143.447 77.3996 142.837 77.3996 142.2C77.3996 141.564 77.1468 140.953 76.6967 140.503C76.2466 140.053 75.6361 139.8 74.9996 139.8" fill="white"/>
<path d="M77.3984 15H82.1984V10.2H79.7984C79.1619 10.2 78.5515 10.4529 78.1014 10.9029C77.6513 11.353 77.3984 11.9635 77.3984 12.6" fill="white"/>
<path d="M82.1992 19.8V15H77.3992V17.4C77.3992 18.0366 77.6521 18.647 78.1022 19.0971C78.5522 19.5472 79.1627 19.8 79.7992 19.8" fill="white"/>
<path d="M82.1984 24.6001H77.3984V29.4001H82.1984V24.6001Z" fill="white"/>
<path d="M77.3984 43.8H82.1984V41.4C82.1984 40.7635 81.9456 40.1531 81.4955 39.703C81.0454 39.2529 80.435 39 79.7984 39C79.1619 39 78.5515 39.2529 78.1014 39.703C77.6513 40.1531 77.3984 40.7635 77.3984 41.4" fill="white"/>
<path d="M82.1984 43.8H77.3984V48.6H82.1984V43.8Z" fill="white"/>
<path d="M82.1984 48.6001H77.3984V53.4001H82.1984V48.6001Z" fill="white"/>
<path d="M82.1984 53.3999H77.3984V58.1999H82.1984V53.3999Z" fill="white"/>
<path d="M82.1992 63V58.2H77.3992V60.6C77.3992 61.2365 77.6521 61.847 78.1022 62.2971C78.5522 62.7471 79.1627 63 79.7992 63" fill="white"/>
<path d="M77.3984 67.8V72.6H82.1984V70.2C82.1984 69.5635 81.9456 68.9531 81.4955 68.503C81.0454 68.0529 80.435 67.8 79.7984 67.8" fill="white"/>
<path d="M82.1984 72.6001H77.3984V77.4001H82.1984V72.6001Z" fill="white"/>
<path d="M82.1984 77.3999H77.3984V82.1999H82.1984V77.3999Z" fill="white"/>
<path d="M82.1984 82.2H77.3984V87H82.1984V82.2Z" fill="white"/>
<path d="M82.1984 87H77.3984V91.8H82.1984V87Z" fill="white"/>
<path d="M82.1992 96.6001V91.8001H77.3992V94.2001C77.3992 94.8366 77.6521 95.4471 78.1022 95.8972C78.5522 96.3472 79.1627 96.6001 79.7992 96.6001" fill="white"/>
<path d="M77.3984 106.2H82.1984V101.4H79.7984C79.1619 101.4 78.5515 101.653 78.1014 102.103C77.6513 102.553 77.3984 103.163 77.3984 103.8" fill="white"/>
<path d="M82.1984 106.2H77.3984V111H82.1984V106.2Z" fill="white"/>
<path d="M82.1992 120.6V115.8H79.7992C79.1627 115.8 78.5522 116.053 78.1022 116.503C77.6521 116.953 77.3992 117.564 77.3992 118.2C77.3992 118.837 77.6521 119.447 78.1022 119.897C78.5522 120.347 79.1627 120.6 79.7992 120.6" fill="white"/>
<path d="M79.7984 130.2C81.1239 130.2 82.1984 129.125 82.1984 127.8C82.1984 126.474 81.1239 125.4 79.7984 125.4C78.473 125.4 77.3984 126.474 77.3984 127.8C77.3984 129.125 78.473 130.2 79.7984 130.2Z" fill="white"/>
<path d="M79.7984 139.8C81.1239 139.8 82.1984 138.725 82.1984 137.4C82.1984 136.075 81.1239 135 79.7984 135C78.473 135 77.3984 136.075 77.3984 137.4C77.3984 138.725 78.473 139.8 79.7984 139.8Z" fill="white"/>
<path d="M82.1992 10.2V15H86.9992V12.6C86.9992 11.9634 86.7464 11.353 86.2963 10.9029C85.8462 10.4528 85.2357 10.2 84.5992 10.2" fill="white"/>
<path d="M87 15H82.2V19.8H84.6C85.2365 19.8 85.847 19.5471 86.2971 19.0971C86.7471 18.647 87 18.0365 87 17.4" fill="white"/>
<path d="M82.1992 24.6001V29.4001H86.9992V27.0001C86.9992 26.3636 86.7464 25.7531 86.2963 25.303C85.8462 24.853 85.2357 24.6001 84.5992 24.6001" fill="white"/>
<path d="M86.9992 29.3999H82.1992V34.1999H86.9992V29.3999Z" fill="white"/>
<path d="M87 34.2H82.2V36.6C82.2 37.2365 82.4529 37.8469 82.9029 38.297C83.353 38.7471 83.9635 39 84.6 39C85.2365 39 85.847 38.7471 86.2971 38.297C86.7471 37.8469 87 37.2365 87 36.6" fill="white"/>
<path d="M82.1992 43.8V48.6H86.9992V46.2C86.9992 45.5635 86.7464 44.9531 86.2963 44.503C85.8462 44.0529 85.2357 43.8 84.5992 43.8" fill="white"/>
<path d="M86.9992 48.6001H82.1992V53.4001H86.9992V48.6001Z" fill="white"/>
<path d="M86.9992 58.2H82.1992V63H86.9992V58.2Z" fill="white"/>
<path d="M87 63H82.2V65.4C82.2 66.0365 82.4529 66.647 82.9029 67.0971C83.353 67.5471 83.9635 67.8 84.6 67.8C85.2365 67.8 85.847 67.5471 86.2971 67.0971C86.7471 66.647 87 66.0365 87 65.4" fill="white"/>
<path d="M86.9992 72.6001H82.1992V77.4001H86.9992V72.6001Z" fill="white"/>
<path d="M82.1992 91.8V96.6H86.9992V94.2C86.9992 93.5635 86.7464 92.9531 86.2963 92.503C85.8462 92.0529 85.2357 91.8 84.5992 91.8" fill="white"/>
<path d="M86.9992 96.6001H82.1992V101.4H86.9992V96.6001Z" fill="white"/>
<path d="M86.9992 101.4H82.1992V106.2H86.9992V101.4Z" fill="white"/>
<path d="M87 106.2H82.2V111H84.6C85.2365 111 85.847 110.747 86.2971 110.297C86.7471 109.847 87 109.236 87 108.6" fill="white"/>
<path d="M86.9992 115.8H82.1992V120.6H86.9992V115.8Z" fill="white"/>
<path d="M87 125.4V120.6H82.2V123C82.2 123.636 82.4529 124.247 82.9029 124.697C83.353 125.147 83.9635 125.4 84.6 125.4" fill="white"/>
<path d="M89.4 10.1999C90.7255 10.1999 91.8 9.12539 91.8 7.7999C91.8 6.47442 90.7255 5.3999 89.4 5.3999C88.0745 5.3999 87 6.47442 87 7.7999C87 9.12539 88.0745 10.1999 89.4 10.1999Z" fill="white"/>
<path d="M91.7988 24.6001V19.8001H89.3988C88.7623 19.8001 88.1519 20.053 87.7018 20.503C87.2517 20.9531 86.9988 21.5636 86.9988 22.2001C86.9988 22.8366 87.2517 23.4471 87.7018 23.8972C88.1519 24.3472 88.7623 24.6001 89.3988 24.6001" fill="white"/>
<path d="M87 48.6001V53.4001H91.8V51.0001C91.8 50.3636 91.5471 49.7531 91.0971 49.303C90.647 48.853 90.0365 48.6001 89.4 48.6001" fill="white"/>
<path d="M91.8 53.3999H87V58.1999H91.8V53.3999Z" fill="white"/>
<path d="M91.7988 58.2H86.9988V63H89.3988C90.0353 63 90.6458 62.7471 91.0959 62.297C91.546 61.8469 91.7988 61.2365 91.7988 60.6" fill="white"/>
<path d="M91.8 72.6001H87V77.4001H91.8V72.6001Z" fill="white"/>
<path d="M87 87H91.8V82.2H89.4C88.7635 82.2 88.153 82.4529 87.7029 82.9029C87.2529 83.353 87 83.9635 87 84.6" fill="white"/>
<path d="M91.7988 87H86.9988V89.4C86.9988 90.0365 87.2517 90.647 87.7018 91.0971C88.1519 91.5471 88.7623 91.8 89.3988 91.8C90.0353 91.8 90.6458 91.5471 91.0959 91.0971C91.546 90.647 91.7988 90.0365 91.7988 89.4" fill="white"/>
<path d="M87 96.6001V101.4H91.8V99.0001C91.8 98.3636 91.5471 97.7531 91.0971 97.303C90.647 96.853 90.0365 96.6001 89.4 96.6001" fill="white"/>
<path d="M91.7988 101.4H86.9988V106.2H89.3988C90.0353 106.2 90.6458 105.947 91.0959 105.497C91.546 105.047 91.7988 104.436 91.7988 103.8" fill="white"/>
<path d="M87 115.8H91.8V113.4C91.8 112.764 91.5471 112.153 91.0971 111.703C90.647 111.253 90.0365 111 89.4 111C88.7635 111 88.153 111.253 87.7029 111.703C87.2529 112.153 87 112.764 87 113.4" fill="white"/>
<path d="M91.8 115.8H87V120.6H91.8V115.8Z" fill="white"/>
<path d="M91.8 120.6H87V125.4H91.8V120.6Z" fill="white"/>
<path d="M91.8 125.4H87V130.2H91.8V125.4Z" fill="white"/>
<path d="M91.7988 130.2H86.9988V132.6C86.9988 133.236 87.2517 133.847 87.7018 134.297C88.1519 134.747 88.7623 135 89.3988 135C90.0353 135 90.6458 134.747 91.0959 134.297C91.546 133.847 91.7988 133.236 91.7988 132.6" fill="white"/>
<path d="M91.7988 144.6V139.8H89.3988C88.7623 139.8 88.1519 140.053 87.7018 140.503C87.2517 140.953 86.9988 141.564 86.9988 142.2C86.9988 142.837 87.2517 143.447 87.7018 143.897C88.1519 144.347 88.7623 144.6 89.3988 144.6" fill="white"/>
<path d="M96.5988 19.8H91.7988V24.6H96.5988V19.8Z" fill="white"/>
<path d="M96.5988 24.6001H91.7988V29.4001H96.5988V24.6001Z" fill="white"/>
<path d="M96.5988 29.3999H91.7988V34.1999H96.5988V29.3999Z" fill="white"/>
<path d="M96.5996 34.2H91.7996V36.6C91.7996 37.2365 92.0525 37.8469 92.5026 38.297C92.9526 38.7471 93.5631 39 94.1996 39C94.8361 39 95.4466 38.7471 95.8967 38.297C96.3468 37.8469 96.5996 37.2365 96.5996 36.6" fill="white"/>
<path d="M96.5996 67.8V63H94.1996C93.5631 63 92.9526 63.2529 92.5026 63.703C92.0525 64.1531 91.7996 64.7635 91.7996 65.4C91.7996 66.0366 92.0525 66.647 92.5026 67.0971C92.9526 67.5472 93.5631 67.8 94.1996 67.8" fill="white"/>
<path d="M96.5988 72.6001H91.7988V77.4001H96.5988V72.6001Z" fill="white"/>
<path d="M91.7988 82.2V87H94.1988C94.8353 87 95.4458 86.7471 95.8959 86.297C96.346 85.8469 96.5988 85.2365 96.5988 84.6C96.5988 83.9634 96.346 83.353 95.8959 82.9029C95.4458 82.4528 94.8353 82.2 94.1988 82.2" fill="white"/>
<path d="M96.5996 96.6001V91.8001H94.1996C93.5631 91.8001 92.9526 92.053 92.5026 92.503C92.0525 92.9531 91.7996 93.5636 91.7996 94.2001C91.7996 94.8366 92.0525 95.4471 92.5026 95.8972C92.9526 96.3472 93.5631 96.6001 94.1996 96.6001" fill="white"/>
<path d="M96.5988 139.8H91.7988V144.6H96.5988V139.8Z" fill="white"/>
<path d="M101.4 19.8H96.5996V24.6H101.4V19.8Z" fill="white"/>
<path d="M101.4 24.6001H96.5996V29.4001H101.4V24.6001Z" fill="white"/>
<path d="M98.9996 48.6C100.325 48.6 101.4 47.5255 101.4 46.2C101.4 44.8746 100.325 43.8 98.9996 43.8C97.6741 43.8 96.5996 44.8746 96.5996 46.2C96.5996 47.5255 97.6741 48.6 98.9996 48.6Z" fill="white"/>
<path d="M96.5996 63V67.8H98.9996C99.6361 67.8 100.247 67.5471 100.697 67.0971C101.147 66.647 101.4 66.0365 101.4 65.4C101.4 64.7635 101.147 64.153 100.697 63.7029C100.247 63.2529 99.6361 63 98.9996 63" fill="white"/>
<path d="M101.4 72.6001H96.5996V77.4001H101.4V72.6001Z" fill="white"/>
<path d="M96.5996 91.8H101.4V89.4C101.4 88.7635 101.147 88.1531 100.697 87.703C100.247 87.2529 99.6361 87 98.9996 87C98.3631 87 97.7526 87.2529 97.3026 87.703C96.8525 88.1531 96.5996 88.7635 96.5996 89.4" fill="white"/>
<path d="M101.398 91.8H96.5984V96.6H98.9984C99.635 96.6 100.245 96.3472 100.695 95.8971C101.146 95.447 101.398 94.8366 101.398 94.2" fill="white"/>
<path d="M101.398 106.2V101.4H98.9984C98.3619 101.4 97.7515 101.653 97.3014 102.103C96.8513 102.553 96.5984 103.163 96.5984 103.8C96.5984 104.436 96.8513 105.047 97.3014 105.497C97.7515 105.947 98.3619 106.2 98.9984 106.2" fill="white"/>
<path d="M96.5996 120.6H101.4V115.8H98.9996C98.3631 115.8 97.7526 116.053 97.3026 116.503C96.8525 116.953 96.5996 117.564 96.5996 118.2" fill="white"/>
<path d="M101.4 120.6H96.5996V125.4H101.4V120.6Z" fill="white"/>
<path d="M101.398 130.2V125.4H96.5984V127.8C96.5984 128.436 96.8513 129.047 97.3014 129.497C97.7515 129.947 98.3619 130.2 98.9984 130.2" fill="white"/>
<path d="M101.4 139.8H96.5996V144.6H101.4V139.8Z" fill="white"/>
<path d="M101.398 10.2H106.198V7.79995C106.198 7.16343 105.946 6.55298 105.495 6.10289C105.045 5.65281 104.435 5.39995 103.798 5.39995C103.162 5.39995 102.551 5.65281 102.101 6.10289C101.651 6.55298 101.398 7.16343 101.398 7.79995" fill="white"/>
<path d="M106.198 10.2H101.398V15H106.198V10.2Z" fill="white"/>
<path d="M106.198 15H101.398V19.8H106.198V15Z" fill="white"/>
<path d="M106.198 19.8H101.398V24.6H106.198V19.8Z" fill="white"/>
<path d="M106.199 24.6001H101.399V29.4001H103.799C104.436 29.4001 105.046 29.1472 105.496 28.6972C105.946 28.2471 106.199 27.6366 106.199 27.0001" fill="white"/>
<path d="M101.398 39H106.198V36.6C106.198 35.9635 105.946 35.353 105.495 34.9029C105.045 34.4529 104.435 34.2 103.798 34.2C103.162 34.2 102.551 34.4529 102.101 34.9029C101.651 35.353 101.398 35.9635 101.398 36.6" fill="white"/>
<path d="M106.199 39H101.399V41.4C101.399 42.0365 101.652 42.647 102.102 43.0971C102.552 43.5471 103.163 43.8 103.799 43.8C104.436 43.8 105.046 43.5471 105.496 43.0971C105.946 42.647 106.199 42.0365 106.199 41.4" fill="white"/>
<path d="M106.199 53.3999V48.5999H103.799C103.163 48.5999 102.552 48.8528 102.102 49.3028C101.652 49.7529 101.399 50.3634 101.399 50.9999C101.399 51.6364 101.652 52.2469 102.102 52.697C102.552 53.147 103.163 53.3999 103.799 53.3999" fill="white"/>
<path d="M101.398 72.6001H106.198V70.2001C106.198 69.5636 105.946 68.9531 105.495 68.503C105.045 68.053 104.435 67.8001 103.798 67.8001C103.162 67.8001 102.551 68.053 102.101 68.503C101.651 68.9531 101.398 69.5636 101.398 70.2001" fill="white"/>
<path d="M106.198 72.6001H101.398V77.4001H106.198V72.6001Z" fill="white"/>
<path d="M106.199 82.2V77.4H101.399V79.8C101.399 80.4365 101.652 81.0469 102.102 81.497C102.552 81.9471 103.163 82.2 103.799 82.2" fill="white"/>
<path d="M101.398 101.4H106.198V98.9999C106.198 98.3634 105.946 97.7529 105.495 97.3028C105.045 96.8528 104.435 96.5999 103.798 96.5999C103.162 96.5999 102.551 96.8528 102.101 97.3028C101.651 97.7529 101.398 98.3634 101.398 98.9999" fill="white"/>
<path d="M106.198 101.4H101.398V106.2H106.198V101.4Z" fill="white"/>
<path d="M106.198 106.2H101.398V111H106.198V106.2Z" fill="white"/>
<path d="M106.198 111H101.398V115.8H106.198V111Z" fill="white"/>
<path d="M106.198 115.8H101.398V120.6H106.198V115.8Z" fill="white"/>
<path d="M106.198 120.6H101.398V125.4H106.198V120.6Z" fill="white"/>
<path d="M106.199 125.4H101.399V130.2H103.799C104.436 130.2 105.046 129.947 105.496 129.497C105.946 129.047 106.199 128.436 106.199 127.8" fill="white"/>
<path d="M106.198 139.8H101.398V144.6H106.198V139.8Z" fill="white"/>
<path d="M106.199 48.6001H110.999V46.2001C110.999 45.5636 110.746 44.9531 110.296 44.503C109.846 44.053 109.236 43.8001 108.599 43.8001C107.963 43.8001 107.352 44.053 106.902 44.503C106.452 44.9531 106.199 45.5636 106.199 46.2001" fill="white"/>
<path d="M110.999 48.6001H106.199V53.4001H110.999V48.6001Z" fill="white"/>
<path d="M108.599 67.8C109.925 67.8 110.999 66.7255 110.999 65.4C110.999 64.0745 109.925 63 108.599 63C107.274 63 106.199 64.0745 106.199 65.4C106.199 66.7255 107.274 67.8 108.599 67.8Z" fill="white"/>
<path d="M110.999 77.3999H106.199V82.1999H110.999V77.3999Z" fill="white"/>
<path d="M110.999 82.2H106.199V87H110.999V82.2Z" fill="white"/>
<path d="M110.999 87H106.199V91.8H110.999V87Z" fill="white"/>
<path d="M111 96.6001V91.8001H106.2V94.2001C106.2 94.8366 106.453 95.4471 106.903 95.8972C107.353 96.3472 107.963 96.6001 108.6 96.6001" fill="white"/>
<path d="M110.999 101.4H106.199V106.2H110.999V101.4Z" fill="white"/>
<path d="M110.999 120.6H106.199V125.4H110.999V120.6Z" fill="white"/>
<path d="M106.199 135H110.999V132.6C110.999 131.963 110.746 131.353 110.296 130.903C109.846 130.453 109.236 130.2 108.599 130.2C107.963 130.2 107.352 130.453 106.902 130.903C106.452 131.353 106.199 131.963 106.199 132.6" fill="white"/>
<path d="M110.999 135H106.199V139.8H110.999V135Z" fill="white"/>
<path d="M110.999 139.8H106.199V144.6H110.999V139.8Z" fill="white"/>
<path d="M115.8 48.6001H111V53.4001H115.8V48.6001Z" fill="white"/>
<path d="M115.8 53.3999H111V58.1999H115.8V53.3999Z" fill="white"/>
<path d="M115.799 63V58.2H110.999V60.6C110.999 61.2365 111.252 61.847 111.702 62.2971C112.152 62.7471 112.762 63 113.399 63" fill="white"/>
<path d="M111 72.6001H115.8V70.2001C115.8 69.5636 115.547 68.9531 115.097 68.503C114.647 68.053 114.037 67.8001 113.4 67.8001C112.763 67.8001 112.153 68.053 111.703 68.503C111.253 68.9531 111 69.5636 111 70.2001" fill="white"/>
<path d="M115.8 72.6001H111V77.4001H115.8V72.6001Z" fill="white"/>
<path d="M115.799 77.3999H110.999V82.1999H113.399C114.035 82.1999 114.646 81.947 115.096 81.497C115.546 81.0469 115.799 80.4364 115.799 79.7999" fill="white"/>
<path d="M111 91.8V96.6H115.8V94.2C115.8 93.5635 115.547 92.9531 115.097 92.503C114.647 92.0529 114.037 91.8 113.4 91.8" fill="white"/>
<path d="M115.8 96.6001H111V101.4H115.8V96.6001Z" fill="white"/>
<path d="M115.8 101.4H111V106.2H115.8V101.4Z" fill="white"/>
<path d="M113.4 115.8C114.725 115.8 115.8 114.725 115.8 113.4C115.8 112.075 114.725 111 113.4 111C112.075 111 111 112.075 111 113.4C111 114.725 112.075 115.8 113.4 115.8Z" fill="white"/>
<path d="M115.8 120.6H111V125.4H115.8V120.6Z" fill="white"/>
<path d="M115.8 139.8H111V144.6H115.8V139.8Z" fill="white"/>
<path d="M120.599 48.6001H115.799V53.4001H120.599V48.6001Z" fill="white"/>
<path d="M120.599 58.2H115.799V63H120.599V58.2Z" fill="white"/>
<path d="M120.6 87V82.2H118.2C117.563 82.2 116.953 82.4529 116.503 82.9029C116.052 83.353 115.8 83.9635 115.8 84.6C115.8 85.2365 116.052 85.847 116.503 86.2971C116.953 86.7471 117.563 87 118.2 87" fill="white"/>
<path d="M120.599 96.6001H115.799V101.4H120.599V96.6001Z" fill="white"/>
<path d="M120.599 101.4H115.799V106.2H120.599V101.4Z" fill="white"/>
<path d="M120.599 120.6H115.799V125.4H120.599V120.6Z" fill="white"/>
<path d="M120.6 125.4H115.8V127.8C115.8 128.436 116.052 129.047 116.503 129.497C116.953 129.947 117.563 130.2 118.2 130.2C118.836 130.2 119.447 129.947 119.897 129.497C120.347 129.047 120.6 128.436 120.6 127.8" fill="white"/>
<path d="M115.799 139.8V144.6H118.199C118.835 144.6 119.446 144.347 119.896 143.897C120.346 143.447 120.599 142.837 120.599 142.2C120.599 141.564 120.346 140.953 119.896 140.503C119.446 140.053 118.835 139.8 118.199 139.8" fill="white"/>
<path d="M120.6 48.6001H125.4V46.2001C125.4 45.5636 125.147 44.9531 124.697 44.503C124.247 44.053 123.636 43.8001 123 43.8001C122.363 43.8001 121.753 44.053 121.303 44.503C120.852 44.9531 120.6 45.5636 120.6 46.2001" fill="white"/>
<path d="M125.398 48.6001H120.598V53.4001H122.998C123.635 53.4001 124.245 53.1472 124.695 52.6972C125.146 52.2471 125.398 51.6366 125.398 51.0001" fill="white"/>
<path d="M125.4 58.2H120.6V63H125.4V58.2Z" fill="white"/>
<path d="M120.6 82.2V87H123C123.636 87 124.247 86.7471 124.697 86.297C125.147 85.8469 125.4 85.2365 125.4 84.6C125.4 83.9634 125.147 83.353 124.697 82.9029C124.247 82.4528 123.636 82.2 123 82.2" fill="white"/>
<path d="M120.6 96.6001V101.4H125.4V99.0001C125.4 98.3636 125.147 97.7531 124.697 97.303C124.247 96.853 123.636 96.6001 123 96.6001" fill="white"/>
<path d="M125.4 101.4H120.6V106.2H125.4V101.4Z" fill="white"/>
<path d="M125.4 106.2H120.6V111H125.4V106.2Z" fill="white"/>
<path d="M125.4 111H120.6V115.8H125.4V111Z" fill="white"/>
<path d="M125.4 115.8H120.6V120.6H125.4V115.8Z" fill="white"/>
<path d="M125.398 120.6H120.598V125.4H122.998C123.635 125.4 124.245 125.147 124.695 124.697C125.146 124.247 125.398 123.637 125.398 123" fill="white"/>
<path d="M125.398 58.2H130.198V55.8C130.198 55.1634 129.946 54.553 129.495 54.1029C129.045 53.6528 128.435 53.4 127.798 53.4C127.162 53.4 126.551 53.6528 126.101 54.1029C125.651 54.553 125.398 55.1634 125.398 55.8" fill="white"/>
<path d="M130.198 58.2H125.398V63H130.198V58.2Z" fill="white"/>
<path d="M130.198 63H125.398V67.8H130.198V63Z" fill="white"/>
<path d="M130.198 67.8H125.398V72.6H130.198V67.8Z" fill="white"/>
<path d="M130.199 72.6001H125.399V75.0001C125.399 75.6366 125.652 76.2471 126.102 76.6972C126.552 77.1472 127.163 77.4001 127.799 77.4001C128.436 77.4001 129.046 77.1472 129.496 76.6972C129.946 76.2471 130.199 75.6366 130.199 75.0001" fill="white"/>
<path d="M125.398 91.8H130.198V87H127.798C127.162 87 126.551 87.2529 126.101 87.703C125.651 88.1531 125.398 88.7635 125.398 89.4" fill="white"/>
<path d="M130.199 96.6001V91.8001H125.399V94.2001C125.399 94.8366 125.652 95.4471 126.102 95.8972C126.552 96.3472 127.163 96.6001 127.799 96.6001" fill="white"/>
<path d="M125.398 115.8V120.6H127.798C128.435 120.6 129.045 120.347 129.495 119.897C129.946 119.447 130.198 118.837 130.198 118.2C130.198 117.564 129.946 116.953 129.495 116.503C129.045 116.053 128.435 115.8 127.798 115.8" fill="white"/>
<path d="M125.398 130.2H130.198V125.4H127.798C127.162 125.4 126.551 125.653 126.101 126.103C125.651 126.553 125.398 127.163 125.398 127.8" fill="white"/>
<path d="M130.198 130.2H125.398V135H130.198V130.2Z" fill="white"/>
<path d="M130.199 139.8V135H125.399V137.4C125.399 138.037 125.652 138.647 126.102 139.097C126.552 139.547 127.163 139.8 127.799 139.8" fill="white"/>
<path d="M134.999 63H130.199V67.8H134.999V63Z" fill="white"/>
<path d="M134.999 67.8H130.199V72.6H134.999V67.8Z" fill="white"/>
<path d="M135 82.2V77.4H132.6C131.963 77.4 131.353 77.6528 130.903 78.1029C130.453 78.553 130.2 79.1634 130.2 79.8C130.2 80.4365 130.453 81.0469 130.903 81.497C131.353 81.9471 131.963 82.2 132.6 82.2" fill="white"/>
<path d="M134.999 87H130.199V91.8H134.999V87Z" fill="white"/>
<path d="M134.999 91.8H130.199V96.6H134.999V91.8Z" fill="white"/>
<path d="M134.999 96.6001H130.199V101.4H134.999V96.6001Z" fill="white"/>
<path d="M134.999 101.4H130.199V106.2H134.999V101.4Z" fill="white"/>
<path d="M135 106.2H130.2V108.6C130.2 109.236 130.453 109.847 130.903 110.297C131.353 110.747 131.963 111 132.6 111C133.237 111 133.847 110.747 134.297 110.297C134.747 109.847 135 109.236 135 108.6" fill="white"/>
<path d="M134.999 125.4H130.199V130.2H134.999V125.4Z" fill="white"/>
<path d="M134.999 135H130.199V139.8H134.999V135Z" fill="white"/>
<path d="M135 144.6V139.8H130.2V142.2C130.2 142.837 130.453 143.447 130.903 143.897C131.353 144.347 131.963 144.6 132.6 144.6" fill="white"/>
<path d="M137.4 48.6C138.725 48.6 139.8 47.5255 139.8 46.2C139.8 44.8746 138.725 43.8 137.4 43.8C136.075 43.8 135 44.8746 135 46.2C135 47.5255 136.075 48.6 137.4 48.6Z" fill="white"/>
<path d="M139.799 58.2V53.4H137.399C136.762 53.4 136.152 53.6528 135.702 54.1029C135.252 54.553 134.999 55.1634 134.999 55.8C134.999 56.4365 135.252 57.0469 135.702 57.497C136.152 57.9471 136.762 58.2 137.399 58.2" fill="white"/>
<path d="M139.8 63H135V67.8H139.8V63Z" fill="white"/>
<path d="M139.8 67.8H135V72.6H139.8V67.8Z" fill="white"/>
<path d="M139.8 72.6001H135V77.4001H139.8V72.6001Z" fill="white"/>
<path d="M139.8 77.3999H135V82.1999H139.8V77.3999Z" fill="white"/>
<path d="M139.8 82.2H135V87H139.8V82.2Z" fill="white"/>
<path d="M139.8 87H135V91.8H139.8V87Z" fill="white"/>
<path d="M139.8 91.8H135V96.6H139.8V91.8Z" fill="white"/>
<path d="M139.8 96.6001H135V101.4H139.8V96.6001Z" fill="white"/>
<path d="M139.8 101.4H135V106.2H139.8V101.4Z" fill="white"/>
<path d="M137.4 120.6C138.725 120.6 139.8 119.526 139.8 118.2C139.8 116.875 138.725 115.8 137.4 115.8C136.075 115.8 135 116.875 135 118.2C135 119.526 136.075 120.6 137.4 120.6Z" fill="white"/>
<path d="M135 125.4V130.2H137.4C138.037 130.2 138.647 129.947 139.097 129.497C139.547 129.047 139.8 128.436 139.8 127.8C139.8 127.163 139.547 126.553 139.097 126.103C138.647 125.653 138.037 125.4 137.4 125.4" fill="white"/>
<path d="M139.8 135H135V139.8H139.8V135Z" fill="white"/>
<path d="M139.799 139.8H134.999V144.6H137.399C138.035 144.6 138.646 144.347 139.096 143.897C139.546 143.447 139.799 142.837 139.799 142.2" fill="white"/>
<path d="M139.799 53.3999V58.1999H142.199C142.835 58.1999 143.446 57.947 143.896 57.497C144.346 57.0469 144.599 56.4364 144.599 55.7999C144.599 55.1634 144.346 54.5529 143.896 54.1028C143.446 53.6528 142.835 53.3999 142.199 53.3999" fill="white"/>
<path d="M139.799 63V67.8H144.599V65.4C144.599 64.7635 144.346 64.153 143.896 63.7029C143.446 63.2529 142.835 63 142.199 63" fill="white"/>
<path d="M144.6 67.8H139.8V72.6H142.2C142.836 72.6 143.447 72.3472 143.897 71.8971C144.347 71.447 144.6 70.8366 144.6 70.2" fill="white"/>
<path d="M139.799 101.4V106.2H144.599V103.8C144.599 103.163 144.346 102.553 143.896 102.103C143.446 101.653 142.835 101.4 142.199 101.4" fill="white"/>
<path d="M144.599 106.2H139.799V111H144.599V106.2Z" fill="white"/>
<path d="M144.6 111H139.8V113.4C139.8 114.037 140.052 114.647 140.503 115.097C140.953 115.547 141.563 115.8 142.2 115.8C142.836 115.8 143.447 115.547 143.897 115.097C144.347 114.647 144.6 114.037 144.6 113.4" fill="white"/>
<path d="M142.199 125.4C143.524 125.4 144.599 124.326 144.599 123C144.599 121.675 143.524 120.6 142.199 120.6C140.873 120.6 139.799 121.675 139.799 123C139.799 124.326 140.873 125.4 142.199 125.4Z" fill="white"/>
<path d="M139.799 135V139.8H142.199C142.835 139.8 143.446 139.547 143.896 139.097C144.346 138.647 144.599 138.037 144.599 137.4C144.599 136.763 144.346 136.153 143.896 135.703C143.446 135.253 142.835 135 142.199 135" fill="white"/>
<path fill-rule="evenodd" clip-rule="evenodd" d="M5.39844 5.3999V38.9999H38.9984V5.3999H5.39844ZM10.1984 10.1999H34.1984V34.1999H10.1984V10.1999Z" fill="white"/>
<path d="M29.4 15H15V29.4H29.4V15Z" fill="white"/>
<path fill-rule="evenodd" clip-rule="evenodd" d="M144.6 5.3999L111 5.3999V38.9999H144.6V5.3999ZM139.8 10.1999V34.1999H115.8V10.1999L139.8 10.1999Z" fill="white"/>
<path d="M135 29.4V15H120.6V29.4H135Z" fill="white"/>
<path fill-rule="evenodd" clip-rule="evenodd" d="M5.39844 144.6H38.9984V111H5.39844L5.39844 144.6ZM10.1984 139.8L10.1984 115.8H34.1984V139.8H10.1984Z" fill="white"/>
<path d="M15 120.6V135H29.4V120.6H15Z" fill="white"/>
</mask>
<g mask="url(#mask0_127_9857)">
<path d="M150 0H0V150H150V0Z" fill="black"/>
</g>
</g>
<defs>
<clipPath id="clip0_127_9857">
<rect width="150" height="150" fill="white"/>
</clipPath>
</defs>
</svg>
