<svg width="286" height="195" viewBox="0 0 286 195" fill="none" xmlns="http://www.w3.org/2000/svg">
<path d="M8.06378 44.1V10.017H-0.00021863V-2.74181e-05H27.0268V10.017H18.9628V44.1H8.06378ZM28.8277 44.1V-2.74181e-05H42.0577C51.5707 -2.74181e-05 57.1147 5.66997 57.1147 15.75C57.1147 25.893 51.5707 31.5 42.0577 31.5H39.7267V44.1H28.8277ZM39.1597 22.743H40.4827C44.7667 22.743 46.5937 20.601 46.5937 15.939C46.5937 11.214 44.7667 9.13498 40.4827 9.13498H39.1597V22.743ZM53.7408 44.1L66.3408 -2.74181e-05H75.4758L88.0758 44.1H77.1768L75.6648 37.485H66.1518L64.6398 44.1H53.7408ZM67.4118 29.043H74.3418L70.8768 14.112L67.4118 29.043ZM92.2525 44.1V10.017H84.1885V-2.74181e-05H111.215V10.017H103.151V44.1H92.2525ZM113.016 44.1V-2.74181e-05H123.915V13.671H125.679C135.507 13.671 140.862 19.089 140.862 28.854C140.862 38.682 135.507 44.1 125.679 44.1H113.016ZM123.411 35.217H124.608C128.64 35.217 130.467 33.201 130.467 28.791C130.467 24.318 128.64 22.302 124.608 22.302H123.411V35.217ZM155.154 44.1V10.017H147.09V-2.74181e-05H174.117V10.017H166.053V44.1H155.154ZM170.266 44.1L182.866 -2.74181e-05H192.001L204.601 44.1H193.702L192.19 37.485H182.677L181.165 44.1H170.266ZM183.937 29.043H190.867L187.402 14.112L183.937 29.043ZM226.652 44.1L219.785 26.901H217.013V44.1H206.114V-2.74181e-05H217.013V16.632H219.722L226.4 -2.74181e-05H237.866L229.046 21.483L238.181 44.1H226.652ZM241.004 52.92C242.705 49.14 243.398 46.809 243.587 44.604C240.878 44.352 238.925 42.147 238.925 39.123C238.925 35.91 241.067 33.705 244.028 33.705C247.367 33.705 249.446 36.351 249.446 40.509C249.446 44.289 248.249 48.447 245.855 52.92H241.004ZM2.01578 94.1V50H27.5938V58.631H12.7888V66.254H15.9388C25.0738 66.254 30.1768 71.231 30.1768 80.177C30.1768 89.123 25.0738 94.1 15.9388 94.1H2.01578ZM12.6628 85.91H14.2378C17.9548 85.91 19.7818 83.957 19.7818 80.051C19.7818 76.145 17.9548 74.192 14.2378 74.192H12.6628V85.91ZM35.8773 94.1L40.4133 82.067L28.8213 50H40.3503L45.8313 68.711L50.6193 50H62.1483L47.5323 94.1H35.8773ZM61.6906 102.92V84.272H62.9506C65.9116 84.272 66.9196 82.508 67.1716 76.46L68.3686 50H95.3956V84.272H100.121V102.92H89.9146V94.1H71.8966V102.92H61.6906ZM76.4956 84.839H84.8746V59.513H78.6376L78.0076 77.09C77.8186 80.87 77.4406 83.138 76.4956 84.839ZM108.372 94.1V60.017H100.308V50H127.335V60.017H119.271V94.1H108.372ZM143.393 94.667C133.061 94.667 127.076 86.351 127.076 72.05C127.076 57.749 133.061 49.433 143.393 49.433C153.788 49.433 159.773 57.749 159.773 72.05C159.773 86.351 153.788 94.667 143.393 94.667ZM138.353 72.05C138.353 80.681 139.991 84.776 143.393 84.776C146.858 84.776 148.496 80.681 148.496 72.05C148.496 63.419 146.858 59.324 143.393 59.324C139.991 59.324 138.353 63.419 138.353 72.05ZM127.64 144.1V126.901H119.387V144.1H108.488V100H119.387V116.632H127.64V100H138.539V144.1H127.64ZM142.314 144.1V100H153.15V120.475L164.868 100H171.861V144.1H161.025V123.373L149.307 144.1H142.314ZM196.185 144.1L189.318 126.901H186.546V144.1H175.647V100H186.546V116.632H189.255L195.933 100H207.399L198.579 121.483L207.714 144.1H196.185ZM216.075 144.1V110.017H208.011V100H235.038V110.017H226.974V144.1H216.075ZM251.096 144.667C240.764 144.667 234.779 136.351 234.779 122.05C234.779 107.749 240.764 99.433 251.096 99.433C261.491 99.433 267.476 107.749 267.476 122.05C267.476 136.351 261.491 144.667 251.096 144.667ZM246.056 122.05C246.056 130.681 247.694 134.776 251.096 134.776C254.561 134.776 256.199 130.681 256.199 122.05C256.199 113.419 254.561 109.324 251.096 109.324C247.694 109.324 246.056 113.419 246.056 122.05ZM21.1678 194.1V176.901H12.9148V194.1H2.01578V150H12.9148V166.632H21.1678V150H32.0668V194.1H21.1678ZM35.8414 194.1V150H57.5134V158.946H46.7404V167.577H56.3794V176.019H46.7404V185.091H57.7024V194.1H35.8414ZM81.9431 194.667C71.6741 194.667 65.6261 186.288 65.6261 172.05C65.6261 157.812 71.6741 149.433 81.9431 149.433C85.2191 149.433 88.4321 150.315 91.4561 151.953V161.466C89.1881 160.017 86.9201 159.261 84.8411 159.261C79.6751 159.261 76.9031 163.671 76.9031 172.05C76.9031 180.429 79.6751 184.839 84.8411 184.839C86.9831 184.839 89.2511 184.02 91.6451 182.445V192.021C88.6211 193.785 85.3451 194.667 81.9431 194.667ZM92.9843 194.1L97.5203 150H105.08L114.152 171.168L123.224 150H130.784L135.32 194.1H124.421L122.468 172.995L117.176 185.595H111.065L105.773 173.058L103.883 194.1H92.9843ZM152.609 194.667C142.277 194.667 136.292 186.351 136.292 172.05C136.292 157.749 142.277 149.433 152.609 149.433C163.004 149.433 168.989 157.749 168.989 172.05C168.989 186.351 163.004 194.667 152.609 194.667ZM147.569 172.05C147.569 180.681 149.207 184.776 152.609 184.776C156.074 184.776 157.712 180.681 157.712 172.05C157.712 163.419 156.074 159.324 152.609 159.324C149.207 159.324 147.569 163.419 147.569 172.05ZM176.749 194.1V160.017H168.685V150H195.712V160.017H187.648V194.1H176.749ZM197.513 194.1V150H210.743C220.256 150 225.8 155.67 225.8 165.75C225.8 175.893 220.256 181.5 210.743 181.5H208.412V194.1H197.513ZM207.845 172.743H209.168C213.452 172.743 215.279 170.601 215.279 165.939C215.279 161.214 213.452 159.135 209.168 159.135H207.845V172.743ZM227.585 194.1V150H238.421V170.475L250.139 150H257.132V194.1H246.296V173.373L234.578 194.1H227.585ZM266.967 194.1V160.017H258.903V150H285.93V160.017H277.866V194.1H266.967Z" fill="white"/>
</svg>
