<svg width="645" height="443" viewBox="0 0 645 443" fill="none" xmlns="http://www.w3.org/2000/svg">
<path d="M18.1764 99.4V22.578H0.000375271V1.7643e-05H60.9184V22.578H42.7424V99.4H18.1764ZM64.9776 99.4V1.7643e-05H94.7976C116.24 1.7643e-05 128.736 12.78 128.736 35.5C128.736 58.362 116.24 71 94.7976 71H89.5436V99.4H64.9776ZM88.2656 51.262H91.2476C100.904 51.262 105.022 46.434 105.022 35.926C105.022 25.276 100.904 20.59 91.2476 20.59H88.2656V51.262ZM121.131 99.4L149.531 1.7643e-05H170.121L198.521 99.4H173.955L170.547 84.49H149.105L145.697 99.4H121.131ZM151.945 65.462H167.565L159.755 31.808L151.945 65.462ZM207.935 99.4V22.578H189.759V1.7643e-05H250.677V22.578H232.501V99.4H207.935ZM254.736 99.4V1.7643e-05H279.302V30.814H283.278C305.43 30.814 317.5 43.026 317.5 65.036C317.5 87.188 305.43 99.4 283.278 99.4H254.736ZM278.166 79.378H280.864C289.952 79.378 294.07 74.834 294.07 64.894C294.07 54.812 289.952 50.268 280.864 50.268H278.166V79.378ZM349.713 99.4V22.578H331.537V1.7643e-05H392.455V22.578H374.279V99.4H349.713ZM383.775 99.4L412.175 1.7643e-05H432.765L461.165 99.4H436.599L433.191 84.49H411.749L408.341 99.4H383.775ZM414.589 65.462H430.209L422.399 31.808L414.589 65.462ZM510.866 99.4L495.388 60.634H489.14V99.4H464.574V1.7643e-05H489.14V37.488H495.246L510.298 1.7643e-05H536.142L516.262 48.422L536.852 99.4H510.866ZM543.217 119.28C547.051 110.76 548.613 105.506 549.039 100.536C542.933 99.968 538.531 94.998 538.531 88.182C538.531 80.94 543.359 75.97 550.033 75.97C557.559 75.97 562.245 81.934 562.245 91.306C562.245 99.826 559.547 109.198 554.151 119.28H543.217ZM4.54438 213.4V114H62.1964V133.454H28.8264V150.636H35.9264C56.5164 150.636 68.0184 161.854 68.0184 182.018C68.0184 202.182 56.5164 213.4 35.9264 213.4H4.54438ZM28.5424 194.94H32.0924C40.4704 194.94 44.5884 190.538 44.5884 181.734C44.5884 172.93 40.4704 168.528 32.0924 168.528H28.5424V194.94ZM80.8672 213.4L91.0912 186.278L64.9632 114H90.9492L103.303 156.174L114.095 114H140.081L107.137 213.4H80.8672ZM139.049 233.28V191.248H141.889C148.563 191.248 150.835 187.272 151.403 173.64L154.101 114H215.019V191.248H225.669V233.28H202.665V213.4H162.053V233.28H139.049ZM172.419 192.526H191.305V135.442H177.247L175.827 175.06C175.401 183.58 174.549 188.692 172.419 192.526ZM244.267 213.4V136.578H226.091V114H287.009V136.578H268.833V213.4H244.267ZM323.203 214.678C299.915 214.678 286.425 195.934 286.425 163.7C286.425 131.466 299.915 112.722 323.203 112.722C346.633 112.722 360.123 131.466 360.123 163.7C360.123 195.934 346.633 214.678 323.203 214.678ZM311.843 163.7C311.843 183.154 315.535 192.384 323.203 192.384C331.013 192.384 334.705 183.154 334.705 163.7C334.705 144.246 331.013 135.016 323.203 135.016C315.535 135.016 311.843 144.246 311.843 163.7ZM287.698 327.4V288.634H269.096V327.4H244.53V228H269.096V265.488H287.698V228H312.264V327.4H287.698ZM320.772 327.4V228H345.196V274.15L371.608 228H387.37V327.4H362.946V280.682L336.534 327.4H320.772ZM442.196 327.4L426.718 288.634H420.47V327.4H395.904V228H420.47V265.488H426.576L441.628 228H467.472L447.592 276.422L468.182 327.4H442.196ZM487.026 327.4V250.578H468.85V228H529.768V250.578H511.592V327.4H487.026ZM565.962 328.678C542.674 328.678 529.184 309.934 529.184 277.7C529.184 245.466 542.674 226.722 565.962 226.722C589.392 226.722 602.882 245.466 602.882 277.7C602.882 309.934 589.392 328.678 565.962 328.678ZM554.602 277.7C554.602 297.154 558.294 306.384 565.962 306.384C573.772 306.384 577.464 297.154 577.464 277.7C577.464 258.246 573.772 249.016 565.962 249.016C558.294 249.016 554.602 258.246 554.602 277.7ZM47.7124 441.4V402.634H29.1104V441.4H4.54438V342H29.1104V379.488H47.7124V342H72.2784V441.4H47.7124ZM80.7862 441.4V342H129.634V362.164H105.352V381.618H127.078V400.646H105.352V421.094H130.06V441.4H80.7862ZM184.698 442.678C161.552 442.678 147.92 423.792 147.92 391.7C147.92 359.608 161.552 340.722 184.698 340.722C192.082 340.722 199.324 342.71 206.14 346.402V367.844C201.028 364.578 195.916 362.874 191.23 362.874C179.586 362.874 173.338 372.814 173.338 391.7C173.338 410.586 179.586 420.526 191.23 420.526C196.058 420.526 201.17 418.68 206.566 415.13V436.714C199.75 440.69 192.366 442.678 184.698 442.678ZM209.585 441.4L219.809 342H236.849L257.297 389.712L277.745 342H294.785L305.009 441.4H280.443L276.041 393.83L264.113 422.23H250.339L238.411 393.972L234.151 441.4H209.585ZM343.977 442.678C320.689 442.678 307.199 423.934 307.199 391.7C307.199 359.466 320.689 340.722 343.977 340.722C367.407 340.722 380.897 359.466 380.897 391.7C380.897 423.934 367.407 442.678 343.977 442.678ZM332.617 391.7C332.617 411.154 336.309 420.384 343.977 420.384C351.787 420.384 355.479 411.154 355.479 391.7C355.479 372.246 351.787 363.016 343.977 363.016C336.309 363.016 332.617 372.246 332.617 391.7ZM398.387 441.4V364.578H380.211V342H441.129V364.578H422.953V441.4H398.387ZM445.188 441.4V342H475.008C496.45 342 508.946 354.78 508.946 377.5C508.946 400.362 496.45 413 475.008 413H469.754V441.4H445.188ZM468.476 393.262H471.458C481.114 393.262 485.232 388.434 485.232 377.926C485.232 367.276 481.114 362.59 471.458 362.59H468.476V393.262ZM512.971 441.4V342H537.395V388.15L563.807 342H579.569V441.4H555.145V394.682L528.733 441.4H512.971ZM601.735 441.4V364.578H583.559V342H644.477V364.578H626.301V441.4H601.735Z" fill="white"/>
</svg>
