<svg width="50" height="50" viewBox="0 0 50 50" fill="none" xmlns="http://www.w3.org/2000/svg">
<g clip-path="url(#clip0_115_2714)">
<mask id="mask0_115_2714" style="mask-type:luminance" maskUnits="userSpaceOnUse" x="0" y="0" width="50" height="50">
<path d="M50 0H0V50H50V0Z" fill="white"/>
</mask>
<g mask="url(#mask0_115_2714)">
<path d="M39.0625 16.667V21.042C38.1458 20.917 37.1042 20.8545 35.9375 20.8337V16.667C35.9375 10.1045 34.0833 5.72949 25 5.72949C15.9167 5.72949 14.0625 10.1045 14.0625 16.667V20.8337C12.8958 20.8545 11.8542 20.917 10.9375 21.042V16.667C10.9375 10.6253 12.3958 2.60449 25 2.60449C37.6042 2.60449 39.0625 10.6253 39.0625 16.667Z" fill="#FF733F"/>
<path d="M39.0618 21.0423C38.1452 20.9173 37.1035 20.8548 35.9368 20.834H14.0618C12.8952 20.8548 11.8535 20.9173 10.9368 21.0423C5.62435 21.6882 4.16602 24.2923 4.16602 31.2507V35.4173C4.16602 43.7507 6.24935 45.834 14.5827 45.834H35.416C43.7493 45.834 45.8327 43.7507 45.8327 35.4173V31.2507C45.8327 24.2923 44.3743 21.6882 39.0618 21.0423ZM18.1452 34.8131C17.7493 35.1881 17.2077 35.4173 16.666 35.4173C16.3952 35.4173 16.1243 35.3548 15.8743 35.2507C15.6035 35.1465 15.3952 35.0006 15.1868 34.8131C14.8118 34.4173 14.5827 33.8757 14.5827 33.334C14.5827 33.0632 14.6452 32.7923 14.7493 32.5423C14.8535 32.2923 14.9993 32.0632 15.1868 31.8548C15.3952 31.6673 15.6035 31.5215 15.8743 31.4173C16.6452 31.084 17.5618 31.2715 18.1452 31.8548C18.3327 32.0632 18.4785 32.2923 18.5827 32.5423C18.6868 32.7923 18.7493 33.0632 18.7493 33.334C18.7493 33.8757 18.5202 34.4173 18.1452 34.8131ZM26.916 34.1256C26.8118 34.3756 26.666 34.6048 26.4785 34.8131C26.0827 35.1881 25.541 35.4173 24.9993 35.4173C24.4368 35.4173 23.916 35.1881 23.5202 34.8131C23.3327 34.6048 23.1868 34.3756 23.0827 34.1256C22.9785 33.8756 22.916 33.6048 22.916 33.334C22.916 32.7715 23.1452 32.2507 23.5202 31.8548C24.291 31.084 25.6868 31.084 26.4785 31.8548C26.8535 32.2507 27.0827 32.7715 27.0827 33.334C27.0827 33.6048 27.0202 33.8756 26.916 34.1256ZM34.8118 34.8131C34.416 35.1881 33.8743 35.4173 33.3327 35.4173C32.791 35.4173 32.2493 35.1881 31.8535 34.8131C31.4785 34.4173 31.2493 33.8965 31.2493 33.334C31.2493 32.7715 31.4785 32.2507 31.8535 31.8548C32.6452 31.084 34.041 31.084 34.8118 31.8548C34.8952 31.959 34.9785 32.0632 35.0618 32.1882C35.1452 32.2923 35.2077 32.4173 35.2493 32.5423C35.3118 32.6673 35.3535 32.7923 35.3743 32.9173C35.3952 33.0632 35.416 33.209 35.416 33.334C35.416 33.8757 35.1868 34.4173 34.8118 34.8131Z" fill="#FF733F"/>
</g>
</g>
<defs>
<clipPath id="clip0_115_2714">
<rect width="50" height="50" fill="white"/>
</clipPath>
</defs>
</svg>
