<svg width="50" height="50" viewBox="0 0 50 50" fill="none" xmlns="http://www.w3.org/2000/svg">
<g clip-path="url(#clip0_115_2757)">
<mask id="mask0_115_2757" style="mask-type:luminance" maskUnits="userSpaceOnUse" x="0" y="0" width="50" height="50">
<path d="M50 0H0V50H50V0Z" fill="white"/>
</mask>
<g mask="url(#mask0_115_2757)">
<path d="M35.416 5.06152H14.5827C8.33268 5.06152 4.16602 9.22819 4.16602 15.4782V27.9782C4.16602 34.2282 8.33268 38.3949 14.5827 38.3949V42.8324C14.5827 44.499 16.4368 45.499 17.8118 44.5615L27.0827 38.3949H35.416C41.666 38.3949 45.8327 34.2282 45.8327 27.9782V15.4782C45.8327 9.22819 41.666 5.06152 35.416 5.06152ZM24.9993 30.4157C24.1243 30.4157 23.4368 29.7074 23.4368 28.8532C23.4368 27.999 24.1243 27.2907 24.9993 27.2907C25.8743 27.2907 26.5618 27.999 26.5618 28.8532C26.5618 29.7074 25.8743 30.4157 24.9993 30.4157ZM27.6243 21.7699C26.8118 22.3115 26.5618 22.6657 26.5618 23.249V23.6865C26.5618 24.5407 25.8535 25.249 24.9993 25.249C24.1452 25.249 23.4368 24.5407 23.4368 23.6865V23.249C23.4368 20.8324 25.2077 19.6449 25.8743 19.1865C26.6452 18.6657 26.8952 18.3115 26.8952 17.7699C26.8952 16.7282 26.041 15.874 24.9993 15.874C23.9577 15.874 23.1035 16.7282 23.1035 17.7699C23.1035 18.624 22.3952 19.3324 21.541 19.3324C20.6868 19.3324 19.9785 18.624 19.9785 17.7699C19.9785 14.999 22.2285 12.749 24.9993 12.749C27.7702 12.749 30.0202 14.999 30.0202 17.7699C30.0202 20.1449 28.2702 21.3324 27.6243 21.7699Z" fill="#E6ACFA"/>
</g>
</g>
<defs>
<clipPath id="clip0_115_2757">
<rect width="50" height="50" fill="white"/>
</clipPath>
</defs>
</svg>
