<svg width="50" height="50" viewBox="0 0 50 50" fill="none" xmlns="http://www.w3.org/2000/svg">
<g clip-path="url(#clip0_115_2721)">
<mask id="mask0_115_2721" style="mask-type:luminance" maskUnits="userSpaceOnUse" x="0" y="0" width="50" height="50">
<path d="M50 0H0V50H50V0Z" fill="white"/>
</mask>
<g mask="url(#mask0_115_2721)">
<path d="M40.6243 16.6667C43.5008 16.6667 45.8327 14.3348 45.8327 11.4583C45.8327 8.58185 43.5008 6.25 40.6243 6.25C37.7479 6.25 35.416 8.58185 35.416 11.4583C35.416 14.3348 37.7479 16.6667 40.6243 16.6667Z" fill="#E6ACFA"/>
<path d="M40.6243 16.6667C43.5008 16.6667 45.8327 14.3348 45.8327 11.4583C45.8327 8.58185 43.5008 6.25 40.6243 6.25C37.7479 6.25 35.416 8.58185 35.416 11.4583C35.416 14.3348 37.7479 16.6667 40.6243 16.6667Z" fill="#E6ACFA"/>
<path d="M43.166 19.3962C41.7077 19.8545 40.1035 19.9378 38.4368 19.5212C35.6452 18.792 33.3743 16.5628 32.6035 13.7712C32.2285 12.417 32.2077 11.0837 32.4368 9.87532C32.7077 8.54199 31.7702 7.29199 30.4368 7.29199H14.5827C8.33268 7.29199 4.16602 10.417 4.16602 17.7087V32.292C4.16602 39.5837 8.33268 42.7087 14.5827 42.7087H35.416C41.666 42.7087 45.8327 39.5837 45.8327 32.292V21.3753C45.8327 20.0003 44.4993 18.9587 43.166 19.3962ZM32.3327 23.2295L29.8743 25.1878C28.4993 26.292 26.7493 26.8337 24.9993 26.8337C23.2493 26.8337 21.4785 26.292 20.1243 25.1878L13.6035 19.9795C12.9368 19.4378 12.8327 18.4378 13.3535 17.7712C13.8952 17.1045 14.8743 16.9795 15.541 17.5212L22.0618 22.7295C23.6452 24.0003 26.3327 24.0003 27.916 22.7295L30.3743 20.7712C31.041 20.2295 32.041 20.3337 32.5618 21.0212C33.1035 21.6878 32.9993 22.6878 32.3327 23.2295Z" fill="#E6ACFA"/>
</g>
</g>
<defs>
<clipPath id="clip0_115_2721">
<rect width="50" height="50" fill="white"/>
</clipPath>
</defs>
</svg>
