<svg width="50" height="50" viewBox="0 0 50 50" fill="none" xmlns="http://www.w3.org/2000/svg">
<g clip-path="url(#clip0_115_2749)">
<mask id="mask0_115_2749" style="mask-type:luminance" maskUnits="userSpaceOnUse" x="0" y="0" width="50" height="50">
<path d="M50 0H0V50H50V0Z" fill="white"/>
</mask>
<g mask="url(#mask0_115_2749)">
<path d="M26.5625 30.2513H27.0417C27.7292 30.2513 28.3125 29.6263 28.3125 28.8555C28.3125 27.8763 28.0833 27.7513 27.4167 27.5221L26.5625 27.2305V30.2513Z" fill="#FF733F"/>
<path d="M24.9993 4.16699C13.4993 4.16699 4.16602 13.5003 4.16602 25.0003C4.16602 36.5003 13.4993 45.8337 24.9993 45.8337C36.4993 45.8337 45.8327 36.5003 45.8327 25.0003C45.8327 13.5003 36.4993 4.16699 24.9993 4.16699ZM15.791 34.2087C16.3952 34.8128 16.3952 35.8128 15.791 36.417C15.4785 36.7295 15.0827 36.8753 14.6868 36.8753C14.291 36.8753 13.8952 36.7295 13.5827 36.417C10.541 33.3753 8.85352 29.3128 8.85352 25.0003C8.85352 20.6878 10.541 16.6253 13.5827 13.5837C14.1868 12.9795 15.1868 12.9795 15.791 13.5837C16.3952 14.1878 16.3952 15.1878 15.791 15.792C13.3327 18.2503 11.9785 21.5212 11.9785 25.0003C11.9785 28.4795 13.3327 31.7503 15.791 34.2087ZM28.4368 24.542C30.4368 25.2503 31.416 26.6462 31.416 28.8337C31.416 31.3337 29.4577 33.3545 27.0202 33.3545H26.541V33.7295C26.541 34.5837 25.8327 35.292 24.9785 35.292C24.1243 35.292 23.416 34.5837 23.416 33.7295V33.3545H23.3535C20.7077 33.3545 18.541 31.1253 18.541 28.3962C18.541 27.542 19.2493 26.8337 20.1035 26.8337C20.9577 26.8337 21.666 27.542 21.666 28.3962C21.666 29.417 22.416 30.2295 23.3535 30.2295H23.416V26.1045L21.541 25.4378C19.541 24.7295 18.5618 23.3337 18.5618 21.1462C18.5618 18.6462 20.5202 16.6253 22.9577 16.6253H23.4368V16.2503C23.4368 15.3962 24.1452 14.6878 24.9993 14.6878C25.8535 14.6878 26.5618 15.3962 26.5618 16.2503V16.6253H26.6243C29.2702 16.6253 31.4368 18.8545 31.4368 21.5837C31.4368 22.4378 30.7285 23.1462 29.8743 23.1462C29.0202 23.1462 28.3118 22.4378 28.3118 21.5837C28.3118 20.5628 27.5618 19.7503 26.6243 19.7503H26.5618V23.8753L28.4368 24.542ZM36.416 36.417C36.1035 36.7295 35.7077 36.8753 35.3118 36.8753C34.916 36.8753 34.5202 36.7295 34.2077 36.417C33.6035 35.8128 33.6035 34.8128 34.2077 34.2087C36.666 31.7503 38.0202 28.4795 38.0202 25.0003C38.0202 21.5212 36.666 18.2503 34.2077 15.792C33.6035 15.1878 33.6035 14.1878 34.2077 13.5837C34.8118 12.9795 35.8118 12.9795 36.416 13.5837C39.4577 16.6253 41.1452 20.6878 41.1452 25.0003C41.1452 29.3128 39.4577 33.3753 36.416 36.417Z" fill="#FF733F"/>
<path d="M21.707 21.1677C21.707 22.1469 21.9362 22.2719 22.6029 22.501L23.457 22.7927V19.751H22.9779C22.2695 19.751 21.707 20.3968 21.707 21.1677Z" fill="#FF733F"/>
</g>
</g>
<defs>
<clipPath id="clip0_115_2749">
<rect width="50" height="50" fill="white"/>
</clipPath>
</defs>
</svg>
