<svg width="60" height="60" viewBox="0 0 60 60" fill="none" xmlns="http://www.w3.org/2000/svg">
<rect width="60" height="60" rx="7.74194" fill="#F4EFE8"/>
<path d="M30.0008 25.4141C28.7843 25.4141 27.6176 25.8973 26.7575 26.7575C25.8973 27.6176 25.4141 28.7843 25.4141 30.0008C25.4141 31.2172 25.8973 32.3839 26.7575 33.244C27.6176 34.1042 28.7843 34.5875 30.0008 34.5875C31.2172 34.5875 32.3839 34.1042 33.244 33.244C34.1042 32.3839 34.5875 31.2172 34.5875 30.0008C34.5875 28.7843 34.1042 27.6176 33.244 26.7575C32.3839 25.8973 31.2172 25.4141 30.0008 25.4141Z" fill="#1E1E1E"/>
<path fill-rule="evenodd" clip-rule="evenodd" d="M22.6189 17.4164C27.5246 16.8729 32.4753 16.8729 37.381 17.4164C40.061 17.7156 42.2217 19.8254 42.5364 22.5154C43.1178 27.4897 43.1178 32.5148 42.5364 37.4892C42.2217 40.1791 40.061 42.289 37.3824 42.5896C32.4762 43.1331 27.5251 43.1331 22.6189 42.5896C19.9389 42.289 17.7782 40.1791 17.4635 37.4906C16.882 32.5158 16.882 27.4902 17.4635 22.5154C17.7782 19.8254 19.9389 17.7156 22.6189 17.4164ZM37.0564 21.5345C36.6821 21.5345 36.3231 21.6832 36.0585 21.9479C35.7938 22.2125 35.6451 22.5715 35.6451 22.9458C35.6451 23.3201 35.7938 23.6791 36.0585 23.9437C36.3231 24.2084 36.6821 24.3571 37.0564 24.3571C37.4307 24.3571 37.7897 24.2084 38.0543 23.9437C38.319 23.6791 38.4677 23.3201 38.4677 22.9458C38.4677 22.5715 38.319 22.2125 38.0543 21.9479C37.7897 21.6832 37.4307 21.5345 37.0564 21.5345ZM23.2963 30.0023C23.2963 28.2243 24.0026 26.5193 25.2598 25.2621C26.5169 24.0049 28.222 23.2986 29.9999 23.2986C31.7779 23.2986 33.4829 24.0049 34.7401 25.2621C35.9973 26.5193 36.7036 28.2243 36.7036 30.0023C36.7036 31.7802 35.9973 33.4853 34.7401 34.7424C33.4829 35.9996 31.7779 36.7059 29.9999 36.7059C28.222 36.7059 26.5169 35.9996 25.2598 34.7424C24.0026 33.4853 23.2963 31.7802 23.2963 30.0023Z" fill="#1E1E1E"/>
</svg>
