<svg width="170" height="40" viewBox="0 0 170 40" fill="none" xmlns="http://www.w3.org/2000/svg">
<path d="M49.1118 39.9999L49.1106 39.9992L37.2051 33.1297V7.53772L49.1118 0.667725V39.9999Z" fill="url(#paint0_linear_127_9489)"/>
<path d="M24.5586 27.9089V14.1689L49.1156 0V13.74L24.5597 27.9082L24.5586 27.9089Z" fill="url(#paint1_linear_127_9489)"/>
<path d="M-0.000457764 40L0.000681877 39.9994L11.9062 33.1299L11.9062 7.53785L-0.000457764 0.667854L-0.000457764 40Z" fill="url(#paint2_linear_127_9489)"/>
<path d="M24.5586 27.9089V14.1689L0.00163078 7.43866e-05L0.00163078 13.7401L24.5575 27.9083L24.5586 27.9089Z" fill="url(#paint3_linear_127_9489)"/>
<path d="M60.8894 9.63636H66.1991L71.807 23.3182H72.0457L77.6536 9.63636H82.9633V30H78.7871V16.7457H78.6181L73.3482 29.9006H70.5045L65.2346 16.696H65.0656V30H60.8894V9.63636ZM103.638 16.7656H99.2827C99.2032 16.2022 99.0408 15.7017 98.7955 15.2642C98.5502 14.8201 98.2354 14.4422 97.8509 14.1307C97.4664 13.8191 97.0223 13.5805 96.5185 13.4148C96.0214 13.2491 95.4811 13.1662 94.8978 13.1662C93.8438 13.1662 92.9257 13.428 92.1435 13.9517C91.3613 14.4687 90.7548 15.2244 90.3239 16.2188C89.893 17.2064 89.6776 18.4062 89.6776 19.8182C89.6776 21.2699 89.893 22.4896 90.3239 23.4773C90.7614 24.465 91.3713 25.2107 92.1535 25.7145C92.9357 26.2183 93.8405 26.4702 94.868 26.4702C95.4447 26.4702 95.9783 26.3939 96.4688 26.2415C96.966 26.089 97.4068 25.867 97.7912 25.5753C98.1757 25.277 98.4939 24.9157 98.7458 24.4915C99.0043 24.0672 99.1833 23.5833 99.2827 23.0398L103.638 23.0597C103.525 23.9943 103.243 24.8958 102.793 25.7642C102.349 26.6259 101.749 27.3982 100.993 28.081C100.244 28.7571 99.349 29.294 98.3083 29.6918C97.2742 30.0829 96.1042 30.2784 94.7984 30.2784C92.9821 30.2784 91.358 29.8674 89.9262 29.0455C88.501 28.2235 87.3741 27.0336 86.5455 25.4759C85.7235 23.9181 85.3126 22.0322 85.3126 19.8182C85.3126 17.5975 85.7302 15.7083 86.5654 14.1506C87.4006 12.5928 88.5341 11.4062 89.966 10.5909C91.3978 9.76894 93.0086 9.35795 94.7984 9.35795C95.9783 9.35795 97.072 9.52367 98.0796 9.85511C99.0938 10.1866 99.992 10.6705 100.774 11.3068C101.556 11.9366 102.193 12.7088 102.683 13.6236C103.18 14.5384 103.499 15.5857 103.638 16.7656ZM110.161 30.2884C109.186 30.2884 108.318 30.1193 107.556 29.7812C106.793 29.4366 106.19 28.9295 105.746 28.2599C105.308 27.5838 105.09 26.742 105.09 25.7344C105.09 24.8859 105.246 24.1733 105.557 23.5966C105.869 23.0199 106.293 22.5559 106.83 22.2045C107.367 21.8532 107.977 21.5881 108.659 21.4091C109.349 21.2301 110.071 21.1042 110.827 21.0312C111.715 20.9384 112.431 20.8523 112.975 20.7727C113.518 20.6866 113.913 20.5606 114.158 20.3949C114.403 20.2292 114.526 19.9839 114.526 19.6591V19.5994C114.526 18.9697 114.327 18.4825 113.929 18.1378C113.538 17.7931 112.981 17.6207 112.259 17.6207C111.496 17.6207 110.89 17.7898 110.439 18.1278C109.988 18.4593 109.69 18.8769 109.544 19.3807L105.627 19.0625C105.826 18.1345 106.217 17.3324 106.8 16.6562C107.383 15.9735 108.136 15.4498 109.057 15.0852C109.985 14.714 111.059 14.5284 112.279 14.5284C113.127 14.5284 113.939 14.6278 114.715 14.8267C115.497 15.0256 116.19 15.3338 116.793 15.7514C117.403 16.169 117.883 16.706 118.235 17.3622C118.586 18.0118 118.762 18.7907 118.762 19.6989V30H114.745V27.8821H114.625C114.38 28.3594 114.052 28.7803 113.641 29.1449C113.23 29.5028 112.736 29.7846 112.159 29.9901C111.583 30.1889 110.916 30.2884 110.161 30.2884ZM111.374 27.3651C111.997 27.3651 112.547 27.2424 113.024 26.9972C113.502 26.7453 113.876 26.4072 114.148 25.983C114.42 25.5587 114.556 25.0781 114.556 24.5412V22.9205C114.423 23.0066 114.241 23.0862 114.009 23.1591C113.783 23.2254 113.528 23.2884 113.243 23.348C112.958 23.401 112.673 23.4508 112.388 23.4972C112.103 23.5369 111.844 23.5734 111.612 23.6065C111.115 23.6795 110.681 23.7955 110.31 23.9545C109.939 24.1136 109.65 24.3291 109.445 24.6009C109.239 24.866 109.137 25.1974 109.137 25.5952C109.137 26.1719 109.345 26.6127 109.763 26.9176C110.187 27.2159 110.724 27.3651 111.374 27.3651ZM121.208 30V14.7273H125.314V17.392H125.473C125.752 16.4441 126.219 15.7282 126.875 15.2443C127.532 14.7538 128.287 14.5085 129.142 14.5085C129.355 14.5085 129.583 14.5218 129.829 14.5483C130.074 14.5748 130.289 14.6113 130.475 14.6577V18.4162C130.276 18.3565 130.001 18.3035 129.65 18.2571C129.298 18.2107 128.977 18.1875 128.685 18.1875C128.062 18.1875 127.505 18.3234 127.015 18.5952C126.531 18.8603 126.146 19.2315 125.861 19.7088C125.583 20.1861 125.444 20.7363 125.444 21.3594V30H121.208ZM136.742 30.2486C135.582 30.2486 134.531 29.9503 133.59 29.3537C132.655 28.7505 131.913 27.8655 131.363 26.6989C130.819 25.5256 130.547 24.0871 130.547 22.3835C130.547 20.6335 130.829 19.1785 131.392 18.0185C131.956 16.8518 132.705 15.9801 133.64 15.4034C134.581 14.8201 135.612 14.5284 136.732 14.5284C137.587 14.5284 138.3 14.6742 138.87 14.9659C139.446 15.2509 139.91 15.6089 140.262 16.0398C140.62 16.464 140.891 16.8816 141.077 17.2926H141.206V9.63636H145.432V30H141.256V27.554H141.077C140.878 27.9782 140.596 28.3991 140.232 28.8168C139.874 29.2277 139.407 29.5691 138.83 29.8409C138.26 30.1127 137.564 30.2486 136.742 30.2486ZM138.084 26.8778C138.767 26.8778 139.344 26.6922 139.814 26.321C140.291 25.9432 140.656 25.4162 140.908 24.7401C141.166 24.0639 141.296 23.2718 141.296 22.3636C141.296 21.4555 141.17 20.6667 140.918 19.9972C140.666 19.3277 140.301 18.8106 139.824 18.446C139.347 18.0814 138.767 17.8991 138.084 17.8991C137.388 17.8991 136.801 18.0881 136.324 18.4659C135.847 18.8437 135.486 19.3674 135.24 20.0369C134.995 20.7064 134.872 21.482 134.872 22.3636C134.872 23.2519 134.995 24.0374 135.24 24.7202C135.492 25.3963 135.854 25.9266 136.324 26.3111C136.801 26.6889 137.388 26.8778 138.084 26.8778ZM160.782 19.0824L156.904 19.321C156.838 18.9896 156.695 18.6913 156.477 18.4261C156.258 18.1544 155.97 17.9389 155.612 17.7798C155.26 17.6141 154.839 17.5312 154.349 17.5312C153.693 17.5312 153.139 17.6705 152.688 17.9489C152.238 18.2206 152.012 18.5852 152.012 19.0426C152.012 19.4072 152.158 19.7154 152.45 19.9673C152.741 20.2192 153.242 20.4214 153.951 20.5739L156.715 21.1307C158.2 21.4356 159.307 21.9261 160.036 22.6023C160.766 23.2784 161.13 24.1667 161.13 25.267C161.13 26.268 160.835 27.1463 160.245 27.902C159.662 28.6577 158.86 29.2476 157.839 29.6719C156.825 30.0895 155.655 30.2983 154.329 30.2983C152.307 30.2983 150.696 29.8774 149.497 29.0355C148.303 28.187 147.604 27.0336 147.399 25.5753L151.565 25.3565C151.691 25.973 151.996 26.4437 152.48 26.7685C152.963 27.0866 153.583 27.2457 154.339 27.2457C155.081 27.2457 155.678 27.1032 156.129 26.8182C156.586 26.5265 156.818 26.152 156.825 25.6946C156.818 25.3101 156.656 24.9953 156.338 24.75C156.019 24.4981 155.529 24.3059 154.866 24.1733L152.221 23.6463C150.73 23.348 149.619 22.831 148.89 22.0952C148.168 21.3594 147.806 20.4214 147.806 19.2812C147.806 18.3002 148.071 17.455 148.602 16.7457C149.139 16.0365 149.891 15.4896 150.859 15.1051C151.833 14.7206 152.973 14.5284 154.279 14.5284C156.208 14.5284 157.726 14.9361 158.833 15.7514C159.947 16.5668 160.596 17.6771 160.782 19.0824Z" fill="white"/>
<defs>
<linearGradient id="paint0_linear_127_9489" x1="43.1584" y1="0.667725" x2="43.1584" y2="39.9999" gradientUnits="userSpaceOnUse">
<stop stop-color="#3223FA"/>
<stop offset="1" stop-color="#23DBE1"/>
</linearGradient>
<linearGradient id="paint1_linear_127_9489" x1="36.8371" y1="0" x2="36.8371" y2="27.9089" gradientUnits="userSpaceOnUse">
<stop stop-color="#19D6F1"/>
<stop offset="1" stop-color="#3433FF"/>
</linearGradient>
<linearGradient id="paint2_linear_127_9489" x1="5.9529" y1="40" x2="5.9529" y2="0.66785" gradientUnits="userSpaceOnUse">
<stop stop-color="#19C8F3"/>
<stop offset="1" stop-color="#3433FF"/>
</linearGradient>
<linearGradient id="paint3_linear_127_9489" x1="12.2801" y1="27.9089" x2="12.2801" y2="7.62939e-05" gradientUnits="userSpaceOnUse">
<stop stop-color="#6564FF"/>
<stop offset="1" stop-color="#18EDDC"/>
</linearGradient>
</defs>
</svg>
