<svg width="132" height="132" viewBox="0 0 132 132" fill="none" xmlns="http://www.w3.org/2000/svg">
<g clip-path="url(#clip0_127_10505)">
<path d="M132 0H0V132H132V0Z" fill="white"/>
<mask id="mask0_127_10505" style="mask-type:luminance" maskUnits="userSpaceOnUse" x="4" y="4" width="124" height="124">
<path d="M4.75 46.9917H8.974V44.8797C8.974 44.3196 8.75149 43.7824 8.35541 43.3863C7.95933 42.9902 7.42214 42.7677 6.862 42.7677C6.30186 42.7677 5.76467 42.9902 5.36859 43.3863C4.97251 43.7824 4.75 44.3196 4.75 44.8797" fill="white"/>
<path d="M8.97461 51.2163V46.9923H4.75061L4.75061 49.1043C4.75061 49.6644 4.97312 50.2016 5.3692 50.5977C5.76528 50.9938 6.30247 51.2163 6.86261 51.2163" fill="white"/>
<path d="M4.75 63.8882H8.974V61.7762C8.974 61.216 8.75149 60.6789 8.35541 60.2828C7.95933 59.8867 7.42214 59.6642 6.862 59.6642C6.30186 59.6642 5.76467 59.8867 5.36859 60.2828C4.97251 60.6789 4.75 61.216 4.75 61.7762" fill="white"/>
<path d="M8.974 63.8882H4.75V68.1122H8.974V63.8882Z" fill="white"/>
<path d="M8.97461 68.1118H4.75061V70.2238C4.75061 70.784 4.97312 71.3211 5.3692 71.7172C5.76528 72.1133 6.30247 72.3358 6.86261 72.3358C7.42275 72.3358 7.95994 72.1133 8.35602 71.7172C8.7521 71.3211 8.97461 70.784 8.97461 70.2238" fill="white"/>
<path d="M6.862 80.7841C8.02843 80.7841 8.974 79.8385 8.974 78.6721C8.974 77.5056 8.02843 76.5601 6.862 76.5601C5.69557 76.5601 4.75 77.5056 4.75 78.6721C4.75 79.8385 5.69557 80.7841 6.862 80.7841Z" fill="white"/>
<path d="M4.75 89.2319H8.974V85.0079H6.862C6.30186 85.0079 5.76467 85.2304 5.36859 85.6265C4.97251 86.0226 4.75 86.5598 4.75 87.1199" fill="white"/>
<path d="M8.97461 89.2319H4.75061V91.3439C4.75061 91.9041 4.97312 92.4413 5.3692 92.8373C5.76528 93.2334 6.30247 93.4559 6.86261 93.4559C7.42275 93.4559 7.95994 93.2334 8.35602 92.8373C8.7521 92.4413 8.97461 91.9041 8.97461 91.3439" fill="white"/>
<path d="M8.97461 46.9917V51.2157H11.0866C11.6467 51.2157 12.1839 50.9932 12.58 50.5971C12.9761 50.201 13.1986 49.6638 13.1986 49.1037C13.1986 48.5436 12.9761 48.0064 12.58 47.6103C12.1839 47.2142 11.6467 46.9917 11.0866 46.9917" fill="white"/>
<path d="M11.0866 59.6639C12.253 59.6639 13.1986 58.7184 13.1986 57.5519C13.1986 56.3855 12.253 55.4399 11.0866 55.4399C9.92018 55.4399 8.97461 56.3855 8.97461 57.5519C8.97461 58.7184 9.92018 59.6639 11.0866 59.6639Z" fill="white"/>
<path d="M13.1986 63.8882H8.97461V68.1122H13.1986V63.8882Z" fill="white"/>
<path d="M11.0866 76.5599C12.253 76.5599 13.1986 75.6144 13.1986 74.4479C13.1986 73.2815 12.253 72.3359 11.0866 72.3359C9.92018 72.3359 8.97461 73.2815 8.97461 74.4479C8.97461 75.6144 9.92018 76.5599 11.0866 76.5599Z" fill="white"/>
<path d="M8.97461 85.0083V89.2323H11.0866C11.6467 89.2323 12.1839 89.0098 12.58 88.6137C12.9761 88.2176 13.1986 87.6804 13.1986 87.1203C13.1986 86.5602 12.9761 86.023 12.58 85.6269C12.1839 85.2308 11.6467 85.0083 11.0866 85.0083" fill="white"/>
<path d="M13.1992 42.7681H17.4232V40.6561C17.4232 40.0959 17.2007 39.5587 16.8046 39.1627C16.4086 38.7666 15.8714 38.5441 15.3112 38.5441C14.7511 38.5441 14.2139 38.7666 13.8178 39.1627C13.4217 39.5587 13.1992 40.0959 13.1992 40.6561" fill="white"/>
<path d="M17.4238 46.9917V42.7677H13.1998V44.8797C13.1998 45.4398 13.4223 45.977 13.8184 46.3731C14.2145 46.7692 14.7517 46.9917 15.3118 46.9917" fill="white"/>
<path d="M17.4232 63.8882H13.1992V68.1122H17.4232V63.8882Z" fill="white"/>
<path d="M13.1992 80.7837H17.4232V78.6717C17.4232 78.1116 17.2007 77.5744 16.8046 77.1783C16.4086 76.7822 15.8714 76.5597 15.3112 76.5597C14.7511 76.5597 14.2139 76.7822 13.8178 77.1783C13.4217 77.5744 13.1992 78.1116 13.1992 78.6717" fill="white"/>
<path d="M17.4238 85.0083V80.7843H13.1998V82.8963C13.1998 83.4564 13.4223 83.9936 13.8184 84.3897C14.2145 84.7858 14.7517 85.0083 15.3118 85.0083" fill="white"/>
<path d="M21.6478 42.7681H17.4238V46.9921H21.6478V42.7681Z" fill="white"/>
<path d="M17.4238 55.4399H21.6478V51.2159H19.5358C18.9757 51.2159 18.4385 51.4385 18.0424 51.8345C17.6463 52.2306 17.4238 52.7678 17.4238 53.3279" fill="white"/>
<path d="M21.6478 55.4399H17.4238V59.6639H21.6478V55.4399Z" fill="white"/>
<path d="M21.6478 59.6641H17.4238V63.8881H21.6478V59.6641Z" fill="white"/>
<path d="M21.6478 63.8882H17.4238V68.1122H21.6478V63.8882Z" fill="white"/>
<path d="M21.6478 80.7837H17.4238V85.0077H21.6478V80.7837Z" fill="white"/>
<path d="M21.6484 42.7681H25.8724V38.5441H23.7604C23.2003 38.5441 22.6631 38.7666 22.267 39.1627C21.8709 39.5587 21.6484 40.0959 21.6484 40.6561" fill="white"/>
<path d="M25.8724 42.7681H21.6484V46.9921H25.8724V42.7681Z" fill="white"/>
<path d="M25.8724 46.9917H21.6484V51.2157H25.8724V46.9917Z" fill="white"/>
<path d="M25.8724 51.2163H21.6484V55.4403H25.8724V51.2163Z" fill="white"/>
<path d="M21.6484 63.8882V68.1122H25.8724V66.0002C25.8724 65.44 25.6499 64.9028 25.2538 64.5068C24.8578 64.1107 24.3206 63.8882 23.7604 63.8882" fill="white"/>
<path d="M25.8711 68.1118H21.6471V70.2238C21.6471 70.784 21.8696 71.3211 22.2657 71.7172C22.6618 72.1133 23.199 72.3358 23.7591 72.3358C24.3192 72.3358 24.8564 72.1133 25.2525 71.7172C25.6486 71.3211 25.8711 70.784 25.8711 70.2238" fill="white"/>
<path d="M21.6484 80.7837H25.8724V76.5597H23.7604C23.2003 76.5597 22.6631 76.7822 22.267 77.1783C21.8709 77.5744 21.6484 78.1116 21.6484 78.6717" fill="white"/>
<path d="M25.8711 80.7837H21.6471V85.0077H23.7591C24.3192 85.0077 24.8564 84.7852 25.2525 84.3891C25.6486 83.993 25.8711 83.4558 25.8711 82.8957" fill="white"/>
<path d="M30.0951 38.5439H25.8711V42.7679H30.0951V38.5439Z" fill="white"/>
<path d="M30.0957 42.7681H25.8717V46.9921H27.9837C28.5438 46.9921 29.081 46.7696 29.4771 46.3735C29.8732 45.9774 30.0957 45.4402 30.0957 44.8801" fill="white"/>
<path d="M25.8711 51.2163V55.4403H30.0951V53.3283C30.0951 52.7682 29.8726 52.231 29.4765 51.8349C29.0804 51.4388 28.5432 51.2163 27.9831 51.2163" fill="white"/>
<path d="M30.0957 59.6641V55.4401H25.8717V57.5521C25.8717 58.1122 26.0942 58.6494 26.4903 59.0455C26.8864 59.4416 27.4236 59.6641 27.9837 59.6641" fill="white"/>
<path d="M25.8711 76.5601V80.7841H27.9831C28.5432 80.7841 29.0804 80.5615 29.4765 80.1655C29.8726 79.7694 30.0951 79.2322 30.0951 78.6721C30.0951 78.1119 29.8726 77.5747 29.4765 77.1786C29.0804 76.7826 28.5432 76.5601 27.9831 76.5601" fill="white"/>
<path d="M25.8711 89.2319H30.0951V87.1199C30.0951 86.5598 29.8726 86.0226 29.4765 85.6265C29.0804 85.2304 28.5432 85.0079 27.9831 85.0079C27.423 85.0079 26.8858 85.2304 26.4897 85.6265C26.0936 86.0226 25.8711 86.5598 25.8711 87.1199" fill="white"/>
<path d="M30.0957 93.4561V89.2321H25.8717V91.3441C25.8717 91.9042 26.0942 92.4414 26.4903 92.8375C26.8864 93.2335 27.4236 93.4561 27.9837 93.4561" fill="white"/>
<path d="M30.0957 38.5439V42.7679H32.2077C32.7678 42.7679 33.305 42.5454 33.7011 42.1494C34.0972 41.7533 34.3197 41.2161 34.3197 40.6559C34.3197 40.0958 34.0972 39.5586 33.7011 39.1625C33.305 38.7665 32.7678 38.5439 32.2077 38.5439" fill="white"/>
<path d="M32.2077 51.2157C33.3741 51.2157 34.3197 50.2701 34.3197 49.1037C34.3197 47.9373 33.3741 46.9917 32.2077 46.9917C31.0413 46.9917 30.0957 47.9373 30.0957 49.1037C30.0957 50.2701 31.0413 51.2157 32.2077 51.2157Z" fill="white"/>
<path d="M34.3197 55.4399H30.0957V59.6639H34.3197V55.4399Z" fill="white"/>
<path d="M34.3203 68.1118V63.8878H32.2083C31.6482 63.8878 31.111 64.1103 30.7149 64.5064C30.3188 64.9025 30.0963 65.4397 30.0963 65.9998C30.0963 66.56 30.3188 67.0972 30.7149 67.4932C31.111 67.8893 31.6482 68.1118 32.2083 68.1118" fill="white"/>
<path d="M34.3203 76.5601V72.3361H32.2083C31.6482 72.3361 31.111 72.5586 30.7149 72.9546C30.3188 73.3507 30.0963 73.8879 30.0963 74.4481C30.0963 75.0082 30.3188 75.5454 30.7149 75.9415C31.111 76.3375 31.6482 76.5601 32.2083 76.5601" fill="white"/>
<path d="M32.2077 85.0077C33.3741 85.0077 34.3197 84.0621 34.3197 82.8957C34.3197 81.7293 33.3741 80.7837 32.2077 80.7837C31.0413 80.7837 30.0957 81.7293 30.0957 82.8957C30.0957 84.0621 31.0413 85.0077 32.2077 85.0077Z" fill="white"/>
<path d="M34.3197 89.2319H30.0957V93.4559H34.3197V89.2319Z" fill="white"/>
<path d="M34.3203 55.4399V59.6639H38.5443V57.5519C38.5443 56.9918 38.3218 56.4546 37.9257 56.0585C37.5296 55.6625 36.9924 55.4399 36.4323 55.4399" fill="white"/>
<path d="M38.5443 59.6641H34.3203V63.8881H38.5443V59.6641Z" fill="white"/>
<path d="M38.5443 63.8882H34.3203V68.1122H38.5443V63.8882Z" fill="white"/>
<path d="M38.5443 68.1118H34.3203V72.3358H38.5443V68.1118Z" fill="white"/>
<path d="M38.543 72.3359H34.319V76.5599H36.431C36.9911 76.5599 37.5283 76.3374 37.9244 75.9413C38.3205 75.5453 38.543 75.0081 38.543 74.4479" fill="white"/>
<path d="M34.3203 89.2319H38.5443V87.1199C38.5443 86.5598 38.3218 86.0226 37.9257 85.6265C37.5296 85.2304 36.9924 85.0079 36.4323 85.0079C35.8722 85.0079 35.335 85.2304 34.9389 85.6265C34.5428 86.0226 34.3203 86.5598 34.3203 87.1199" fill="white"/>
<path d="M38.5443 89.2319H34.3203V93.4559H38.5443V89.2319Z" fill="white"/>
<path d="M42.7676 13.2002V8.9762H40.6556C40.0954 8.9762 39.5582 9.19871 39.1622 9.59479C38.7661 9.99086 38.5436 10.5281 38.5436 11.0882C38.5436 11.6483 38.7661 12.1855 39.1622 12.5816C39.5582 12.9777 40.0954 13.2002 40.6556 13.2002" fill="white"/>
<path d="M40.655 25.8719C41.8214 25.8719 42.767 24.9264 42.767 23.7599C42.767 22.5935 41.8214 21.6479 40.655 21.6479C39.4885 21.6479 38.543 22.5935 38.543 23.7599C38.543 24.9264 39.4885 25.8719 40.655 25.8719Z" fill="white"/>
<path d="M40.655 34.3202C41.8214 34.3202 42.767 33.3746 42.767 32.2082C42.767 31.0418 41.8214 30.0962 40.655 30.0962C39.4885 30.0962 38.543 31.0418 38.543 32.2082C38.543 33.3746 39.4885 34.3202 40.655 34.3202Z" fill="white"/>
<path d="M42.7676 42.7681V38.5441H40.6556C40.0954 38.5441 39.5582 38.7666 39.1622 39.1627C38.7661 39.5587 38.5436 40.0959 38.5436 40.6561C38.5436 41.2162 38.7661 41.7534 39.1622 42.1495C39.5582 42.5456 40.0954 42.7681 40.6556 42.7681" fill="white"/>
<path d="M42.7676 55.4399V51.2159H40.6556C40.0954 51.2159 39.5582 51.4385 39.1622 51.8345C38.7661 52.2306 38.5436 52.7678 38.5436 53.3279C38.5436 53.8881 38.7661 54.4253 39.1622 54.8214C39.5582 55.2174 40.0954 55.4399 40.6556 55.4399" fill="white"/>
<path d="M38.543 59.6641V63.8881H40.655C41.2151 63.8881 41.7523 63.6656 42.1484 63.2695C42.5445 62.8734 42.767 62.3362 42.767 61.7761C42.767 61.2159 42.5445 60.6787 42.1484 60.2827C41.7523 59.8866 41.2151 59.6641 40.655 59.6641" fill="white"/>
<path d="M42.767 68.1118H38.543V72.3358H42.767V68.1118Z" fill="white"/>
<path d="M38.543 89.2319V93.4559H42.767V91.3439C42.767 90.7838 42.5445 90.2466 42.1484 89.8505C41.7523 89.4544 41.2151 89.2319 40.655 89.2319" fill="white"/>
<path d="M42.7676 93.4561H38.5436V95.5681C38.5436 96.1282 38.7661 96.6654 39.1622 97.0615C39.5582 97.4575 40.0954 97.6801 40.6556 97.6801C41.2157 97.6801 41.7529 97.4575 42.149 97.0615C42.5451 96.6654 42.7676 96.1282 42.7676 95.5681" fill="white"/>
<path d="M38.543 106.128H42.767V101.904H40.655C40.0948 101.904 39.5576 102.126 39.1616 102.523C38.7655 102.919 38.543 103.456 38.543 104.016" fill="white"/>
<path d="M42.7676 110.352V106.128H38.5436V108.24C38.5436 108.8 38.7661 109.337 39.1622 109.733C39.5582 110.13 40.0954 110.352 40.6556 110.352" fill="white"/>
<path d="M42.7676 118.8V114.576H40.6556C40.0954 114.576 39.5582 114.798 39.1622 115.194C38.7661 115.59 38.5436 116.128 38.5436 116.688C38.5436 117.248 38.7661 117.785 39.1622 118.181C39.5582 118.577 40.0954 118.8 40.6556 118.8" fill="white"/>
<path d="M46.9916 8.97607H42.7676V13.2001H46.9916V8.97607Z" fill="white"/>
<path d="M46.9902 17.4238V13.1998H42.7662V15.3118C42.7662 15.872 42.9887 16.4092 43.3848 16.8052C43.7809 17.2013 44.3181 17.4238 44.8782 17.4238" fill="white"/>
<path d="M44.8796 30.0961C46.046 30.0961 46.9916 29.1505 46.9916 27.9841C46.9916 26.8176 46.046 25.8721 44.8796 25.8721C43.7132 25.8721 42.7676 26.8176 42.7676 27.9841C42.7676 29.1505 43.7132 30.0961 44.8796 30.0961Z" fill="white"/>
<path d="M42.7676 38.5439H46.9916V36.4319C46.9916 35.8718 46.7691 35.3346 46.373 34.9385C45.9769 34.5425 45.4397 34.3199 44.8796 34.3199C44.3194 34.3199 43.7822 34.5425 43.3862 34.9385C42.9901 35.3346 42.7676 35.8718 42.7676 36.4319" fill="white"/>
<path d="M46.9916 38.5439H42.7676V42.7679H46.9916V38.5439Z" fill="white"/>
<path d="M46.9902 46.9917V42.7677H42.7662V44.8797C42.7662 45.4398 42.9887 45.977 43.3848 46.3731C43.7809 46.7692 44.3181 46.9917 44.8782 46.9917" fill="white"/>
<path d="M46.9916 51.2163H42.7676V55.4403H46.9916V51.2163Z" fill="white"/>
<path d="M46.9916 68.1118H42.7676V72.3358H46.9916V68.1118Z" fill="white"/>
<path d="M46.9902 76.5601V72.3361H42.7662V74.4481C42.7662 75.0082 42.9887 75.5454 43.3848 75.9415C43.7809 76.3375 44.3181 76.5601 44.8782 76.5601" fill="white"/>
<path d="M42.7676 85.0083H46.9916V80.7843H44.8796C44.3194 80.7843 43.7822 81.0068 43.3862 81.4029C42.9901 81.799 42.7676 82.3362 42.7676 82.8963" fill="white"/>
<path d="M46.9902 89.2319V85.0079H42.7662V87.1199C42.7662 87.6801 42.9887 88.2173 43.3848 88.6133C43.7809 89.0094 44.3181 89.2319 44.8782 89.2319" fill="white"/>
<path d="M42.7676 101.904H46.9916V99.7918C46.9916 99.2317 46.7691 98.6945 46.373 98.2984C45.9769 97.9023 45.4397 97.6798 44.8796 97.6798C44.3194 97.6798 43.7822 97.9023 43.3862 98.2984C42.9901 98.6945 42.7676 99.2317 42.7676 99.7918" fill="white"/>
<path d="M46.9916 101.904H42.7676V106.128H46.9916V101.904Z" fill="white"/>
<path d="M46.9916 106.128H42.7676V110.352H46.9916V106.128Z" fill="white"/>
<path d="M42.7676 114.576V118.8H46.9916V116.688C46.9916 116.128 46.7691 115.591 46.373 115.195C45.9769 114.799 45.4397 114.576 44.8796 114.576" fill="white"/>
<path d="M46.9916 118.8H42.7676V123.024H46.9916V118.8Z" fill="white"/>
<path d="M46.9902 127.248V123.024H42.7662V125.136C42.7662 125.696 42.9887 126.233 43.3848 126.629C43.7809 127.026 44.3181 127.248 44.8782 127.248" fill="white"/>
<path d="M51.2142 8.97607H46.9902V13.2001H51.2142V8.97607Z" fill="white"/>
<path d="M51.2142 13.2002H46.9902V17.4242H51.2142V13.2002Z" fill="white"/>
<path d="M51.2148 17.4238H46.9908V19.5358C46.9908 20.096 47.2134 20.6332 47.6094 21.0292C48.0055 21.4253 48.5427 21.6478 49.1028 21.6478C49.663 21.6478 50.2002 21.4253 50.5963 21.0292C50.9923 20.6332 51.2148 20.096 51.2148 19.5358" fill="white"/>
<path d="M49.1022 34.3202C50.2687 34.3202 51.2142 33.3746 51.2142 32.2082C51.2142 31.0418 50.2687 30.0962 49.1022 30.0962C47.9358 30.0962 46.9902 31.0418 46.9902 32.2082C46.9902 33.3746 47.9358 34.3202 49.1022 34.3202Z" fill="white"/>
<path d="M51.2142 38.5439H46.9902V42.7679H51.2142V38.5439Z" fill="white"/>
<path d="M51.2148 42.7681H46.9908V46.9921H49.1028C49.663 46.9921 50.2002 46.7696 50.5963 46.3735C50.9923 45.9774 51.2148 45.4402 51.2148 44.8801" fill="white"/>
<path d="M51.2142 51.2163H46.9902V55.4403H51.2142V51.2163Z" fill="white"/>
<path d="M46.9902 63.8882H51.2142V61.7762C51.2142 61.216 50.9917 60.6788 50.5956 60.2828C50.1996 59.8867 49.6624 59.6642 49.1022 59.6642C48.5421 59.6642 48.0049 59.8867 47.6088 60.2828C47.2127 60.6788 46.9902 61.216 46.9902 61.7762" fill="white"/>
<path d="M51.2142 63.8882H46.9902V68.1122H51.2142V63.8882Z" fill="white"/>
<path d="M51.2142 68.1118H46.9902V72.3358H51.2142V68.1118Z" fill="white"/>
<path d="M51.2142 72.3359H46.9902V76.5599H51.2142V72.3359Z" fill="white"/>
<path d="M51.2142 76.5601H46.9902V80.7841H51.2142V76.5601Z" fill="white"/>
<path d="M51.2142 80.7837H46.9902V85.0077H51.2142V80.7837Z" fill="white"/>
<path d="M51.2142 85.0083H46.9902V89.2323H51.2142V85.0083Z" fill="white"/>
<path d="M51.2148 97.6802V93.4562H49.1028C48.5427 93.4562 48.0055 93.6787 47.6094 94.0748C47.2134 94.4708 46.9908 95.008 46.9908 95.5682C46.9908 96.1283 47.2134 96.6655 47.6094 97.0616C48.0055 97.4577 48.5427 97.6802 49.1028 97.6802" fill="white"/>
<path d="M51.2142 106.128H46.9902V110.352H51.2142V106.128Z" fill="white"/>
<path d="M51.2142 123.024H46.9902V127.248H51.2142V123.024Z" fill="white"/>
<path d="M51.2148 8.97607H55.4388V6.86407C55.4388 6.30394 55.2163 5.76674 54.8203 5.37066C54.4242 4.97459 53.887 4.75207 53.3268 4.75207C52.7667 4.75207 52.2295 4.97459 51.8334 5.37066C51.4374 5.76674 51.2148 6.30394 51.2148 6.86407" fill="white"/>
<path d="M55.4388 8.97607H51.2148V13.2001H55.4388V8.97607Z" fill="white"/>
<path d="M55.4388 13.2002H51.2148V17.4242H55.4388V13.2002Z" fill="white"/>
<path d="M53.3268 30.0961C54.4933 30.0961 55.4388 29.1505 55.4388 27.9841C55.4388 26.8176 54.4933 25.8721 53.3268 25.8721C52.1604 25.8721 51.2148 26.8176 51.2148 27.9841C51.2148 29.1505 52.1604 30.0961 53.3268 30.0961Z" fill="white"/>
<path d="M55.4388 38.5439H51.2148V42.7679H55.4388V38.5439Z" fill="white"/>
<path d="M51.2148 51.2163H55.4388V46.9923H53.3268C52.7667 46.9923 52.2295 47.2148 51.8334 47.6109C51.4374 48.007 51.2148 48.5442 51.2148 49.1043" fill="white"/>
<path d="M55.4388 51.2163H51.2148V55.4403H55.4388V51.2163Z" fill="white"/>
<path d="M55.4388 68.1118H51.2148V72.3358H55.4388V68.1118Z" fill="white"/>
<path d="M55.4388 76.5601H51.2148V80.7841H55.4388V76.5601Z" fill="white"/>
<path d="M55.4388 80.7837H51.2148V85.0077H55.4388V80.7837Z" fill="white"/>
<path d="M55.4388 85.0083H51.2148V89.2323H55.4388V85.0083Z" fill="white"/>
<path d="M55.4388 89.2319H51.2148V93.4559H55.4388V89.2319Z" fill="white"/>
<path d="M55.4395 93.4561H51.2155V97.6801H53.3275C53.8876 97.6801 54.4248 97.4575 54.8209 97.0615C55.2169 96.6654 55.4395 96.1282 55.4395 95.5681" fill="white"/>
<path d="M51.2148 106.128V110.352H55.4388V108.24C55.4388 107.68 55.2163 107.143 54.8203 106.747C54.4242 106.35 53.887 106.128 53.3268 106.128" fill="white"/>
<path d="M55.4395 110.352H51.2155V112.464C51.2155 113.024 51.438 113.561 51.834 113.957C52.2301 114.354 52.7673 114.576 53.3275 114.576C53.8876 114.576 54.4248 114.354 54.8209 113.957C55.2169 113.561 55.4395 113.024 55.4395 112.464" fill="white"/>
<path d="M51.2148 123.024H55.4388V120.912C55.4388 120.352 55.2163 119.815 54.8203 119.419C54.4242 119.022 53.887 118.8 53.3268 118.8C52.7667 118.8 52.2295 119.022 51.8334 119.419C51.4374 119.815 51.2148 120.352 51.2148 120.912" fill="white"/>
<path d="M55.4388 123.024H51.2148V127.248H55.4388V123.024Z" fill="white"/>
<path d="M55.4395 13.2002V17.4242H57.5515C58.1116 17.4242 58.6488 17.2017 59.0449 16.8056C59.4409 16.4095 59.6635 15.8723 59.6635 15.3122C59.6635 14.7521 59.4409 14.2149 59.0449 13.8188C58.6488 13.4227 58.1116 13.2002 57.5515 13.2002" fill="white"/>
<path d="M59.6621 25.8721V21.6481H57.5501C56.99 21.6481 56.4528 21.8706 56.0567 22.2667C55.6606 22.6627 55.4381 23.1999 55.4381 23.7601C55.4381 24.3202 55.6606 24.8574 56.0567 25.2535C56.4528 25.6496 56.99 25.8721 57.5501 25.8721" fill="white"/>
<path d="M57.5515 34.3202C58.7179 34.3202 59.6635 33.3746 59.6635 32.2082C59.6635 31.0418 58.7179 30.0962 57.5515 30.0962C56.385 30.0962 55.4395 31.0418 55.4395 32.2082C55.4395 33.3746 56.385 34.3202 57.5515 34.3202Z" fill="white"/>
<path d="M55.4395 38.5439V42.7679H57.5515C58.1116 42.7679 58.6488 42.5454 59.0449 42.1494C59.4409 41.7533 59.6635 41.2161 59.6635 40.6559C59.6635 40.0958 59.4409 39.5586 59.0449 39.1625C58.6488 38.7665 58.1116 38.5439 57.5515 38.5439" fill="white"/>
<path d="M55.4395 46.9917V51.2157H59.6635V49.1037C59.6635 48.5436 59.4409 48.0064 59.0449 47.6103C58.6488 47.2142 58.1116 46.9917 57.5515 46.9917" fill="white"/>
<path d="M59.6635 51.2163H55.4395V55.4403H59.6635V51.2163Z" fill="white"/>
<path d="M59.6621 59.6641V55.4401H55.4381V57.5521C55.4381 58.1122 55.6606 58.6494 56.0567 59.0455C56.4528 59.4416 56.99 59.6641 57.5501 59.6641" fill="white"/>
<path d="M55.4395 68.1118H59.6635V65.9998C59.6635 65.4397 59.4409 64.9025 59.0449 64.5064C58.6488 64.1103 58.1116 63.8878 57.5515 63.8878C56.9913 63.8878 56.4541 64.1103 56.058 64.5064C55.662 64.9025 55.4395 65.4397 55.4395 65.9998" fill="white"/>
<path d="M59.6635 68.1118H55.4395V72.3358H59.6635V68.1118Z" fill="white"/>
<path d="M59.6635 72.3359H55.4395V76.5599H59.6635V72.3359Z" fill="white"/>
<path d="M59.6635 76.5601H55.4395V80.7841H59.6635V76.5601Z" fill="white"/>
<path d="M59.6635 80.7837H55.4395V85.0077H59.6635V80.7837Z" fill="white"/>
<path d="M59.6635 89.2319H55.4395V93.4559H59.6635V89.2319Z" fill="white"/>
<path d="M57.5515 106.128C58.7179 106.128 59.6635 105.182 59.6635 104.016C59.6635 102.849 58.7179 101.904 57.5515 101.904C56.385 101.904 55.4395 102.849 55.4395 104.016C55.4395 105.182 56.385 106.128 57.5515 106.128Z" fill="white"/>
<path d="M59.6621 118.8V114.576H57.5501C56.99 114.576 56.4528 114.798 56.0567 115.194C55.6606 115.59 55.4381 116.128 55.4381 116.688C55.4381 117.248 55.6606 117.785 56.0567 118.181C56.4528 118.577 56.99 118.8 57.5501 118.8" fill="white"/>
<path d="M59.6635 123.024H55.4395V127.248H59.6635V123.024Z" fill="white"/>
<path d="M63.8861 21.6479H59.6621V25.8719H63.8861V21.6479Z" fill="white"/>
<path d="M63.8867 30.0962V25.8722H59.6627V27.9842C59.6627 28.5443 59.8852 29.0815 60.2813 29.4776C60.6774 29.8737 61.2146 30.0962 61.7747 30.0962" fill="white"/>
<path d="M59.6621 51.2163V55.4403H63.8861V53.3283C63.8861 52.7682 63.6636 52.231 63.2675 51.8349C62.8714 51.4388 62.3342 51.2163 61.7741 51.2163" fill="white"/>
<path d="M63.8867 55.4399H59.6627V59.6639H61.7747C62.3349 59.6639 62.8721 59.4414 63.2681 59.0454C63.6642 58.6493 63.8867 58.1121 63.8867 57.5519" fill="white"/>
<path d="M63.8861 68.1118H59.6621V72.3358H63.8861V68.1118Z" fill="white"/>
<path d="M63.8867 72.3359H59.6627V76.5599H61.7747C62.3349 76.5599 62.8721 76.3374 63.2681 75.9413C63.6642 75.5453 63.8867 75.0081 63.8867 74.4479" fill="white"/>
<path d="M59.6621 80.7837V85.0077H61.7741C62.3342 85.0077 62.8714 84.7852 63.2675 84.3891C63.6636 83.993 63.8861 83.4558 63.8861 82.8957C63.8861 82.3356 63.6636 81.7984 63.2675 81.4023C62.8714 81.0062 62.3342 80.7837 61.7741 80.7837" fill="white"/>
<path d="M59.6621 89.2319V93.4559H61.7741C62.3342 93.4559 62.8714 93.2334 63.2675 92.8373C63.6636 92.4413 63.8861 91.9041 63.8861 91.3439C63.8861 90.7838 63.6636 90.2466 63.2675 89.8505C62.8714 89.4544 62.3342 89.2319 61.7741 89.2319" fill="white"/>
<path d="M63.8867 101.904V97.6798H61.7747C61.2146 97.6798 60.6774 97.9023 60.2813 98.2984C59.8852 98.6945 59.6627 99.2317 59.6627 99.7918C59.6627 100.352 59.8852 100.889 60.2813 101.285C60.6774 101.681 61.2146 101.904 61.7747 101.904" fill="white"/>
<path d="M63.8867 110.352V106.128H61.7747C61.2146 106.128 60.6774 106.351 60.2813 106.747C59.8852 107.143 59.6627 107.68 59.6627 108.24C59.6627 108.8 59.8852 109.337 60.2813 109.733C60.6774 110.13 61.2146 110.352 61.7747 110.352" fill="white"/>
<path d="M59.6621 114.576V118.8H61.7741C62.3342 118.8 62.8714 118.578 63.2675 118.182C63.6636 117.786 63.8861 117.248 63.8861 116.688C63.8861 116.128 63.6636 115.591 63.2675 115.195C62.8714 114.799 62.3342 114.576 61.7741 114.576" fill="white"/>
<path d="M63.8861 123.024H59.6621V127.248H63.8861V123.024Z" fill="white"/>
<path d="M63.8867 21.6479H68.1107V19.5359C68.1107 18.9758 67.8882 18.4386 67.4921 18.0425C67.0961 17.6465 66.5589 17.4239 65.9987 17.4239C65.4386 17.4239 64.9014 17.6465 64.5053 18.0425C64.1092 18.4386 63.8867 18.9758 63.8867 19.5359" fill="white"/>
<path d="M68.1107 21.6479H63.8867V25.8719H68.1107V21.6479Z" fill="white"/>
<path d="M68.1107 25.8721H63.8867V30.0961H68.1107V25.8721Z" fill="white"/>
<path d="M68.1113 30.0962H63.8873V32.2082C63.8873 32.7683 64.1098 33.3055 64.5059 33.7016C64.902 34.0977 65.4392 34.3202 65.9993 34.3202C66.5595 34.3202 67.0967 34.0977 67.4927 33.7016C67.8888 33.3055 68.1113 32.7683 68.1113 32.2082" fill="white"/>
<path d="M68.1113 42.7681V38.5441H65.9993C65.4392 38.5441 64.902 38.7666 64.5059 39.1627C64.1098 39.5587 63.8873 40.0959 63.8873 40.6561C63.8873 41.2162 64.1098 41.7534 64.5059 42.1495C64.902 42.5456 65.4392 42.7681 65.9993 42.7681" fill="white"/>
<path d="M68.1113 51.2163V46.9923H65.9993C65.4392 46.9923 64.902 47.2148 64.5059 47.6109C64.1098 48.007 63.8873 48.5442 63.8873 49.1043C63.8873 49.6644 64.1098 50.2016 64.5059 50.5977C64.902 50.9938 65.4392 51.2163 65.9993 51.2163" fill="white"/>
<path d="M63.8867 63.8882H68.1107V59.6642H65.9987C65.4386 59.6642 64.9014 59.8867 64.5053 60.2828C64.1092 60.6788 63.8867 61.216 63.8867 61.7762" fill="white"/>
<path d="M68.1107 63.8882H63.8867V68.1122H68.1107V63.8882Z" fill="white"/>
<path d="M68.1107 68.1118H63.8867V72.3358H68.1107V68.1118Z" fill="white"/>
<path d="M68.1113 80.7837V76.5597H65.9993C65.4392 76.5597 64.902 76.7822 64.5059 77.1783C64.1098 77.5744 63.8873 78.1116 63.8873 78.6717C63.8873 79.2318 64.1098 79.769 64.5059 80.1651C64.902 80.5612 65.4392 80.7837 65.9993 80.7837" fill="white"/>
<path d="M63.8867 97.6802H68.1107V93.4562H65.9987C65.4386 93.4562 64.9014 93.6787 64.5053 94.0748C64.1092 94.4708 63.8867 95.008 63.8867 95.5682" fill="white"/>
<path d="M68.1113 97.6802H63.8873V101.904H65.9993C66.5595 101.904 67.0967 101.682 67.4927 101.286C67.8888 100.89 68.1113 100.352 68.1113 99.7922" fill="white"/>
<path d="M63.8867 106.128V110.352H65.9987C66.5589 110.352 67.0961 110.129 67.4921 109.733C67.8882 109.337 68.1107 108.8 68.1107 108.24C68.1107 107.68 67.8882 107.143 67.4921 106.747C67.0961 106.35 66.5589 106.128 65.9987 106.128" fill="white"/>
<path d="M63.8867 123.024V127.248H65.9987C66.5589 127.248 67.0961 127.025 67.4921 126.629C67.8882 126.233 68.1107 125.696 68.1107 125.136C68.1107 124.576 67.8882 124.039 67.4921 123.643C67.0961 123.246 66.5589 123.024 65.9987 123.024" fill="white"/>
<path d="M68.1113 13.2002H72.3353V8.9762H70.2233C69.6632 8.9762 69.126 9.19871 68.7299 9.59478C68.3338 9.99086 68.1113 10.5281 68.1113 11.0882" fill="white"/>
<path d="M72.3359 17.4238V13.1998H68.1119V15.3118C68.1119 15.872 68.3344 16.4092 68.7305 16.8052C69.1266 17.2013 69.6638 17.4238 70.2239 17.4238" fill="white"/>
<path d="M72.3353 21.6479H68.1113V25.8719H72.3353V21.6479Z" fill="white"/>
<path d="M68.1113 38.5439H72.3353V36.4319C72.3353 35.8718 72.1128 35.3346 71.7167 34.9385C71.3207 34.5425 70.7835 34.3199 70.2233 34.3199C69.6632 34.3199 69.126 34.5425 68.7299 34.9385C68.3338 35.3346 68.1113 35.8718 68.1113 36.4319" fill="white"/>
<path d="M72.3353 38.5439H68.1113V42.7679H72.3353V38.5439Z" fill="white"/>
<path d="M72.3353 42.7681H68.1113V46.9921H72.3353V42.7681Z" fill="white"/>
<path d="M72.3353 46.9917H68.1113V51.2157H72.3353V46.9917Z" fill="white"/>
<path d="M72.3359 55.4399V51.2159H68.1119V53.3279C68.1119 53.8881 68.3344 54.4253 68.7305 54.8214C69.1266 55.2174 69.6638 55.4399 70.2239 55.4399" fill="white"/>
<path d="M68.1113 59.6641V63.8881H72.3353V61.7761C72.3353 61.2159 72.1128 60.6787 71.7167 60.2827C71.3207 59.8866 70.7835 59.6641 70.2233 59.6641" fill="white"/>
<path d="M72.3353 63.8882H68.1113V68.1122H72.3353V63.8882Z" fill="white"/>
<path d="M72.3353 68.1118H68.1113V72.3358H72.3353V68.1118Z" fill="white"/>
<path d="M72.3353 72.3359H68.1113V76.5599H72.3353V72.3359Z" fill="white"/>
<path d="M72.3353 76.5601H68.1113V80.7841H72.3353V76.5601Z" fill="white"/>
<path d="M72.3359 85.0083V80.7843H68.1119V82.8963C68.1119 83.4564 68.3344 83.9936 68.7305 84.3897C69.1266 84.7858 69.6638 85.0083 70.2239 85.0083" fill="white"/>
<path d="M68.1113 93.4561H72.3353V89.2321H70.2233C69.6632 89.2321 69.126 89.4546 68.7299 89.8506C68.3338 90.2467 68.1113 90.7839 68.1113 91.3441" fill="white"/>
<path d="M72.3353 93.4561H68.1113V97.6801H72.3353V93.4561Z" fill="white"/>
<path d="M72.3359 106.128V101.904H70.2239C69.6638 101.904 69.1266 102.126 68.7305 102.523C68.3344 102.919 68.1119 103.456 68.1119 104.016C68.1119 104.576 68.3344 105.113 68.7305 105.509C69.1266 105.905 69.6638 106.128 70.2239 106.128" fill="white"/>
<path d="M70.2233 114.576C71.3898 114.576 72.3353 113.63 72.3353 112.464C72.3353 111.298 71.3898 110.352 70.2233 110.352C69.0569 110.352 68.1113 111.298 68.1113 112.464C68.1113 113.63 69.0569 114.576 70.2233 114.576Z" fill="white"/>
<path d="M70.2233 123.024C71.3898 123.024 72.3353 122.078 72.3353 120.912C72.3353 119.745 71.3898 118.8 70.2233 118.8C69.0569 118.8 68.1113 119.745 68.1113 120.912C68.1113 122.078 69.0569 123.024 70.2233 123.024Z" fill="white"/>
<path d="M72.3359 8.97607V13.2001H76.5599V11.0881C76.5599 10.5279 76.3374 9.99074 75.9413 9.59467C75.5453 9.19859 75.0081 8.97607 74.4479 8.97607" fill="white"/>
<path d="M76.5605 13.2002H72.3365V17.4242H74.4485C75.0087 17.4242 75.5459 17.2017 75.942 16.8056C76.338 16.4095 76.5605 15.8723 76.5605 15.3122" fill="white"/>
<path d="M72.3359 21.6479V25.8719H76.5599V23.7599C76.5599 23.1998 76.3374 22.6626 75.9413 22.2665C75.5453 21.8705 75.0081 21.6479 74.4479 21.6479" fill="white"/>
<path d="M76.5599 25.8721H72.3359V30.0961H76.5599V25.8721Z" fill="white"/>
<path d="M76.5605 30.0962H72.3365V32.2082C72.3365 32.7683 72.5591 33.3055 72.9551 33.7016C73.3512 34.0977 73.8884 34.3202 74.4485 34.3202C75.0087 34.3202 75.5459 34.0977 75.942 33.7016C76.338 33.3055 76.5605 32.7683 76.5605 32.2082" fill="white"/>
<path d="M72.3359 38.5439V42.7679H76.5599V40.6559C76.5599 40.0958 76.3374 39.5586 75.9413 39.1625C75.5453 38.7665 75.0081 38.5439 74.4479 38.5439" fill="white"/>
<path d="M76.5599 42.7681H72.3359V46.9921H76.5599V42.7681Z" fill="white"/>
<path d="M76.5599 51.2163H72.3359V55.4403H76.5599V51.2163Z" fill="white"/>
<path d="M76.5605 55.4399H72.3365V57.5519C72.3365 58.1121 72.5591 58.6493 72.9551 59.0454C73.3512 59.4414 73.8884 59.6639 74.4485 59.6639C75.0087 59.6639 75.5459 59.4414 75.942 59.0454C76.338 58.6493 76.5605 58.1121 76.5605 57.5519" fill="white"/>
<path d="M76.5599 63.8882H72.3359V68.1122H76.5599V63.8882Z" fill="white"/>
<path d="M72.3359 80.7837V85.0077H76.5599V82.8957C76.5599 82.3356 76.3374 81.7984 75.9413 81.4023C75.5453 81.0062 75.0081 80.7837 74.4479 80.7837" fill="white"/>
<path d="M76.5599 85.0083H72.3359V89.2323H76.5599V85.0083Z" fill="white"/>
<path d="M76.5599 89.2319H72.3359V93.4559H76.5599V89.2319Z" fill="white"/>
<path d="M76.5605 93.4561H72.3365V97.6801H74.4485C75.0087 97.6801 75.5459 97.4575 75.942 97.0615C76.338 96.6654 76.5605 96.1282 76.5605 95.5681" fill="white"/>
<path d="M76.5599 101.904H72.3359V106.128H76.5599V101.904Z" fill="white"/>
<path d="M76.5605 110.352V106.128H72.3365V108.24C72.3365 108.8 72.5591 109.337 72.9551 109.733C73.3512 110.13 73.8884 110.352 74.4485 110.352" fill="white"/>
<path d="M78.6725 8.97595C79.839 8.97595 80.7845 8.03038 80.7845 6.86395C80.7845 5.69753 79.839 4.75195 78.6725 4.75195C77.5061 4.75195 76.5605 5.69753 76.5605 6.86395C76.5605 8.03038 77.5061 8.97595 78.6725 8.97595Z" fill="white"/>
<path d="M80.7832 21.6479V17.4239H78.6712C78.1111 17.4239 77.5739 17.6465 77.1778 18.0425C76.7817 18.4386 76.5592 18.9758 76.5592 19.5359C76.5592 20.0961 76.7817 20.6333 77.1778 21.0294C77.5739 21.4254 78.1111 21.6479 78.6712 21.6479" fill="white"/>
<path d="M76.5605 42.7681V46.9921H80.7845V44.8801C80.7845 44.3199 80.562 43.7827 80.166 43.3867C79.7699 42.9906 79.2327 42.7681 78.6725 42.7681" fill="white"/>
<path d="M80.7845 46.9917H76.5605V51.2157H80.7845V46.9917Z" fill="white"/>
<path d="M80.7832 51.2163H76.5592V55.4403H78.6712C79.2313 55.4403 79.7685 55.2178 80.1646 54.8217C80.5607 54.4256 80.7832 53.8884 80.7832 53.3283" fill="white"/>
<path d="M80.7845 63.8882H76.5605V68.1122H80.7845V63.8882Z" fill="white"/>
<path d="M76.5605 76.5601H80.7845V72.3361H78.6725C78.1124 72.3361 77.5752 72.5586 77.1791 72.9546C76.7831 73.3507 76.5605 73.8879 76.5605 74.4481" fill="white"/>
<path d="M80.7832 76.5601H76.5592V78.6721C76.5592 79.2322 76.7817 79.7694 77.1778 80.1655C77.5739 80.5615 78.1111 80.7841 78.6712 80.7841C79.2313 80.7841 79.7685 80.5615 80.1646 80.1655C80.5607 79.7694 80.7832 79.2322 80.7832 78.6721" fill="white"/>
<path d="M76.5605 85.0083V89.2323H80.7845V87.1203C80.7845 86.5602 80.562 86.023 80.166 85.6269C79.7699 85.2308 79.2327 85.0083 78.6725 85.0083" fill="white"/>
<path d="M80.7832 89.2319H76.5592V93.4559H78.6712C79.2313 93.4559 79.7685 93.2334 80.1646 92.8373C80.5607 92.4413 80.7832 91.9041 80.7832 91.3439" fill="white"/>
<path d="M76.5605 101.904H80.7845V99.7918C80.7845 99.2317 80.562 98.6945 80.166 98.2984C79.7699 97.9023 79.2327 97.6798 78.6725 97.6798C78.1124 97.6798 77.5752 97.9023 77.1791 98.2984C76.7831 98.6945 76.5605 99.2317 76.5605 99.7918" fill="white"/>
<path d="M80.7845 101.904H76.5605V106.128H80.7845V101.904Z" fill="white"/>
<path d="M80.7845 106.128H76.5605V110.352H80.7845V106.128Z" fill="white"/>
<path d="M80.7845 110.352H76.5605V114.576H80.7845V110.352Z" fill="white"/>
<path d="M80.7832 114.576H76.5592V116.688C76.5592 117.248 76.7817 117.786 77.1778 118.182C77.5739 118.578 78.1111 118.8 78.6712 118.8C79.2313 118.8 79.7685 118.578 80.1646 118.182C80.5607 117.786 80.7832 117.248 80.7832 116.688" fill="white"/>
<path d="M80.7832 127.248V123.024H78.6712C78.1111 123.024 77.5739 123.247 77.1778 123.643C76.7817 124.039 76.5592 124.576 76.5592 125.136C76.5592 125.696 76.7817 126.233 77.1778 126.629C77.5739 127.026 78.1111 127.248 78.6712 127.248" fill="white"/>
<path d="M85.0072 17.4238H80.7832V21.6478H85.0072V17.4238Z" fill="white"/>
<path d="M85.0072 21.6479H80.7832V25.8719H85.0072V21.6479Z" fill="white"/>
<path d="M85.0072 25.8721H80.7832V30.0961H85.0072V25.8721Z" fill="white"/>
<path d="M85.0078 30.0962H80.7838V32.2082C80.7838 32.7683 81.0063 33.3055 81.4024 33.7016C81.7985 34.0977 82.3357 34.3202 82.8958 34.3202C83.4559 34.3202 83.9931 34.0977 84.3892 33.7016C84.7853 33.3055 85.0078 32.7683 85.0078 32.2082" fill="white"/>
<path d="M85.0078 59.6641V55.4401H82.8958C82.3357 55.4401 81.7985 55.6626 81.4024 56.0587C81.0063 56.4547 80.7838 56.9919 80.7838 57.5521C80.7838 58.1122 81.0063 58.6494 81.4024 59.0455C81.7985 59.4416 82.3357 59.6641 82.8958 59.6641" fill="white"/>
<path d="M85.0072 63.8882H80.7832V68.1122H85.0072V63.8882Z" fill="white"/>
<path d="M80.7832 72.3359V76.5599H82.8952C83.4553 76.5599 83.9925 76.3374 84.3886 75.9413C84.7847 75.5453 85.0072 75.0081 85.0072 74.4479C85.0072 73.8878 84.7847 73.3506 84.3886 72.9545C83.9925 72.5584 83.4553 72.3359 82.8952 72.3359" fill="white"/>
<path d="M85.0078 85.0083V80.7843H82.8958C82.3357 80.7843 81.7985 81.0068 81.4024 81.4029C81.0063 81.799 80.7838 82.3362 80.7838 82.8963C80.7838 83.4564 81.0063 83.9936 81.4024 84.3897C81.7985 84.7858 82.3357 85.0083 82.8958 85.0083" fill="white"/>
<path d="M85.0072 123.024H80.7832V127.248H85.0072V123.024Z" fill="white"/>
<path d="M89.2318 17.4238H85.0078V21.6478H89.2318V17.4238Z" fill="white"/>
<path d="M89.2318 21.6479H85.0078V25.8719H89.2318V21.6479Z" fill="white"/>
<path d="M87.1198 42.7679C88.2862 42.7679 89.2318 41.8224 89.2318 40.6559C89.2318 39.4895 88.2862 38.5439 87.1198 38.5439C85.9534 38.5439 85.0078 39.4895 85.0078 40.6559C85.0078 41.8224 85.9534 42.7679 87.1198 42.7679Z" fill="white"/>
<path d="M85.0078 55.4399V59.6639H87.1198C87.6799 59.6639 88.2171 59.4414 88.6132 59.0454C89.0093 58.6493 89.2318 58.1121 89.2318 57.5519C89.2318 56.9918 89.0093 56.4546 88.6132 56.0585C88.2171 55.6625 87.6799 55.4399 87.1198 55.4399" fill="white"/>
<path d="M89.2318 63.8882H85.0078V68.1122H89.2318V63.8882Z" fill="white"/>
<path d="M85.0078 80.7837H89.2318V78.6717C89.2318 78.1116 89.0093 77.5744 88.6132 77.1783C88.2171 76.7822 87.6799 76.5597 87.1198 76.5597C86.5597 76.5597 86.0225 76.7822 85.6264 77.1783C85.2303 77.5744 85.0078 78.1116 85.0078 78.6717" fill="white"/>
<path d="M89.2305 80.7837H85.0065V85.0077H87.1185C87.6786 85.0077 88.2158 84.7852 88.6119 84.3891C89.008 83.993 89.2305 83.4558 89.2305 82.8957" fill="white"/>
<path d="M89.2305 93.4561V89.2321H87.1185C86.5583 89.2321 86.0211 89.4546 85.6251 89.8506C85.229 90.2467 85.0065 90.7839 85.0065 91.3441C85.0065 91.9042 85.229 92.4414 85.6251 92.8375C86.0211 93.2335 86.5583 93.4561 87.1185 93.4561" fill="white"/>
<path d="M85.0078 106.128H89.2318V101.904H87.1198C86.5597 101.904 86.0225 102.126 85.6264 102.523C85.2303 102.919 85.0078 103.456 85.0078 104.016" fill="white"/>
<path d="M89.2318 106.128H85.0078V110.352H89.2318V106.128Z" fill="white"/>
<path d="M89.2305 114.576V110.352H85.0065V112.464C85.0065 113.024 85.229 113.562 85.6251 113.958C86.0211 114.354 86.5583 114.576 87.1185 114.576" fill="white"/>
<path d="M89.2318 123.024H85.0078V127.248H89.2318V123.024Z" fill="white"/>
<path d="M89.2305 8.97607H93.4545V6.86407C93.4545 6.30394 93.232 5.76674 92.8359 5.37066C92.4398 4.97459 91.9026 4.75207 91.3425 4.75207C90.7823 4.75207 90.2451 4.97459 89.8491 5.37066C89.453 5.76674 89.2305 6.30394 89.2305 6.86407" fill="white"/>
<path d="M93.4545 8.97607H89.2305V13.2001H93.4545V8.97607Z" fill="white"/>
<path d="M93.4545 13.2002H89.2305V17.4242H93.4545V13.2002Z" fill="white"/>
<path d="M93.4545 17.4238H89.2305V21.6478H93.4545V17.4238Z" fill="white"/>
<path d="M93.4551 21.6479H89.2311V25.8719H91.3431C91.9032 25.8719 92.4404 25.6494 92.8365 25.2534C93.2326 24.8573 93.4551 24.3201 93.4551 23.7599" fill="white"/>
<path d="M89.2305 34.3198H93.4545V32.2078C93.4545 31.6477 93.232 31.1105 92.8359 30.7144C92.4398 30.3183 91.9026 30.0958 91.3425 30.0958C90.7823 30.0958 90.2451 30.3183 89.8491 30.7144C89.453 31.1105 89.2305 31.6477 89.2305 32.2078" fill="white"/>
<path d="M93.4551 34.3198H89.2311V36.4318C89.2311 36.992 89.4536 37.5292 89.8497 37.9252C90.2457 38.3213 90.7829 38.5438 91.3431 38.5438C91.9032 38.5438 92.4404 38.3213 92.8365 37.9252C93.2326 37.5292 93.4551 36.992 93.4551 36.4318" fill="white"/>
<path d="M93.4551 46.9917V42.7677H91.3431C90.7829 42.7677 90.2457 42.9902 89.8497 43.3863C89.4536 43.7824 89.2311 44.3196 89.2311 44.8797C89.2311 45.4398 89.4536 45.977 89.8497 46.3731C90.2457 46.7692 90.7829 46.9917 91.3431 46.9917" fill="white"/>
<path d="M89.2305 63.8882H93.4545V61.7762C93.4545 61.216 93.232 60.6788 92.8359 60.2828C92.4398 59.8867 91.9026 59.6642 91.3425 59.6642C90.7823 59.6642 90.2451 59.8867 89.8491 60.2828C89.453 60.6788 89.2305 61.216 89.2305 61.7762" fill="white"/>
<path d="M93.4545 63.8882H89.2305V68.1122H93.4545V63.8882Z" fill="white"/>
<path d="M93.4551 72.3359V68.1119H89.2311V70.2239C89.2311 70.7841 89.4536 71.3213 89.8497 71.7173C90.2457 72.1134 90.7829 72.3359 91.3431 72.3359" fill="white"/>
<path d="M89.2305 89.2319H93.4545V87.1199C93.4545 86.5598 93.232 86.0226 92.8359 85.6265C92.4398 85.2304 91.9026 85.0079 91.3425 85.0079C90.7823 85.0079 90.2451 85.2304 89.8491 85.6265C89.453 86.0226 89.2305 86.5598 89.2305 87.1199" fill="white"/>
<path d="M93.4545 89.2319H89.2305V93.4559H93.4545V89.2319Z" fill="white"/>
<path d="M93.4545 93.4561H89.2305V97.6801H93.4545V93.4561Z" fill="white"/>
<path d="M93.4545 97.6802H89.2305V101.904H93.4545V97.6802Z" fill="white"/>
<path d="M93.4545 101.904H89.2305V106.128H93.4545V101.904Z" fill="white"/>
<path d="M93.4545 106.128H89.2305V110.352H93.4545V106.128Z" fill="white"/>
<path d="M93.4551 110.352H89.2311V114.576H91.3431C91.9032 114.576 92.4404 114.354 92.8365 113.957C93.2326 113.561 93.4551 113.024 93.4551 112.464" fill="white"/>
<path d="M93.4545 123.024H89.2305V127.248H93.4545V123.024Z" fill="white"/>
<path d="M93.4551 42.7681H97.6791V40.6561C97.6791 40.0959 97.4566 39.5587 97.0605 39.1627C96.6644 38.7666 96.1272 38.5441 95.5671 38.5441C95.0069 38.5441 94.4697 38.7666 94.0737 39.1627C93.6776 39.5587 93.4551 40.0959 93.4551 40.6561" fill="white"/>
<path d="M97.6791 42.7681H93.4551V46.9921H97.6791V42.7681Z" fill="white"/>
<path d="M95.5671 59.6639C96.7335 59.6639 97.6791 58.7184 97.6791 57.5519C97.6791 56.3855 96.7335 55.4399 95.5671 55.4399C94.4007 55.4399 93.4551 56.3855 93.4551 57.5519C93.4551 58.7184 94.4007 59.6639 95.5671 59.6639Z" fill="white"/>
<path d="M97.6791 68.1118H93.4551V72.3358H97.6791V68.1118Z" fill="white"/>
<path d="M97.6791 72.3359H93.4551V76.5599H97.6791V72.3359Z" fill="white"/>
<path d="M97.6791 76.5601H93.4551V80.7841H97.6791V76.5601Z" fill="white"/>
<path d="M97.6797 85.0083V80.7843H93.4557V82.8963C93.4557 83.4564 93.6782 83.9936 94.0743 84.3897C94.4704 84.7858 95.0076 85.0083 95.5677 85.0083" fill="white"/>
<path d="M97.6791 89.2319H93.4551V93.4559H97.6791V89.2319Z" fill="white"/>
<path d="M97.6791 106.128H93.4551V110.352H97.6791V106.128Z" fill="white"/>
<path d="M93.4551 118.8H97.6791V116.688C97.6791 116.128 97.4566 115.59 97.0605 115.194C96.6644 114.798 96.1272 114.576 95.5671 114.576C95.0069 114.576 94.4697 114.798 94.0737 115.194C93.6776 115.59 93.4551 116.128 93.4551 116.688" fill="white"/>
<path d="M97.6791 118.8H93.4551V123.024H97.6791V118.8Z" fill="white"/>
<path d="M97.6791 123.024H93.4551V127.248H97.6791V123.024Z" fill="white"/>
<path d="M101.904 42.7681H97.6797V46.9921H101.904V42.7681Z" fill="white"/>
<path d="M101.904 46.9917H97.6797V51.2157H101.904V46.9917Z" fill="white"/>
<path d="M101.902 55.4399V51.2159H97.6783V53.3279C97.6783 53.8881 97.9009 54.4253 98.2969 54.8214C98.693 55.2174 99.2302 55.4399 99.7903 55.4399" fill="white"/>
<path d="M97.6797 63.8882H101.904V61.7762C101.904 61.216 101.681 60.6788 101.285 60.2828C100.889 59.8867 100.352 59.6642 99.7917 59.6642C99.2316 59.6642 98.6944 59.8867 98.2983 60.2828C97.9022 60.6788 97.6797 61.216 97.6797 61.7762" fill="white"/>
<path d="M101.904 63.8882H97.6797V68.1122H101.904V63.8882Z" fill="white"/>
<path d="M101.902 68.1118H97.6783V72.3358H99.7903C100.35 72.3358 100.888 72.1133 101.284 71.7172C101.68 71.3212 101.902 70.784 101.902 70.2238" fill="white"/>
<path d="M97.6797 80.7837V85.0077H101.904V82.8957C101.904 82.3356 101.681 81.7984 101.285 81.4023C100.889 81.0062 100.352 80.7837 99.7917 80.7837" fill="white"/>
<path d="M101.904 85.0083H97.6797V89.2323H101.904V85.0083Z" fill="white"/>
<path d="M101.904 89.2319H97.6797V93.4559H101.904V89.2319Z" fill="white"/>
<path d="M99.7917 101.904C100.958 101.904 101.904 100.959 101.904 99.7922C101.904 98.6258 100.958 97.6802 99.7917 97.6802C98.6253 97.6802 97.6797 98.6258 97.6797 99.7922C97.6797 100.959 98.6253 101.904 99.7917 101.904Z" fill="white"/>
<path d="M101.904 106.128H97.6797V110.352H101.904V106.128Z" fill="white"/>
<path d="M101.904 123.024H97.6797V127.248H101.904V123.024Z" fill="white"/>
<path d="M106.126 42.7681H101.902V46.9921H106.126V42.7681Z" fill="white"/>
<path d="M106.126 51.2163H101.902V55.4403H106.126V51.2163Z" fill="white"/>
<path d="M106.127 76.5601V72.3361H104.015C103.455 72.3361 102.918 72.5586 102.522 72.9546C102.125 73.3507 101.903 73.8879 101.903 74.4481C101.903 75.0082 102.125 75.5454 102.522 75.9415C102.918 76.3375 103.455 76.5601 104.015 76.5601" fill="white"/>
<path d="M106.126 85.0083H101.902V89.2323H106.126V85.0083Z" fill="white"/>
<path d="M106.126 89.2319H101.902V93.4559H106.126V89.2319Z" fill="white"/>
<path d="M106.126 106.128H101.902V110.352H106.126V106.128Z" fill="white"/>
<path d="M106.127 110.352H101.903V112.464C101.903 113.024 102.125 113.561 102.522 113.957C102.918 114.354 103.455 114.576 104.015 114.576C104.575 114.576 105.112 114.354 105.508 113.957C105.904 113.561 106.127 113.024 106.127 112.464" fill="white"/>
<path d="M101.902 123.024V127.248H104.014C104.574 127.248 105.112 127.025 105.508 126.629C105.904 126.233 106.126 125.696 106.126 125.136C106.126 124.576 105.904 124.039 105.508 123.643C105.112 123.246 104.574 123.024 104.014 123.024" fill="white"/>
<path d="M106.127 42.7681H110.351V40.6561C110.351 40.0959 110.128 39.5587 109.732 39.1627C109.336 38.7666 108.799 38.5441 108.239 38.5441C107.679 38.5441 107.142 38.7666 106.746 39.1627C106.349 39.5587 106.127 40.0959 106.127 40.6561" fill="white"/>
<path d="M110.352 42.7681H106.128V46.9921H108.24C108.8 46.9921 109.337 46.7696 109.733 46.3735C110.129 45.9774 110.352 45.4402 110.352 44.8801" fill="white"/>
<path d="M110.351 51.2163H106.127V55.4403H110.351V51.2163Z" fill="white"/>
<path d="M106.127 72.3359V76.5599H108.239C108.799 76.5599 109.336 76.3374 109.732 75.9413C110.128 75.5453 110.351 75.0081 110.351 74.4479C110.351 73.8878 110.128 73.3506 109.732 72.9545C109.336 72.5584 108.799 72.3359 108.239 72.3359" fill="white"/>
<path d="M106.127 85.0083V89.2323H110.351V87.1203C110.351 86.5602 110.128 86.023 109.732 85.6269C109.336 85.2308 108.799 85.0083 108.239 85.0083" fill="white"/>
<path d="M110.351 89.2319H106.127V93.4559H110.351V89.2319Z" fill="white"/>
<path d="M110.351 93.4561H106.127V97.6801H110.351V93.4561Z" fill="white"/>
<path d="M110.351 97.6802H106.127V101.904H110.351V97.6802Z" fill="white"/>
<path d="M110.351 101.904H106.127V106.128H110.351V101.904Z" fill="white"/>
<path d="M110.352 106.128H106.128V110.352H108.24C108.8 110.352 109.337 110.129 109.733 109.733C110.129 109.337 110.352 108.8 110.352 108.24" fill="white"/>
<path d="M110.352 51.2163H114.576V49.1043C114.576 48.5442 114.353 48.007 113.957 47.6109C113.561 47.2148 113.024 46.9923 112.464 46.9923C111.903 46.9923 111.366 47.2148 110.97 47.6109C110.574 48.007 110.352 48.5442 110.352 49.1043" fill="white"/>
<path d="M114.576 51.2163H110.352V55.4403H114.576V51.2163Z" fill="white"/>
<path d="M114.576 55.4399H110.352V59.6639H114.576V55.4399Z" fill="white"/>
<path d="M114.576 59.6641H110.352V63.8881H114.576V59.6641Z" fill="white"/>
<path d="M114.576 63.8882H110.352V66.0002C110.352 66.5603 110.575 67.0975 110.971 67.4936C111.367 67.8897 111.904 68.1122 112.464 68.1122C113.024 68.1122 113.562 67.8897 113.958 67.4936C114.354 67.0975 114.576 66.5603 114.576 66.0002" fill="white"/>
<path d="M110.352 80.7837H114.576V76.5597H112.464C111.903 76.5597 111.366 76.7822 110.97 77.1783C110.574 77.5744 110.352 78.1116 110.352 78.6717" fill="white"/>
<path d="M114.576 85.0083V80.7843H110.352V82.8963C110.352 83.4564 110.575 83.9936 110.971 84.3897C111.367 84.7858 111.904 85.0083 112.464 85.0083" fill="white"/>
<path d="M110.352 101.904V106.128H112.464C113.024 106.128 113.561 105.905 113.957 105.509C114.353 105.113 114.576 104.576 114.576 104.016C114.576 103.456 114.353 102.918 113.957 102.522C113.561 102.126 113.024 101.904 112.464 101.904" fill="white"/>
<path d="M110.352 114.576H114.576V110.352H112.464C111.903 110.352 111.366 110.575 110.97 110.971C110.574 111.367 110.352 111.904 110.352 112.464" fill="white"/>
<path d="M114.576 114.576H110.352V118.8H114.576V114.576Z" fill="white"/>
<path d="M114.576 123.024V118.8H110.352V120.912C110.352 121.472 110.575 122.009 110.971 122.405C111.367 122.801 111.904 123.024 112.464 123.024" fill="white"/>
<path d="M118.8 55.4399H114.576V59.6639H118.8V55.4399Z" fill="white"/>
<path d="M118.8 59.6641H114.576V63.8881H118.8V59.6641Z" fill="white"/>
<path d="M118.801 72.3359V68.1119H116.689C116.129 68.1119 115.591 68.3344 115.195 68.7305C114.799 69.1266 114.577 69.6638 114.577 70.2239C114.577 70.7841 114.799 71.3213 115.195 71.7173C115.591 72.1134 116.129 72.3359 116.689 72.3359" fill="white"/>
<path d="M118.8 76.5601H114.576V80.7841H118.8V76.5601Z" fill="white"/>
<path d="M118.8 80.7837H114.576V85.0077H118.8V80.7837Z" fill="white"/>
<path d="M118.8 85.0083H114.576V89.2323H118.8V85.0083Z" fill="white"/>
<path d="M118.8 89.2319H114.576V93.4559H118.8V89.2319Z" fill="white"/>
<path d="M118.801 93.4561H114.577V95.5681C114.577 96.1282 114.799 96.6654 115.195 97.0615C115.591 97.4575 116.129 97.6801 116.689 97.6801C117.249 97.6801 117.786 97.4575 118.182 97.0615C118.578 96.6654 118.801 96.1282 118.801 95.5681" fill="white"/>
<path d="M118.8 110.352H114.576V114.576H118.8V110.352Z" fill="white"/>
<path d="M118.8 118.8H114.576V123.024H118.8V118.8Z" fill="white"/>
<path d="M118.801 127.248V123.024H114.577V125.136C114.577 125.696 114.799 126.233 115.195 126.629C115.591 127.026 116.129 127.248 116.689 127.248" fill="white"/>
<path d="M120.913 42.7679C122.079 42.7679 123.025 41.8224 123.025 40.6559C123.025 39.4895 122.079 38.5439 120.913 38.5439C119.746 38.5439 118.801 39.4895 118.801 40.6559C118.801 41.8224 119.746 42.7679 120.913 42.7679Z" fill="white"/>
<path d="M123.023 51.2163V46.9923H120.911C120.351 46.9923 119.814 47.2148 119.418 47.6109C119.022 48.007 118.799 48.5442 118.799 49.1043C118.799 49.6644 119.022 50.2016 119.418 50.5977C119.814 50.9938 120.351 51.2163 120.911 51.2163" fill="white"/>
<path d="M123.025 55.4399H118.801V59.6639H123.025V55.4399Z" fill="white"/>
<path d="M123.025 59.6641H118.801V63.8881H123.025V59.6641Z" fill="white"/>
<path d="M123.025 63.8882H118.801V68.1122H123.025V63.8882Z" fill="white"/>
<path d="M123.025 68.1118H118.801V72.3358H123.025V68.1118Z" fill="white"/>
<path d="M123.025 72.3359H118.801V76.5599H123.025V72.3359Z" fill="white"/>
<path d="M123.025 76.5601H118.801V80.7841H123.025V76.5601Z" fill="white"/>
<path d="M123.025 80.7837H118.801V85.0077H123.025V80.7837Z" fill="white"/>
<path d="M123.025 85.0083H118.801V89.2323H123.025V85.0083Z" fill="white"/>
<path d="M123.025 89.2319H118.801V93.4559H123.025V89.2319Z" fill="white"/>
<path d="M120.913 106.128C122.079 106.128 123.025 105.182 123.025 104.016C123.025 102.849 122.079 101.904 120.913 101.904C119.746 101.904 118.801 102.849 118.801 104.016C118.801 105.182 119.746 106.128 120.913 106.128Z" fill="white"/>
<path d="M118.801 110.352V114.576H120.913C121.473 114.576 122.01 114.354 122.406 113.957C122.802 113.561 123.025 113.024 123.025 112.464C123.025 111.904 122.802 111.367 122.406 110.971C122.01 110.575 121.473 110.352 120.913 110.352" fill="white"/>
<path d="M123.025 118.8H118.801V123.024H123.025V118.8Z" fill="white"/>
<path d="M123.023 123.024H118.799V127.248H120.911C121.472 127.248 122.009 127.025 122.405 126.629C122.801 126.233 123.023 125.696 123.023 125.136" fill="white"/>
<path d="M123.023 46.9917V51.2157H125.135C125.696 51.2157 126.233 50.9932 126.629 50.5971C127.025 50.201 127.247 49.6638 127.247 49.1037C127.247 48.5436 127.025 48.0064 126.629 47.6103C126.233 47.2142 125.696 46.9917 125.135 46.9917" fill="white"/>
<path d="M123.023 55.4399V59.6639H127.247V57.5519C127.247 56.9918 127.025 56.4546 126.629 56.0585C126.233 55.6625 125.696 55.4399 125.135 55.4399" fill="white"/>
<path d="M127.248 59.6641H123.024V63.8881H125.136C125.696 63.8881 126.233 63.6656 126.629 63.2695C127.026 62.8734 127.248 62.3362 127.248 61.7761" fill="white"/>
<path d="M123.023 89.2319V93.4559H127.247V91.3439C127.247 90.7838 127.025 90.2466 126.629 89.8505C126.233 89.4544 125.696 89.2319 125.135 89.2319" fill="white"/>
<path d="M127.247 93.4561H123.023V97.6801H127.247V93.4561Z" fill="white"/>
<path d="M127.248 97.6802H123.024V99.7922C123.024 100.352 123.247 100.89 123.643 101.286C124.039 101.682 124.576 101.904 125.136 101.904C125.696 101.904 126.233 101.682 126.629 101.286C127.026 100.89 127.248 100.352 127.248 99.7922" fill="white"/>
<path d="M125.135 110.352C126.302 110.352 127.247 109.406 127.247 108.24C127.247 107.074 126.302 106.128 125.135 106.128C123.969 106.128 123.023 107.074 123.023 108.24C123.023 109.406 123.969 110.352 125.135 110.352Z" fill="white"/>
<path d="M123.023 118.8V123.024H125.135C125.696 123.024 126.233 122.801 126.629 122.405C127.025 122.009 127.247 121.472 127.247 120.912C127.247 120.352 127.025 119.814 126.629 119.418C126.233 119.022 125.696 118.8 125.135 118.8" fill="white"/>
<path fill-rule="evenodd" clip-rule="evenodd" d="M4.75 4.75195V34.32H34.318V4.75195H4.75ZM8.974 8.97595H30.094V30.096H8.974V8.97595Z" fill="white"/>
<path d="M25.8712 13.2002H13.1992V25.8722H25.8712V13.2002Z" fill="white"/>
<path fill-rule="evenodd" clip-rule="evenodd" d="M127.248 4.75195L97.68 4.75195V34.32H127.248V4.75195ZM123.024 8.97595V30.096H101.904V8.97595L123.024 8.97595Z" fill="white"/>
<path d="M118.801 25.8722V13.2002H106.129V25.8722H118.801Z" fill="white"/>
<path fill-rule="evenodd" clip-rule="evenodd" d="M4.75 127.248H34.318V97.68H4.75L4.75 127.248ZM8.974 123.024L8.974 101.904H30.094V123.024H8.974Z" fill="white"/>
<path d="M13.1992 106.128V118.8H25.8712V106.128H13.1992Z" fill="white"/>
</mask>
<g mask="url(#mask0_127_10505)">
<path d="M132 0H0V132H132V0Z" fill="black"/>
</g>
</g>
<defs>
<clipPath id="clip0_127_10505">
<rect width="132" height="132" fill="white"/>
</clipPath>
</defs>
</svg>
