<svg width="60" height="60" viewBox="0 0 60 60" fill="none" xmlns="http://www.w3.org/2000/svg">
<rect width="60" height="60" rx="7.74194" fill="#F4EFE8"/>
<path d="M42.2908 18.2229C42.2908 18.2229 45.0322 17.1539 44.8029 19.75C44.7274 20.819 44.0422 24.561 43.5087 28.6079L41.6811 40.5968C41.6811 40.5968 41.5287 42.3532 40.1576 42.6587C38.7873 42.9636 36.731 41.5897 36.35 41.2841C36.0451 41.0548 30.6385 37.6183 28.7346 35.9389C28.2012 35.4802 27.5915 34.5643 28.8108 33.4952L36.8072 25.8587C37.721 24.9414 38.6348 22.8033 34.8272 25.4001L24.1649 32.6541C24.1649 32.6541 22.9462 33.4183 20.6621 32.731L15.7112 31.2033C15.7112 31.2033 13.8836 30.058 17.0061 28.9128C24.6221 25.3238 33.9896 21.6587 42.2901 18.2222" fill="#1E1E1E"/>
</svg>
