<svg width="1984" height="608" viewBox="0 0 1984 608" fill="none" xmlns="http://www.w3.org/2000/svg">
<g clip-path="url(#clip0_227_11041)">
<path d="M1864.15 125.8C1938.27 125.8 1983.83 194.48 1983.83 306.68C1983.83 418.2 1938.95 487.56 1866.87 487.56C1843.07 487.56 1822.67 480.08 1805.67 465.8V607.24H1696.87V131.24H1750.59L1779.83 169.32C1800.23 141.44 1828.79 125.8 1864.15 125.8ZM1802.27 306.68C1802.27 369.24 1813.83 395.76 1839.67 395.76C1866.19 395.76 1877.75 369.24 1877.75 306.68C1877.75 244.12 1866.19 218.28 1839.67 218.28C1813.83 218.28 1802.27 244.12 1802.27 306.68Z" fill="#353535"/>
<path d="M1627.83 486.2C1557.11 486.2 1522.43 448.8 1522.43 371.96V6.12012H1631.23V362.44C1631.23 384.88 1639.39 393.72 1660.47 393.72C1669.31 393.72 1678.83 392.36 1687.67 389.64V478.72C1667.95 483.48 1646.87 486.2 1627.83 486.2Z" fill="#353535"/>
<path d="M1397.9 488.24C1302.7 488.24 1244.22 419.56 1244.22 308.04C1244.22 197.88 1298.62 125.12 1380.9 125.12C1480.18 125.12 1537.98 223.72 1514.86 346.8H1344.86C1349.62 385.56 1373.42 405.96 1412.86 405.96C1437.34 405.96 1464.54 399.16 1494.46 384.88V466.48C1461.14 481.44 1429.18 488.24 1397.9 488.24ZM1344.18 274.04H1422.38C1419.66 231.2 1405.38 207.4 1382.94 207.4C1359.82 207.4 1346.9 230.52 1344.18 274.04Z" fill="#353535"/>
<path d="M1110.32 482.12V296.48H1021.24V482.12H903.604V6.12012H1021.24V185.64H1110.32V6.12012H1227.96V482.12H1110.32Z" fill="#353535"/>
<path d="M757.865 486.2C686.465 486.2 649.065 448.12 649.065 374.68V225.76H605.545V178.84L710.265 46.2402H757.865V131.24H821.785V221H757.865V358.36C757.865 382.84 768.745 394.4 790.505 394.4C802.065 394.4 813.625 391.68 823.825 385.56V476C799.345 482.8 778.265 486.2 757.865 486.2Z" fill="#353535"/>
<path d="M494.621 488.24C399.421 488.24 340.941 419.56 340.941 308.04C340.941 197.88 395.341 125.12 477.621 125.12C576.901 125.12 634.701 223.72 611.581 346.8H441.581C446.341 385.56 470.141 405.96 509.581 405.96C534.061 405.96 561.261 399.16 591.181 384.88V466.48C557.861 481.44 525.901 488.24 494.621 488.24ZM440.901 274.04H519.101C516.381 231.2 502.101 207.4 479.661 207.4C456.541 207.4 443.621 230.52 440.901 274.04Z" fill="#353535"/>
<path d="M170 488.24C60.52 488.24 0 401.2 0 244.12C0 83.64 63.24 0 183.6 0C224.4 0 261.8 9.52 299.2 29.92V133.96C268.6 115.6 235.96 106.08 205.36 106.08C142.8 106.08 115.6 148.92 115.6 249.56C115.6 337.96 137.36 386.92 176.12 386.92C209.44 386.92 229.84 350.88 231.88 291.04H166.6V206.72H338.64C351.56 384.88 291.04 488.24 170 488.24Z" fill="#353535"/>
</g>
<defs>
<clipPath id="clip0_227_11041">
<rect width="1983.83" height="607.24" fill="white"/>
</clipPath>
</defs>
</svg>
