<svg width="1805" height="565" viewBox="0 0 1805 565" fill="none" xmlns="http://www.w3.org/2000/svg">
<g clip-path="url(#clip0_227_11034)">
<path d="M1728.33 562.222C1645.77 562.222 1602.52 518.188 1602.52 433.265V261.059H1552.19V206.803L1673.29 53.4697H1728.33V151.76H1802.24V255.555H1728.33V414.393C1728.33 442.7 1740.91 456.068 1766.07 456.068C1779.44 456.068 1792.81 452.923 1804.6 445.846V550.427C1776.3 558.29 1751.92 562.222 1728.33 562.222Z" fill="#ECB9EB"/>
<path d="M1301.1 557.503V443.486H1364.01V121.093H1305.82V7.07617H1557.45V121.093H1500.04V443.486H1562.16V557.503H1301.1Z" fill="#ECB9EB"/>
<path d="M900.742 557.504V151.761H962.076L996.674 195.795C1021.05 162.769 1056.43 144.684 1099.68 144.684C1177.53 144.684 1228.64 200.513 1228.64 286.222V557.504H1103.61V301.949C1103.61 269.709 1089.46 251.624 1065.08 251.624C1039.92 251.624 1026.55 269.709 1026.55 301.949V557.504H900.742Z" fill="#ECB9EB"/>
<path d="M495.281 557.503L393.059 151.76H518.084L561.332 354.632L605.366 214.666H691.862L735.896 352.273L778.358 151.76H904.17L801.947 557.503H707.588L648.614 378.221L589.64 557.503H495.281Z" fill="#ECB9EB"/>
<path d="M203.658 564.581C74.7009 564.581 0 460.786 0 282.291C0 103.795 74.7009 0 203.658 0C333.402 0 408.103 103.795 408.103 282.291C408.103 460.786 333.402 564.581 203.658 564.581ZM140.752 282.291C140.752 390.017 161.197 441.128 203.658 441.128C246.906 441.128 267.35 390.017 267.35 282.291C267.35 174.564 246.906 123.453 203.658 123.453C161.197 123.453 140.752 174.564 140.752 282.291Z" fill="#ECB9EB"/>
</g>
<defs>
<clipPath id="clip0_227_11034">
<rect width="1804.6" height="564.581" fill="white"/>
</clipPath>
</defs>
</svg>
