<svg width="1690" height="703" viewBox="0 0 1690 703" fill="none" xmlns="http://www.w3.org/2000/svg">
<g clip-path="url(#clip0_227_11020)">
<path d="M1495.95 563.795C1410.24 563.795 1357.55 484.376 1357.55 354.633C1357.55 225.675 1409.45 145.47 1492.8 145.47C1520.32 145.47 1543.91 154.12 1563.57 170.633V7.07715H1689.38V557.504H1627.26L1593.45 513.47C1569.86 545.71 1536.83 563.795 1495.95 563.795ZM1480.22 354.633C1480.22 426.975 1493.59 456.855 1524.25 456.855C1554.13 456.855 1567.5 426.975 1567.5 354.633C1567.5 282.291 1554.13 251.624 1524.25 251.624C1493.59 251.624 1480.22 282.291 1480.22 354.633Z" fill="#73CCF7"/>
<path d="M1011.77 557.504V151.761H1073.1L1107.7 195.795C1132.08 162.769 1167.46 144.684 1210.71 144.684C1288.56 144.684 1339.67 200.513 1339.67 286.222V557.504H1214.64V301.949C1214.64 269.709 1200.49 251.624 1176.11 251.624C1150.95 251.624 1137.58 269.709 1137.58 301.949V557.504H1011.77Z" fill="#73CCF7"/>
<path d="M855.981 564.581C745.895 564.581 678.271 485.162 678.271 356.205C678.271 228.82 741.177 144.684 836.323 144.684C951.126 144.684 1017.96 258.701 991.229 401.025H794.648C800.152 445.846 827.673 469.436 873.28 469.436C901.588 469.436 933.041 461.572 967.639 445.06V539.419C929.109 556.718 892.152 564.581 855.981 564.581ZM793.861 316.889H884.289C881.143 267.35 864.63 239.829 838.682 239.829C811.947 239.829 797.007 266.564 793.861 316.889Z" fill="#73CCF7"/>
<path d="M533.606 145.47C619.315 145.47 671.999 224.889 671.999 354.632C671.999 483.589 620.102 563.794 536.751 563.794C509.23 563.794 485.64 555.145 465.982 538.632V702.188H340.17V151.76H402.29L436.102 195.795C459.691 163.555 492.717 145.47 533.606 145.47ZM462.05 354.632C462.05 426.974 475.418 457.641 505.298 457.641C535.965 457.641 549.332 426.974 549.332 354.632C549.332 282.29 535.965 252.41 505.298 252.41C475.418 252.41 462.05 282.29 462.05 354.632Z" fill="#73CCF7"/>
<path d="M150.974 564.581C98.2906 564.581 47.9658 547.282 0 515.043V391.59C51.8974 430.12 95.1453 446.632 128.171 446.632C160.41 446.632 177.709 430.906 177.709 401.026C177.709 308.239 1.57265 337.333 1.57265 160.41C1.57265 58.9744 69.1966 0 160.41 0C206.017 0 251.624 13.3675 297.231 40.1026V161.983C257.128 134.462 215.453 117.949 183.214 117.949C151.761 117.949 135.248 133.675 135.248 162.769C135.248 253.197 311.385 231.179 311.385 401.812C311.385 500.103 246.906 564.581 150.974 564.581Z" fill="#73CCF7"/>
</g>
<defs>
<clipPath id="clip0_227_11020">
<rect width="1689.38" height="702.188" fill="white"/>
</clipPath>
</defs>
</svg>
