<svg width="1757" height="696" viewBox="0 0 1757 696" fill="none" xmlns="http://www.w3.org/2000/svg">
<g clip-path="url(#clip0_227_11006)">
<path d="M1618.07 138.393C1703.78 138.393 1756.47 217.812 1756.47 347.555C1756.47 476.513 1704.57 556.718 1621.22 556.718C1593.7 556.718 1570.11 548.068 1550.45 531.555V695.111H1424.64V144.684H1486.76L1520.57 188.718C1544.16 156.479 1577.18 138.393 1618.07 138.393ZM1546.52 347.555C1546.52 419.897 1559.88 450.564 1589.76 450.564C1620.43 450.564 1633.8 419.897 1633.8 347.555C1633.8 275.214 1620.43 245.333 1589.76 245.333C1559.88 245.333 1546.52 275.214 1546.52 347.555Z" fill="#ECE3DB"/>
<path d="M1215.28 557.504C1094.97 557.504 1028.14 488.308 1028.14 356.205V0H1164.17V368.786C1164.17 412.034 1181.47 434.051 1215.28 434.051C1248.31 434.051 1265.61 412.034 1265.61 368.786V0H1401.64V356.205C1401.64 488.308 1334.02 557.504 1215.28 557.504Z" fill="#ECE3DB"/>
<path d="M821.028 138.393C906.737 138.393 959.421 217.812 959.421 347.555C959.421 476.513 907.523 556.718 824.173 556.718C796.652 556.718 773.062 548.068 753.404 531.555V695.111H627.592V144.684H689.711L723.523 188.718C747.113 156.479 780.139 138.393 821.028 138.393ZM749.472 347.555C749.472 419.897 762.84 450.564 792.72 450.564C823.387 450.564 836.754 419.897 836.754 347.555C836.754 275.214 823.387 245.333 792.72 245.333C762.84 245.333 749.472 275.214 749.472 347.555Z" fill="#ECE3DB"/>
<path d="M454.231 557.504C350.436 557.504 288.316 478.086 288.316 347.556C288.316 216.239 350.436 137.607 454.231 137.607C558.026 137.607 620.145 216.239 620.145 347.556C620.145 478.086 558.026 557.504 454.231 557.504ZM410.197 347.556C410.197 419.898 424.351 449.778 454.231 449.778C484.111 449.778 498.265 419.898 498.265 347.556C498.265 275.214 484.111 244.547 454.231 244.547C424.351 244.547 410.197 275.214 410.197 347.556Z" fill="#ECE3DB"/>
<path d="M100.65 550.427V125.026H0V0H337.333V125.026H236.684V550.427H100.65Z" fill="#ECE3DB"/>
</g>
<defs>
<clipPath id="clip0_227_11006">
<rect width="1756.47" height="695.111" fill="white"/>
</clipPath>
</defs>
</svg>
